<?xml version="1.0" encoding="UTF-8" standalone="no"?>
<!DOCTYPE svg PUBLIC "-//W3C//DTD SVG 1.1//EN" "http://www.w3.org/Graphics/SVG/1.1/DTD/svg11.dtd">
<svg width="100%" height="100%" viewBox="0 0 800 800" version="1.1" xmlns="http://www.w3.org/2000/svg" xmlns:xlink="http://www.w3.org/1999/xlink" xml:space="preserve" xmlns:serif="http://www.serif.com/" style="fill-rule:evenodd;clip-rule:evenodd;stroke-linejoin:round;stroke-miterlimit:2;">
    <g transform="matrix(0.360724,0,0,0.360724,-134.219,36.2328)">
        <path d="M1953.42,331.125C2020.96,321.48 2083.54,368.419 2093.18,435.964C2102.83,503.51 2055.89,566.085 1988.35,575.729C1920.8,585.374 1858.22,538.437 1848.58,470.891C1838.94,403.345 1885.87,340.77 1953.42,331.125ZM1817.6,517.392C1823.61,531.819 1831.57,545.118 1841.09,557.027L1827.12,586.321L1855.33,607.479L1883.53,628.635L1907.75,607.024C1921.85,612.836 1936.84,616.753 1952.37,618.483L1963.2,649.051L1998.1,644.067L2033.01,639.084L2034.85,606.708C2049.27,600.699 2062.57,592.742 2074.48,583.217L2103.78,597.187L2124.93,568.982L2146.09,540.777L2124.48,516.563C2130.29,502.464 2134.21,487.47 2135.94,471.938L2166.51,461.109L2161.52,426.207L2156.54,391.304L2124.16,389.463C2118.15,375.035 2110.2,361.737 2100.67,349.827L2114.64,320.533L2086.44,299.377L2058.23,278.22L2034.02,299.83C2019.92,294.019 2004.93,290.102 1989.39,288.371L1978.56,257.804L1943.66,262.787L1908.76,267.771L1906.92,300.147C1892.49,306.156 1879.19,314.112 1867.28,323.638L1837.99,309.668L1816.83,337.872L1795.68,366.077L1817.29,390.291C1811.47,404.391 1807.56,419.385 1805.83,434.917L1775.26,445.745L1780.24,480.648L1785.23,515.552L1817.6,517.392Z" style="fill:url(#_Linear1);"/>
    </g>
    <g transform="matrix(0.360724,0,0,0.360724,-134.219,36.2328)">
        <path d="M2196.03,234.924C2221.33,231.312 2244.76,248.89 2248.37,274.187C2251.98,299.483 2234.41,322.918 2209.11,326.53C2183.81,330.142 2160.38,312.563 2156.77,287.267C2153.15,261.971 2170.73,238.535 2196.03,234.924ZM2145.17,304.682C2147.42,310.085 2150.4,315.065 2153.96,319.525L2148.73,330.497L2159.29,338.42L2169.86,346.343L2178.92,338.25C2184.21,340.427 2189.82,341.894 2195.64,342.542L2199.69,353.989L2212.76,352.123L2225.84,350.257L2226.52,338.132C2231.93,335.881 2236.91,332.901 2241.37,329.334L2252.34,334.565L2260.26,324.003L2268.19,313.44L2260.09,304.372C2262.27,299.092 2263.74,293.476 2264.38,287.659L2275.83,283.604L2273.97,270.532L2272.1,257.461L2259.97,256.771C2257.72,251.368 2254.74,246.388 2251.18,241.928L2256.41,230.957L2245.85,223.033L2235.28,215.11L2226.21,223.203C2220.93,221.026 2215.32,219.56 2209.5,218.911L2205.45,207.464L2192.38,209.33L2179.3,211.197L2178.61,223.322C2173.21,225.572 2168.23,228.552 2163.77,232.119L2152.8,226.888L2144.88,237.45L2136.95,248.013L2145.05,257.082C2142.87,262.362 2141.4,267.978 2140.75,273.795L2129.31,277.85L2131.17,290.921L2133.04,303.992L2145.17,304.682Z" style="fill:url(#_Linear2);"/>
    </g>
    <g transform="matrix(0.360724,0,0,0.360724,-134.219,36.2328)">
        <rect x="1548.5" y="821.091" width="6.68" height="700.159" style="fill:rgb(243,243,243);fill-rule:nonzero;"/>
    </g>
    <g transform="matrix(0.360724,0,0,0.360724,-134.219,36.2328)">
        <rect x="1551.84" y="734.816" width="71.94" height="18.25" style="fill:white;fill-rule:nonzero;"/>
    </g>
    <g transform="matrix(0.360724,0,0,0.360724,-134.219,36.2328)">
        <rect x="1551.84" y="768.552" width="57.56" height="18.251" style="fill:white;fill-rule:nonzero;"/>
    </g>
    <g transform="matrix(0.360724,0,0,0.360724,-134.219,36.2328)">
        <rect x="1555.18" y="1562.72" width="75.49" height="24.34" style="fill:white;fill-rule:nonzero;"/>
    </g>
    <g transform="matrix(0.360724,0,0,0.360724,-134.219,36.2328)">
        <path d="M1828.96,576.974C1828.96,576.974 1974.98,750.108 1882.35,862.218C1789.73,974.327 1764.24,864.403 1764.24,864.403C1764.24,864.403 1708.81,874.696 1804.83,734.47C1850.08,668.376 1828.96,576.974 1828.96,576.974Z" style="fill:url(#_Linear3);"/>
    </g>
    <g transform="matrix(0.360724,0,0,0.360724,-134.219,36.2328)">
        <path d="M1996.49,747.605L1996.49,579.872C1996.49,572.923 1995.31,566.247 1993.13,560.041C2033.52,519.217 2084.65,479.349 2149.01,441.884C2149.01,441.884 2225.88,555.368 2137.52,701.298C2094.3,712.346 2046.99,724.953 1996.49,747.605Z" style="fill:url(#_Linear4);"/>
    </g>
    <g transform="matrix(0.360724,0,0,0.360724,-134.219,36.2328)">
        <path d="M2153.66,891.601C2144.25,861.1 2115.84,838.939 2082.25,838.939L1996.49,838.939L1996.49,747.605C2046.99,724.953 2094.3,712.346 2137.52,701.298C2199.69,685.402 2253.4,672.74 2295.94,638.06C2295.94,638.06 2275.86,781.823 2153.66,891.601Z" style="fill:url(#_Linear5);"/>
    </g>
    <g transform="matrix(0.360724,0,0,0.360724,-134.219,36.2328)">
        <path d="M892.07,1521.25L885.396,1521.25L885.396,1319.85C887.572,1321.62 889.804,1323.4 892.07,1325.18L892.07,1521.25ZM892.07,1145.52C889.595,1143.8 887.438,1142.47 885.396,1141.58L885.396,821.091L892.07,821.091L892.07,1042.3C890.043,1044.49 888.984,1045.86 888.728,1046.19L888.728,1092.78C888.829,1092.66 889.945,1091.24 892.07,1088.83L892.07,1145.52Z" style="fill:url(#_Linear6);"/>
    </g>
    <g transform="matrix(0.360724,0,0,0.360724,-134.219,36.2328)">
        <rect x="1359.9" y="821.091" width="6.67" height="700.159" style="fill:rgb(243,243,243);fill-rule:nonzero;"/>
    </g>
    <g transform="matrix(0.360724,0,0,0.360724,-134.219,36.2328)">
        <rect x="1834.4" y="821.091" width="6.67" height="700.159" style="fill:rgb(243,243,243);fill-rule:nonzero;"/>
    </g>
    <g transform="matrix(0.360724,0,0,0.360724,-134.219,36.2328)">
        <rect x="888.733" y="734.816" width="113.657" height="18.25" style="fill:rgb(224,224,224);fill-rule:nonzero;"/>
    </g>
    <g transform="matrix(0.360724,0,0,0.360724,-134.219,36.2328)">
        <rect x="888.733" y="768.552" width="161.217" height="18.251" style="fill:rgb(224,224,224);fill-rule:nonzero;"/>
    </g>
    <g transform="matrix(0.360724,0,0,0.360724,-134.219,36.2328)">
        <rect x="1358.12" y="734.816" width="133.43" height="18.25" style="fill:white;fill-rule:nonzero;"/>
    </g>
    <g transform="matrix(0.360724,0,0,0.360724,-134.219,36.2328)">
        <rect x="1358.12" y="768.552" width="85.32" height="18.251" style="fill:white;fill-rule:nonzero;"/>
    </g>
    <g transform="matrix(0.360724,0,0,0.360724,-134.219,36.2328)">
        <rect x="1841.07" y="734.816" width="82.69" height="18.25" style="fill:white;fill-rule:nonzero;"/>
    </g>
    <g transform="matrix(0.360724,0,0,0.360724,-134.219,36.2328)">
        <rect x="1841.07" y="768.552" width="96.38" height="18.251" style="fill:white;fill-rule:nonzero;"/>
    </g>
    <g transform="matrix(0.360724,0,0,0.360724,-134.219,36.2328)">
        <rect x="1363.24" y="1562.72" width="75.49" height="24.34" style="fill:white;fill-rule:nonzero;"/>
    </g>
    <g transform="matrix(0.360724,0,0,0.360724,-134.219,36.2328)">
        <rect x="1841.07" y="1562.72" width="75.5" height="24.34" style="fill:white;fill-rule:nonzero;"/>
    </g>
    <g transform="matrix(0.360724,0,0,0.360724,-134.219,36.2328)">
        <rect x="613.885" y="1081.55" width="22.801" height="98.46" style="fill:rgb(224,224,224);fill-rule:nonzero;"/>
    </g>
    <g transform="matrix(0.360724,0,0,0.360724,-134.219,36.2328)">
        <rect x="670.502" y="1041.55" width="22.802" height="138.459" style="fill:rgb(224,224,224);fill-rule:nonzero;"/>
    </g>
    <g transform="matrix(0.360724,0,0,0.360724,-134.219,36.2328)">
        <rect x="727.119" y="1020.69" width="22.802" height="159.32" style="fill:rgb(224,224,224);fill-rule:nonzero;"/>
    </g>
    <g transform="matrix(0.360724,0,0,0.360724,-134.219,36.2328)">
        <rect x="783.737" y="1011.99" width="22.801" height="168.02" style="fill:rgb(224,224,224);fill-rule:nonzero;"/>
    </g>
    <g transform="matrix(0.360724,0,0,0.360724,-134.219,36.2328)">
        <rect x="613.885" y="1118.24" width="22.801" height="61.77" style="fill:url(#_Linear7);"/>
    </g>
    <g transform="matrix(0.360724,0,0,0.360724,-134.219,36.2328)">
        <rect x="670.502" y="1093.15" width="22.802" height="86.86" style="fill:url(#_Linear8);"/>
    </g>
    <g transform="matrix(0.360724,0,0,0.360724,-134.219,36.2328)">
        <rect x="727.119" y="1080.05" width="22.802" height="99.96" style="fill:url(#_Linear9);"/>
    </g>
    <g transform="matrix(0.360724,0,0,0.360724,-134.219,36.2328)">
        <rect x="783.737" y="1074.6" width="22.801" height="105.41" style="fill:url(#_Linear10);"/>
    </g>
    <g transform="matrix(0.360724,0,0,0.360724,-134.219,36.2328)">
        <path d="M1936.55,1622.92L1222.76,1622.92C1189.66,1622.92 1162.82,1596.08 1162.82,1562.98L1162.82,1247.32C1179.9,1242.88 1196.26,1237.18 1212.15,1230.5L1212.15,1576.31L1685.39,1576.31C1698.48,1587.61 1715.53,1594.44 1734.18,1594.44L1987.58,1594.44C1977.02,1611.53 1958.12,1622.92 1936.55,1622.92ZM1162.82,1215.76L1162.82,579.872C1162.82,550.389 1184.1,525.876 1212.15,520.864L1212.15,1196.9C1196.12,1204.49 1179.79,1210.92 1162.82,1215.76ZM1996.49,838.939L1947.16,838.939L1947.16,520.864C1968.6,524.695 1986.08,539.914 1993.13,560.041C1995.31,566.247 1996.49,572.923 1996.49,579.872L1996.49,838.939Z" style="fill:url(#_Linear11);"/>
    </g>
    <g transform="matrix(0.360724,0,0,0.360724,-134.219,36.2328)">
        <path d="M1947.16,398.552L1252.4,398.552C1230.17,398.552 1212.15,416.574 1212.15,438.806L1212.15,1576.31L1947.16,1576.31L1947.16,398.552Z" style="fill:rgb(245,245,245);fill-rule:nonzero;"/>
    </g>
    <g transform="matrix(0.360724,0,0,0.360724,-134.219,36.2328)">
        <rect x="1661.95" y="619.053" width="216.72" height="27.411" style="fill:url(#_Linear12);"/>
    </g>
    <g transform="matrix(0.360724,0,0,0.360724,-134.219,36.2328)">
        <rect x="1661.95" y="733.958" width="198.94" height="27.411" style="fill:url(#_Linear13);"/>
    </g>
    <g transform="matrix(0.360724,0,0,0.360724,-134.219,36.2328)">
        <rect x="1661.95" y="676.505" width="172.13" height="27.412" style="fill:url(#_Linear14);"/>
    </g>
    <g transform="matrix(0.360724,0,0,0.360724,-134.219,36.2328)">
        <path d="M1429.42,462.439C1340.26,462.439 1267.72,534.976 1267.72,624.135C1267.72,687.416 1304.96,745.229 1362.6,771.422C1383.62,780.982 1406.1,785.829 1429.42,785.829C1452.74,785.829 1475.22,780.982 1496.24,771.422C1553.88,745.229 1591.12,687.416 1591.12,624.135C1591.12,534.976 1518.58,462.439 1429.42,462.439ZM1429.42,794.841C1404.8,794.841 1381.06,789.722 1358.87,779.626C1298.03,751.976 1258.71,690.941 1258.71,624.135C1258.71,530.006 1335.29,453.428 1429.42,453.428C1523.55,453.428 1600.13,530.006 1600.13,624.135C1600.13,690.941 1560.81,751.976 1499.97,779.626C1477.78,789.722 1454.04,794.841 1429.42,794.841Z" style="fill:url(#_Linear15);"/>
    </g>
    <g transform="matrix(0.360724,0,0,0.360724,-134.219,36.2328)">
        <rect x="1258.71" y="863.558" width="249.02" height="24.441" style="fill:rgb(224,224,224);fill-rule:nonzero;"/>
    </g>
    <g transform="matrix(0.360724,0,0,0.360724,-134.219,36.2328)">
        <rect x="1258.71" y="929.314" width="249.02" height="24.442" style="fill:rgb(224,224,224);fill-rule:nonzero;"/>
    </g>
    <g transform="matrix(0.360724,0,0,0.360724,-134.219,36.2328)">
        <rect x="1258.71" y="995.071" width="249.02" height="24.439" style="fill:rgb(224,224,224);fill-rule:nonzero;"/>
    </g>
    <g transform="matrix(0.360724,0,0,0.360724,-134.219,36.2328)">
        <rect x="1558.56" y="863.558" width="41.57" height="24.441" style="fill:rgb(78,126,214);fill-rule:nonzero;"/>
    </g>
    <g transform="matrix(0.360724,0,0,0.360724,-134.219,36.2328)">
        <rect x="1558.56" y="929.314" width="41.57" height="24.442" style="fill:rgb(78,126,214);fill-rule:nonzero;"/>
    </g>
    <g transform="matrix(0.360724,0,0,0.360724,-134.219,36.2328)">
        <rect x="1558.56" y="995.071" width="41.57" height="24.439" style="fill:rgb(78,126,214);fill-rule:nonzero;"/>
    </g>
    <g transform="matrix(0.360724,0,0,0.360724,-134.219,36.2328)">
        <path d="M2082.25,1594.44L1987.58,1594.44C1993.23,1585.29 1996.49,1574.51 1996.49,1562.98L1996.49,1181.71C2024.84,1160.22 2052.66,1139.41 2080.11,1119.6C2106.1,1131.12 2131.67,1143.25 2156.97,1155.58L2156.97,1519.71C2156.97,1560.98 2123.52,1594.44 2082.25,1594.44ZM1996.49,1141.73L1996.49,1085.68C2013.14,1091.73 2029.57,1098.16 2045.79,1104.87C2029.45,1116.92 2013.02,1129.23 1996.49,1141.73Z" style="fill:white;fill-rule:nonzero;"/>
    </g>
    <g transform="matrix(0.360724,0,0,0.360724,-134.219,36.2328)">
        <path d="M1996.49,1181.71L1996.49,1141.73C2013.02,1129.23 2029.45,1116.92 2045.79,1104.87C2057.33,1109.65 2068.75,1114.56 2080.11,1119.6C2052.66,1139.41 2024.84,1160.22 1996.49,1181.71Z" style="fill:url(#_Linear16);"/>
    </g>
    <g transform="matrix(0.360724,0,0,0.360724,-134.219,36.2328)">
        <path d="M2156.97,1120.24C2141.49,1112.77 2125.9,1105.4 2110.16,1098.22C2125.89,1087.2 2141.47,1076.59 2156.97,1066.41L2156.97,1120.24ZM2075.84,1082.98C2049.92,1071.82 2023.53,1061.3 1996.49,1051.78L1996.49,982.753C2061.95,960.317 2113.36,927.807 2153.66,891.601C2155.81,898.575 2156.97,905.987 2156.97,913.667L2156.97,1027.31C2130.13,1044.68 2103.1,1063.38 2075.84,1082.98Z" style="fill:white;fill-rule:nonzero;"/>
    </g>
    <g transform="matrix(0.360724,0,0,0.360724,-134.219,36.2328)">
        <path d="M1996.49,982.753L1996.49,838.939L2082.25,838.939C2115.84,838.939 2144.25,861.1 2153.66,891.601C2113.36,927.807 2061.95,960.317 1996.49,982.753Z" style="fill:url(#_Linear17);"/>
    </g>
    <g transform="matrix(0.360724,0,0,0.360724,-134.219,36.2328)">
        <path d="M2110.16,1098.22C2098.81,1093.03 2087.37,1087.94 2075.84,1082.98C2103.1,1063.38 2130.13,1044.68 2156.97,1027.31L2156.97,1066.41C2141.47,1076.59 2125.89,1087.2 2110.16,1098.22Z" style="fill:url(#_Linear18);"/>
    </g>
    <g transform="matrix(0.360724,0,0,0.360724,-134.219,36.2328)">
        <path d="M1987.58,1594.44L1734.18,1594.44C1715.53,1594.44 1698.48,1587.61 1685.39,1576.31L1947.16,1576.31L1947.16,1069.17C1963.85,1074.26 1980.28,1079.79 1996.49,1085.68L1996.49,1562.98C1996.49,1574.51 1993.23,1585.29 1987.58,1594.44ZM1996.49,1051.78C1980.29,1046.08 1963.87,1040.73 1947.16,1035.82L1947.16,838.939L1996.49,838.939L1996.49,1051.78Z" style="fill:url(#_Linear19);"/>
    </g>
    <g transform="matrix(0.360724,0,0,0.360724,-134.219,36.2328)">
        <path d="M1947.16,1576.31L1685.39,1576.31C1669.5,1562.61 1659.45,1542.33 1659.45,1519.71L1659.45,1037.16C1681,1035.32 1702.03,1034.45 1722.6,1034.45C1803.76,1034.45 1877.72,1048 1947.16,1069.17L1947.16,1576.31ZM1947.16,1035.82C1878.02,1015.49 1804.31,1002.62 1723.31,1002.62C1702.53,1002.62 1681.23,1003.47 1659.45,1005.26L1659.45,913.667C1659.45,872.395 1692.91,838.939 1734.18,838.939L1947.16,838.939L1947.16,1035.82Z" style="fill:white;fill-rule:nonzero;"/>
    </g>
    <g transform="matrix(0.360724,0,0,0.360724,-134.219,36.2328)">
        <path d="M2156.97,1155.58C2131.67,1143.25 2106.1,1131.12 2080.11,1119.6C2068.75,1114.56 2057.33,1109.65 2045.79,1104.87C2029.57,1098.16 2013.14,1091.73 1996.49,1085.68C1980.28,1079.79 1963.85,1074.26 1947.16,1069.17C1877.72,1048 1803.76,1034.45 1722.6,1034.45C1702.03,1034.45 1681,1035.32 1659.45,1037.16L1659.45,1005.26C1681.23,1003.47 1702.53,1002.62 1723.31,1002.62C1804.31,1002.62 1878.02,1015.49 1947.16,1035.82C1963.87,1040.73 1980.29,1046.08 1996.49,1051.78C2023.53,1061.3 2049.92,1071.82 2075.84,1082.98C2087.37,1087.94 2098.81,1093.03 2110.16,1098.22C2125.9,1105.4 2141.49,1112.77 2156.97,1120.24L2156.97,1155.58Z" style="fill:url(#_Radial20);"/>
    </g>
    <g transform="matrix(0.360724,0,0,0.360724,-134.219,36.2328)">
        <path d="M2042.69,1036.23C2018.09,1045.02 1991.58,1037.08 1975.6,1018.3C1971.79,1013.82 1968.58,1008.73 1966.14,1003.1C1965.6,1001.86 1965.1,1000.58 1964.63,999.292C1959.99,986.294 1960.01,972.762 1963.84,960.533C1969.37,942.883 1982.81,927.943 2001.57,921.238C2007.76,919.023 2014.07,917.872 2020.3,917.682C2046.05,916.904 2070.48,932.605 2079.62,958.168C2090.98,989.923 2074.44,1024.87 2042.69,1036.23ZM2098.81,951.307C2086.62,917.214 2054.04,896.273 2019.69,897.306C2011.38,897.556 2002.96,899.093 1994.7,902.047C1969.69,910.994 1951.75,930.918 1944.38,954.457C1939.28,970.771 1939.24,988.819 1945.44,1006.16C1946.06,1007.88 1946.73,1009.58 1947.45,1011.23C1950.71,1018.74 1954.99,1025.54 1960.07,1031.51C1981.38,1056.56 2016.75,1067.15 2049.55,1055.42C2091.91,1040.27 2113.96,993.659 2098.81,951.307Z" style="fill:rgb(224,224,224);fill-rule:nonzero;"/>
    </g>
    <g transform="matrix(0.360724,0,0,0.360724,-134.219,36.2328)">
        <path d="M1963.84,960.533L1944.38,954.457C1951.75,930.918 1969.69,910.994 1994.7,902.047C2002.96,899.093 2011.38,897.556 2019.69,897.306L2020.3,917.682C2014.07,917.872 2007.76,919.023 2001.57,921.238C1982.81,927.943 1969.37,942.883 1963.84,960.533Z" style="fill:rgb(83,127,253);fill-rule:nonzero;"/>
    </g>
    <g transform="matrix(0.360724,0,0,0.360724,-134.219,36.2328)">
        <path d="M1966.14,1003.1L1947.45,1011.23C1946.73,1009.58 1946.06,1007.88 1945.44,1006.16C1939.24,988.819 1939.28,970.771 1944.38,954.457L1963.84,960.533C1960.01,972.762 1959.99,986.294 1964.63,999.292C1965.1,1000.58 1965.6,1001.86 1966.14,1003.1Z" style="fill:rgb(75,166,243);fill-rule:nonzero;"/>
    </g>
    <g transform="matrix(0.360724,0,0,0.360724,-134.219,36.2328)">
        <path d="M1960.07,1031.51C1954.99,1025.54 1950.71,1018.74 1947.45,1011.23L1966.14,1003.1C1968.58,1008.73 1971.79,1013.82 1975.6,1018.3L1960.07,1031.51Z" style="fill:rgb(70,187,237);fill-rule:nonzero;"/>
    </g>
    <g transform="matrix(0.360724,0,0,0.360724,-134.219,36.2328)">
        <rect x="1977.51" y="1423.88" width="43.9" height="143.94" style="fill:rgb(70,187,237);fill-rule:nonzero;"/>
    </g>
    <g transform="matrix(0.360724,0,0,0.360724,-134.219,36.2328)">
        <rect x="1912.25" y="1464.25" width="43.9" height="103.57" style="fill:rgb(70,187,237);fill-rule:nonzero;"/>
    </g>
    <g transform="matrix(0.360724,0,0,0.360724,-134.219,36.2328)">
        <rect x="2040.82" y="1357.17" width="43.9" height="210.65" style="fill:rgb(70,187,237);fill-rule:nonzero;"/>
    </g>
    <g transform="matrix(0.360724,0,0,0.360724,-134.219,36.2328)">
        <path d="M1725.92,1409.05L1722.1,1406.12L1793.64,1313.04L1881.93,1317.83L1948.5,1211.8L2020.23,1204.4L2063.33,1119.16L2067.62,1121.33L2023.34,1208.92L1951.33,1216.35L1884.49,1322.78L1795.91,1317.98L1725.92,1409.05Z" style="fill:rgb(70,187,237);fill-rule:nonzero;"/>
    </g>
    <g transform="matrix(0.360724,0,0,0.360724,-134.219,36.2328)">
        <path d="M1861.21,946.196L1736.37,946.196C1728.49,946.196 1722.1,939.807 1722.1,931.925C1722.1,924.044 1728.49,917.654 1736.37,917.654L1861.21,917.654C1869.09,917.654 1875.48,924.044 1875.48,931.925C1875.48,939.807 1869.09,946.196 1861.21,946.196Z" style="fill:rgb(78,126,214);fill-rule:nonzero;"/>
    </g>
    <g transform="matrix(0.360724,0,0,0.360724,-134.219,36.2328)">
        <path d="M1861.21,995.987L1736.37,995.987C1728.49,995.987 1722.1,989.598 1722.1,981.716C1722.1,973.834 1728.49,967.445 1736.37,967.445L1861.21,967.445C1869.09,967.445 1875.48,973.834 1875.48,981.716C1875.48,989.598 1869.09,995.987 1861.21,995.987Z" style="fill:rgb(224,224,224);fill-rule:nonzero;"/>
    </g>
    <g transform="matrix(0.360724,0,0,0.360724,-134.219,36.2328)">
        <path d="M1861.21,1045.78L1736.37,1045.78C1728.49,1045.78 1722.1,1039.39 1722.1,1031.51C1722.1,1023.63 1728.49,1017.24 1736.37,1017.24L1861.21,1017.24C1869.09,1017.24 1875.48,1023.63 1875.48,1031.51C1875.48,1039.39 1869.09,1045.78 1861.21,1045.78Z" style="fill:rgb(224,224,224);fill-rule:nonzero;"/>
    </g>
    <g transform="matrix(0.360724,0,0,0.360724,-134.219,36.2328)">
        <path d="M716.93,1345.12L767.188,1345.12L751.805,1313.22L701.547,1313.22L716.93,1345.12Z" style="fill:url(#_Linear21);"/>
    </g>
    <g transform="matrix(0.360724,0,0,0.360724,-134.219,36.2328)">
        <path d="M693.413,1345.12L705.389,1345.12L690.006,1313.22L678.029,1313.22L693.413,1345.12Z" style="fill:url(#_Linear22);"/>
    </g>
    <g transform="matrix(0.360724,0,0,0.360724,-134.219,36.2328)">
        <rect x="1570.01" y="301.128" width="99.5" height="18.024" style="fill:url(#_Linear23);"/>
    </g>
    <g transform="matrix(0.360724,0,0,0.360724,-134.219,36.2328)">
        <rect x="1570.01" y="292.716" width="99.5" height="3.392" style="fill:url(#_Linear24);"/>
    </g>
    <g transform="matrix(0.360724,0,0,0.360724,-134.219,36.2328)">
        <rect x="1407.18" y="530.599" width="44.48" height="187.071" style="fill:url(#_Linear25);"/>
    </g>
    <g transform="matrix(0.360724,0,0,0.360724,-134.219,36.2328)">
        <rect x="1335.88" y="601.892" width="187.08" height="44.485" style="fill:url(#_Linear26);"/>
    </g>
    <g transform="matrix(0.360724,0,0,0.360724,-134.219,36.2328)">
        <path d="M804.763,838.166C790.202,868.941 758.451,886.058 726.415,883.475C718.779,882.858 711.125,881.124 703.684,878.185C702.041,877.536 700.406,876.829 698.787,876.064C682.524,868.369 670.077,855.874 662.335,841.075C651.159,819.717 649.784,793.557 660.889,770.093C664.553,762.346 669.308,755.468 674.877,749.548C697.888,725.105 734.876,717.059 766.86,732.19C806.592,750.99 823.559,798.435 804.763,838.166ZM778.223,708.182C735.564,687.998 686.236,698.729 655.538,731.329C648.106,739.222 641.767,748.396 636.876,758.729C622.069,790.029 623.9,824.923 638.803,853.408C649.131,873.149 665.735,889.813 687.429,900.077C689.585,901.099 691.767,902.044 693.955,902.908C703.882,906.823 714.087,909.14 724.274,909.957C767.006,913.407 809.355,890.574 828.778,849.528C853.849,796.536 831.215,733.255 778.223,708.182Z" style="fill:rgb(224,224,224);fill-rule:nonzero;"/>
    </g>
    <g transform="matrix(0.360724,0,0,0.360724,-134.219,36.2328)">
        <path d="M662.335,841.075L638.803,853.408C623.9,824.923 622.069,790.029 636.876,758.729C641.767,748.396 648.106,739.222 655.538,731.329L674.877,749.548C669.308,755.468 664.553,762.346 660.889,770.093C649.784,793.557 651.159,819.717 662.335,841.075Z" style="fill:rgb(45,91,173);fill-rule:nonzero;"/>
    </g>
    <g transform="matrix(0.360724,0,0,0.360724,-134.219,36.2328)">
        <path d="M703.684,878.185L693.955,902.908C691.767,902.044 689.585,901.099 687.429,900.077C665.735,889.813 649.131,873.149 638.803,853.408L662.335,841.075C670.077,855.874 682.524,868.369 698.787,876.064C700.406,876.829 702.041,877.536 703.684,878.185Z" style="fill:rgb(93,150,255);fill-rule:nonzero;"/>
    </g>
    <g transform="matrix(0.360724,0,0,0.360724,-134.219,36.2328)">
        <path d="M724.274,909.957C714.087,909.14 703.882,906.823 693.955,902.908L703.684,878.185C711.125,881.124 718.779,882.858 726.415,883.475L724.274,909.957Z" style="fill:rgb(93,150,255);fill-rule:nonzero;"/>
    </g>
    <g transform="matrix(0.360724,0,0,0.360724,-134.219,36.2328)">
        <path d="M700.214,979.919L502.005,979.919L502.005,975.979L696.274,975.979L696.274,892.01L700.214,892.01L700.214,979.919Z" style="fill:rgb(93,150,255);fill-rule:nonzero;"/>
    </g>
    <g transform="matrix(0.360724,0,0,0.360724,-134.219,36.2328)">
        <rect x="502.004" y="934.978" width="104.333" height="23.636" style="fill:rgb(224,224,224);fill-rule:nonzero;"/>
    </g>
    <g transform="matrix(0.360724,0,0,0.360724,-134.219,36.2328)">
        <rect x="1083.59" y="1322.75" width="162.01" height="9.62" style="fill:rgb(226,210,202);fill-rule:nonzero;"/>
    </g>
    <g transform="matrix(0.360724,0,0,0.360724,-134.219,36.2328)">
        <rect x="1105.3" y="1357.4" width="14.2" height="437.36" style="fill:rgb(112,104,101);fill-rule:nonzero;"/>
    </g>
    <g transform="matrix(0.360724,0,0,0.360724,-134.219,36.2328)">
        <rect x="1220.24" y="1320.03" width="112.61" height="13.73" style="fill:rgb(204,189,183);fill-rule:nonzero;"/>
    </g>
    <g transform="matrix(0.360724,0,0,0.360724,-134.219,36.2328)">
        <rect x="1255.22" y="1202.85" width="42.65" height="129.52" style="fill:rgb(153,142,137);fill-rule:nonzero;"/>
    </g>
    <g transform="matrix(0.360724,0,0,0.360724,-134.219,36.2328)">
        <rect x="1025.47" y="1332.53" width="623.93" height="24.87" style="fill:rgb(181,144,116);fill-rule:nonzero;"/>
    </g>
    <g transform="matrix(0.360724,0,0,0.360724,-134.219,36.2328)">
        <path d="M948.264,1365.46C948.264,1365.46 918.006,1345.53 892.07,1325.18L892.07,1199.53C894.638,1202.46 898.738,1206.52 904.579,1211.14C904.133,1240.3 905.678,1281.86 917.602,1289.17C929.315,1296.34 976.019,1320.54 974.634,1325.08C973.248,1329.62 948.264,1365.46 948.264,1365.46ZM885.396,1319.85C869.584,1306.98 856.728,1294.63 855.662,1287.76C852.836,1269.58 860.078,1147.64 872.406,1142.03C875.058,1140.82 877.352,1140.25 879.549,1140.25C881.512,1140.25 883.398,1140.7 885.396,1141.58L885.396,1319.85ZM907.448,1176.13C899.738,1169.36 894.895,1163.34 892.07,1159.21L892.07,1145.52C893.898,1146.79 895.9,1148.27 898.156,1149.94C908.905,1157.92 908.786,1169.29 907.448,1176.13Z" style="fill:white;fill-rule:nonzero;"/>
    </g>
    <g transform="matrix(0.360724,0,0,0.360724,-134.219,36.2328)">
        <path d="M892.07,1325.18C889.804,1323.4 887.572,1321.62 885.396,1319.85L885.396,1141.58C887.438,1142.47 889.595,1143.8 892.07,1145.52L892.07,1159.21C889.709,1155.76 888.76,1153.64 888.728,1153.52L888.728,1194.88C888.846,1195.42 889.92,1197.08 892.07,1199.53L892.07,1325.18Z" style="fill:url(#_Linear27);"/>
    </g>
    <g transform="matrix(0.360724,0,0,0.360724,-134.219,36.2328)">
        <path d="M904.579,1211.14C898.738,1206.52 894.638,1202.46 892.07,1199.53C889.92,1197.08 888.846,1195.42 888.728,1194.88L888.728,1153.52C888.76,1153.64 889.709,1155.76 892.07,1159.21C894.895,1163.34 899.738,1169.36 907.448,1176.13C906.753,1179.68 905.728,1182.02 905.728,1182.02C905.728,1182.02 904.832,1194.58 904.579,1211.14Z" style="fill:url(#_Radial28);"/>
    </g>
    <g transform="matrix(0.360724,0,0,0.360724,-134.219,36.2328)">
        <path d="M1016.1,1735.04C1016.1,1735.04 1013.31,1754.41 1012.96,1757.31C1012.61,1760.22 981.931,1755.6 981.931,1755.6L979.446,1732.55C979.446,1732.55 1012.27,1732.31 1016.1,1735.04Z" style="fill:rgb(66,71,115);fill-rule:nonzero;"/>
    </g>
    <g transform="matrix(0.360724,0,0,0.360724,-134.219,36.2328)">
        <path d="M1013.29,1754.85C1013.29,1754.85 1023.01,1766.52 1032.41,1771.61C1041.82,1776.69 1056.59,1778.71 1062.15,1783.97C1066.17,1787.77 1076.77,1804.13 1037.72,1803.8C998.667,1803.47 979.839,1806.11 975.654,1799.84C971.471,1793.57 981.709,1753.54 981.709,1753.54C981.709,1753.54 990.957,1756.87 1013.29,1754.85Z" style="fill:rgb(41,44,71);fill-rule:nonzero;"/>
    </g>
    <g transform="matrix(0.360724,0,0,0.360724,-134.219,36.2328)">
        <path d="M1212.69,1735.23C1212.69,1735.23 1209.9,1754.59 1209.55,1757.5C1209.2,1760.41 1178.52,1755.79 1178.52,1755.79L1176.04,1732.73C1176.04,1732.73 1208.85,1732.5 1212.69,1735.23Z" style="fill:rgb(66,71,115);fill-rule:nonzero;"/>
    </g>
    <g transform="matrix(0.360724,0,0,0.360724,-134.219,36.2328)">
        <path d="M1209.88,1755.04C1209.88,1755.04 1219.6,1766.7 1229,1771.79C1238.41,1776.88 1273.01,1781.05 1278.57,1786.32C1282.58,1790.12 1289.26,1805.41 1234.31,1803.98C1195.27,1802.97 1176.43,1806.29 1172.24,1800.02C1168.06,1793.75 1178.3,1753.72 1178.3,1753.72C1178.3,1753.72 1187.01,1757.28 1209.88,1755.04Z" style="fill:rgb(41,44,71);fill-rule:nonzero;"/>
    </g>
    <g transform="matrix(0.360724,0,0,0.360724,-134.219,36.2328)">
        <path d="M917.134,1400.57C917.134,1400.57 1028.69,1419.44 1053.88,1423.4C1079.08,1427.36 1215.7,1461.35 1232.78,1471.71C1246.38,1479.96 1225.65,1677.99 1220.81,1753.54L1167,1753.54L1163.09,1526.9C1098.52,1528.52 1052.44,1511.8 1005.42,1518.94C958.4,1526.08 919.199,1536.23 889.319,1496.15C889.319,1496.15 888.212,1409.32 917.134,1400.57Z" style="fill:rgb(41,44,71);fill-rule:nonzero;"/>
    </g>
    <g transform="matrix(0.360724,0,0,0.360724,-134.219,36.2328)">
        <path d="M1027.09,1753.72L974.649,1750.48L969.539,1526.9C941.74,1527.6 932.211,1525.83 909.716,1523.1L867.377,1424.69C904.482,1432.11 1023.37,1462.09 1039.22,1471.71C1052.82,1479.96 1031.93,1678.17 1027.09,1753.72Z" style="fill:rgb(41,44,71);fill-rule:nonzero;"/>
    </g>
    <g transform="matrix(0.360724,0,0,0.360724,-134.219,36.2328)">
        <path d="M968.485,982.415C968.485,982.415 1009.38,971.113 1024.98,1002.86C1040.58,1034.6 1033.51,1094.79 1012.9,1100.45C992.29,1106.11 962.652,1099.59 954.096,1079.83C945.54,1060.08 938.716,1032 940.764,1013.82C942.812,995.637 957.627,986.759 968.485,982.415Z" style="fill:rgb(238,168,134);fill-rule:nonzero;"/>
    </g>
    <g transform="matrix(0.360724,0,0,0.360724,-134.219,36.2328)">
        <path d="M1002.21,1094.11C1002.21,1094.11 1001.76,1118.26 1004.43,1123.4C1007.09,1128.55 947.483,1127.26 947.483,1127.26C947.483,1127.26 956.877,1098.27 951.548,1073.57C946.273,1049.12 1002.21,1094.11 1002.21,1094.11Z" style="fill:rgb(238,168,134);fill-rule:nonzero;"/>
    </g>
    <g transform="matrix(0.360724,0,0,0.360724,-134.219,36.2328)">
        <path d="M948.337,1064.43C948.337,1064.43 951.522,1070.9 966.951,1069.86C982.38,1068.81 1002.73,1050.2 1009.28,1048.54C1015.83,1046.87 1016.22,1043.15 1016.22,1043.15L1019.68,1049.31L1026.4,1050.33C1026.4,1050.33 1021.83,1031.67 1031.77,1025.11C1041.71,1018.54 1027.3,965.634 976.988,978.394C976.988,978.394 938.593,985.425 938.078,1006.86C937.563,1028.3 940.884,1053.07 948.337,1064.43Z" style="fill:rgb(58,63,71);fill-rule:nonzero;"/>
    </g>
    <g transform="matrix(0.360724,0,0,0.360724,-134.219,36.2328)">
        <path d="M1007.56,1122.78C1007.56,1122.78 1007.39,1112.95 1002.94,1112.01C998.479,1111.06 956.082,1105.23 950.611,1107.38L948.264,1120.37C948.264,1120.37 958.806,1126.86 1007.56,1122.78Z" style="fill:rgb(226,210,202);fill-rule:nonzero;"/>
    </g>
    <g transform="matrix(0.360724,0,0,0.360724,-134.219,36.2328)">
        <path d="M1019.83,1038.75C1018.68,1030.69 1009.52,1021.43 1004.27,1033.99C999.024,1046.54 1007.82,1064.82 1013.7,1063.84C1019.59,1062.86 1021.38,1049.69 1019.83,1038.75Z" style="fill:rgb(238,168,134);fill-rule:nonzero;"/>
    </g>
    <g transform="matrix(0.360724,0,0,0.360724,-134.219,36.2328)">
        <path d="M1185.14,1238.98L1185.07,1238.97C1185.37,1239.1 1185.42,1239.12 1185.14,1238.98Z" style="fill:rgb(50,54,87);fill-rule:nonzero;"/>
    </g>
    <g transform="matrix(0.360724,0,0,0.360724,-134.219,36.2328)">
        <path d="M956.558,988.171C956.558,988.171 906.697,985.824 947.855,1063.66L956.558,988.171Z" style="fill:rgb(58,63,71);fill-rule:nonzero;"/>
    </g>
    <g transform="matrix(0.360724,0,0,0.360724,-134.219,36.2328)">
        <path d="M845.464,1780.25L849.173,1790.68L1005.89,1742.12L998.382,1720.99L845.464,1780.25Z" style="fill:rgb(145,135,131);fill-rule:nonzero;"/>
    </g>
    <g transform="matrix(0.360724,0,0,0.360724,-134.219,36.2328)">
        <rect x="993.456" y="1564.3" width="17.814" height="170.39" style="fill:rgb(145,135,131);fill-rule:nonzero;"/>
    </g>
    <g transform="matrix(0.360724,0,0,0.360724,-134.219,36.2328)">
        <rect x="949.831" y="1555.25" width="105.059" height="10.04" style="fill:rgb(94,88,84);fill-rule:nonzero;"/>
    </g>
    <g transform="matrix(0.360724,0,0,0.360724,-134.219,36.2328)">
        <path d="M1160.64,1780.25L1156.93,1790.68L1000.21,1742.12L1007.1,1719.67L1160.64,1780.25Z" style="fill:rgb(145,135,131);fill-rule:nonzero;"/>
    </g>
    <g transform="matrix(0.360724,0,0,0.360724,-134.219,36.2328)">
        <path d="M1050.22,1789.56L1050.22,1801.7L1000.21,1742.12L1007.1,1719.67L1050.22,1789.56Z" style="fill:rgb(145,135,131);fill-rule:nonzero;"/>
    </g>
    <g transform="matrix(0.360724,0,0,0.360724,-134.219,36.2328)">
        <path d="M1175.29,1794.76C1175.29,1802.85 1168.73,1809.41 1160.64,1809.41C1152.55,1809.41 1145.99,1802.85 1145.99,1794.76C1145.99,1786.67 1152.55,1780.11 1160.64,1780.11C1168.73,1780.11 1175.29,1786.67 1175.29,1794.76Z" style="fill:rgb(191,178,172);fill-rule:nonzero;"/>
    </g>
    <g transform="matrix(0.360724,0,0,0.360724,-134.219,36.2328)">
        <path d="M1051.46,1794.76C1051.46,1802.85 1044.91,1809.41 1036.82,1809.41C1028.73,1809.41 1022.17,1802.85 1022.17,1794.76C1022.17,1786.67 1028.73,1780.11 1036.82,1780.11C1044.91,1780.11 1051.46,1786.67 1051.46,1794.76Z" style="fill:rgb(191,178,172);fill-rule:nonzero;"/>
    </g>
    <g transform="matrix(0.360724,0,0,0.360724,-134.219,36.2328)">
        <path d="M860.11,1794.76C860.11,1802.85 853.553,1809.41 845.464,1809.41C837.375,1809.41 830.817,1802.85 830.817,1794.76C830.817,1786.67 837.375,1780.11 845.464,1780.11C853.553,1780.11 860.11,1786.67 860.11,1794.76Z" style="fill:rgb(191,178,172);fill-rule:nonzero;"/>
    </g>
    <g transform="matrix(0.360724,0,0,0.360724,-134.219,36.2328)">
        <path d="M1110.37,1555.25L895.737,1555.25C886.273,1555.25 878.602,1547.57 878.602,1538.11L878.602,1534.35C878.602,1524.89 886.273,1517.22 895.737,1517.22L1110.37,1517.22C1119.83,1517.22 1127.5,1524.89 1127.5,1534.35L1127.5,1538.11C1127.5,1547.57 1119.83,1555.25 1110.37,1555.25Z" style="fill:rgb(226,210,202);fill-rule:nonzero;"/>
    </g>
    <g transform="matrix(0.360724,0,0,0.360724,-134.219,36.2328)">
        <rect x="1555.38" y="1357.4" width="14.2" height="437.36" style="fill:rgb(112,104,101);fill-rule:nonzero;"/>
    </g>
    <g transform="matrix(0.360724,0,0,0.360724,-134.219,36.2328)">
        <path d="M1443.56,1265.24L1109.53,1265.24C1100.09,1265.24 1092.44,1257.59 1092.44,1248.15L1092.44,1022.57C1092.44,1013.13 1100.09,1005.48 1109.53,1005.48L1443.56,1005.48C1453,1005.48 1460.66,1013.13 1460.66,1022.57L1460.66,1248.15C1460.66,1257.59 1453,1265.24 1443.56,1265.24Z" style="fill:rgb(184,171,165);fill-rule:nonzero;"/>
    </g>
    <g transform="matrix(0.360724,0,0,0.360724,-134.219,36.2328)">
        <rect x="1106.86" y="1019.52" width="339.38" height="205.02" style="fill:rgb(245,247,255);fill-rule:nonzero;"/>
    </g>
    <g transform="matrix(0.360724,0,0,0.360724,-134.219,36.2328)">
        <path d="M1431.16,1243.88C1431.16,1249.7 1425.03,1254.43 1417.48,1254.43C1409.92,1254.43 1403.8,1249.7 1403.8,1243.88C1403.8,1238.05 1409.92,1233.32 1417.48,1233.32C1425.03,1233.32 1431.16,1238.05 1431.16,1243.88Z" style="fill:rgb(145,134,129);fill-rule:nonzero;"/>
    </g>
    <g transform="matrix(0.360724,0,0,0.360724,-134.219,36.2328)">
        <path d="M1352.78,1332.86L1352.78,1328.24C1352.78,1328.24 1346.28,1299.49 1300.31,1299.49C1254.34,1299.49 1255.27,1332.86 1255.27,1332.86L1352.78,1332.86Z" style="fill:rgb(153,142,137);fill-rule:nonzero;"/>
    </g>
    <g transform="matrix(0.360724,0,0,0.360724,-134.219,36.2328)">
        <path d="M1254.71,1303.76C1254.71,1303.76 1264.7,1302.99 1268.36,1300.78C1272.02,1298.57 1293.91,1283.85 1299.05,1286.21C1304.19,1288.56 1338.41,1299.04 1337.22,1304.05C1336.03,1309.05 1332.86,1308.57 1330.45,1307.68C1328.04,1306.8 1303.19,1301.58 1301,1302.46C1301,1302.46 1325.4,1311.37 1325.5,1317.86C1325.6,1324.36 1320.39,1325.94 1318.08,1328.4C1315.77,1330.85 1312.99,1336.95 1306.7,1337.42C1300.41,1337.89 1269.72,1327.21 1263.4,1326.72C1257.08,1326.24 1245.39,1327.12 1244.6,1326.09C1243.8,1325.06 1254.71,1303.76 1254.71,1303.76Z" style="fill:rgb(238,168,134);fill-rule:nonzero;"/>
    </g>
    <g transform="matrix(0.360724,0,0,0.360724,-134.219,36.2328)">
        <path d="M1072.91,1136.41C1041.07,1130.82 1007.56,1122.78 1007.56,1122.78L948.262,1120.37C948.262,1120.37 893.84,1132.35 872.406,1142.03C870.373,1142.95 870.364,1190.58 864.785,1203.07L882.555,1240.56C882.555,1240.56 892.82,1314.82 894.949,1347.85C895.929,1363.01 892.185,1494.38 892.185,1494.38C892.185,1494.38 897.512,1497 937.982,1501.46C978.453,1505.93 1079.57,1499.85 1080.21,1495.07C1080.85,1490.29 1060.63,1317.08 1059.73,1308.11C1058.36,1294.35 1063.71,1230.73 1063.71,1230.73C1071.33,1240.98 1090.77,1287.23 1111.03,1309.24C1122.95,1322.19 1181.97,1330.12 1193.09,1330.49C1217.31,1331.3 1261.48,1336.12 1262.77,1333.77C1263.81,1332.35 1266.62,1294.56 1263.85,1293.63C1261.43,1292.83 1179.4,1288.1 1158.39,1276.95C1150.7,1272.87 1127.71,1222.76 1127.71,1222.76C1127.71,1222.76 1090.48,1144.31 1072.91,1136.41Z" style="fill:rgb(219,223,240);fill-rule:nonzero;"/>
    </g>
    <g transform="matrix(0.360724,0,0,0.360724,-134.219,36.2328)">
        <path d="M959.2,1490.58L853.359,1490.58C835.188,1490.58 820.457,1475.85 820.457,1457.68L820.457,1285.75C820.457,1267.58 835.188,1252.85 853.359,1252.85L959.2,1252.85C977.372,1252.85 992.103,1267.58 992.103,1285.75L992.103,1457.68C992.103,1475.85 977.372,1490.58 959.2,1490.58Z" style="fill:rgb(226,210,202);fill-rule:nonzero;"/>
    </g>
    <g transform="matrix(0.360724,0,0,0.360724,-134.219,36.2328)">
        <path d="M961.687,1545.78C936.385,1545.78 915.859,1537.28 900.676,1520.52C866.364,1482.64 872.529,1416.04 872.809,1413.23C873.33,1407.98 878.015,1404.14 883.254,1404.67C888.5,1405.19 892.332,1409.86 891.815,1415.1C891.742,1415.86 886.275,1476.23 914.869,1507.74C926.436,1520.48 941.75,1526.68 961.687,1526.68C966.96,1526.68 971.236,1530.96 971.236,1536.23C971.236,1541.5 966.96,1545.78 961.687,1545.78Z" style="fill:rgb(226,210,202);fill-rule:nonzero;"/>
    </g>
    <g transform="matrix(0.360724,0,0,0.360724,-134.219,36.2328)">
        <path d="M1227.88,1046.68L1133.37,1046.68C1132.01,1046.68 1130.92,1045.58 1130.92,1044.23L1130.92,1038.3C1130.92,1036.95 1132.01,1035.85 1133.37,1035.85L1227.88,1035.85C1229.23,1035.85 1230.33,1036.95 1230.33,1038.3L1230.33,1044.23C1230.33,1045.58 1229.23,1046.68 1227.88,1046.68Z" style="fill:rgb(223,225,232);fill-rule:nonzero;"/>
    </g>
    <g transform="matrix(0.360724,0,0,0.360724,-134.219,36.2328)">
        <path d="M1227.88,1069.91L1133.37,1069.91C1132.01,1069.91 1130.92,1068.82 1130.92,1067.46L1130.92,1061.53C1130.92,1060.18 1132.01,1059.08 1133.37,1059.08L1227.88,1059.08C1229.23,1059.08 1230.33,1060.18 1230.33,1061.53L1230.33,1067.46C1230.33,1068.82 1229.23,1069.91 1227.88,1069.91Z" style="fill:rgb(223,225,232);fill-rule:nonzero;"/>
    </g>
    <g transform="matrix(0.360724,0,0,0.360724,-134.219,36.2328)">
        <path d="M1222.09,1208.21L1139.16,1208.21C1134.61,1208.21 1130.92,1204.52 1130.92,1199.97L1130.92,1093.97C1130.92,1089.42 1134.61,1085.73 1139.16,1085.73L1222.09,1085.73C1226.64,1085.73 1230.33,1089.42 1230.33,1093.97L1230.33,1199.97C1230.33,1204.52 1226.64,1208.21 1222.09,1208.21Z" style="fill:rgb(223,225,232);fill-rule:nonzero;"/>
    </g>
    <g transform="matrix(0.360724,0,0,0.360724,-134.219,36.2328)">
        <path d="M1414.39,1208.21L1263.45,1208.21C1256.24,1208.21 1250.4,1202.37 1250.4,1195.16L1250.4,1048.89C1250.4,1041.69 1256.24,1035.85 1263.45,1035.85L1414.39,1035.85C1421.6,1035.85 1427.44,1041.69 1427.44,1048.89L1427.44,1195.16C1427.44,1202.37 1421.6,1208.21 1414.39,1208.21Z" style="fill:rgb(223,225,232);fill-rule:nonzero;"/>
    </g>
    <g transform="matrix(0.360724,0,0,0.360724,-134.219,36.2328)">
        <path d="M1862.32,1138.68C1862.32,1138.68 1868.93,1124.4 1870,1122.25C1871.08,1120.1 1877.39,1116.69 1884.89,1114.8C1892.17,1112.97 1902.08,1109.29 1903.21,1109.99C1904.34,1110.7 1905.67,1110.8 1907.02,1113.95C1908.36,1117.09 1907.77,1120.49 1907.77,1120.49C1907.77,1120.49 1911.26,1123.59 1910.21,1127.72C1910.21,1127.72 1913.36,1130.79 1911.4,1135.29C1911.4,1135.29 1914.39,1138.36 1912.7,1141.52C1912.7,1141.52 1906.85,1144.83 1905.04,1146.69C1903.23,1148.54 1890.59,1154.61 1877.58,1158.57C1877.58,1158.57 1864.01,1158.15 1862.32,1138.68Z" style="fill:rgb(142,79,58);fill-rule:nonzero;"/>
    </g>
    <g transform="matrix(0.360724,0,0,0.360724,-134.219,36.2328)">
        <path d="M1877.58,1158.57C1877.58,1158.57 1861.43,1161.39 1855.96,1158.23C1850.48,1155.08 1856.85,1138.64 1856.85,1138.64L1867.08,1132.46L1877.58,1158.57Z" style="fill:rgb(142,79,58);fill-rule:nonzero;"/>
    </g>
    <g transform="matrix(0.360724,0,0,0.360724,-134.219,36.2328)">
        <path d="M1883.57,1131.76C1883.57,1131.76 1883.32,1139.66 1882.13,1141.84C1880.94,1144.03 1897.02,1147.43 1897.02,1147.43C1897.02,1147.43 1893.16,1132.32 1883.57,1131.76Z" style="fill:rgb(94,53,39);fill-rule:nonzero;"/>
    </g>
    <g transform="matrix(0.360724,0,0,0.360724,-134.219,36.2328)">
        <path d="M1901.19,1110.68C1901.19,1110.68 1883.55,1119.24 1884.58,1122.25C1885.61,1125.26 1887.81,1125.75 1887.81,1125.75L1882.15,1132.57C1882.15,1132.57 1880.96,1139.2 1888.53,1138.56C1888.53,1138.56 1886.77,1144.64 1894,1143.16C1894,1143.16 1894.63,1147.69 1898.11,1147.59C1901.58,1147.5 1912.7,1141.52 1912.7,1141.52C1912.7,1141.52 1914.71,1139.09 1911.64,1135.19C1911.64,1135.19 1913.82,1130.96 1910.5,1127.6C1910.5,1127.6 1911.52,1122.16 1907.9,1118.55C1907.9,1118.55 1908.27,1112.48 1903.06,1109.91C1903.06,1109.91 1901.93,1110.31 1901.19,1110.68Z" style="fill:rgb(122,68,50);fill-rule:nonzero;"/>
    </g>
    <g transform="matrix(0.360724,0,0,0.360724,-134.219,36.2328)">
        <path d="M1870.53,1121.92C1870.53,1121.92 1883.98,1122.21 1891.25,1125.59C1892.9,1126.36 1894.35,1127.4 1894.26,1129.22C1894.17,1131.03 1891.43,1133.21 1885.6,1133.38C1879.76,1133.55 1872.3,1136.45 1872.3,1136.45C1872.3,1136.45 1866.26,1134.87 1870.53,1121.92Z" style="fill:rgb(142,79,58);fill-rule:nonzero;"/>
    </g>
    <g transform="matrix(0.360724,0,0,0.360724,-134.219,36.2328)">
        <path d="M1907.9,1118.55C1907.9,1118.55 1887.77,1125.44 1886.4,1127.11C1885.03,1128.77 1882.44,1121.43 1883.71,1120.08C1884.98,1118.74 1900.65,1110.39 1902.38,1109.92C1904.1,1109.46 1910.02,1113.5 1907.9,1118.55Z" style="fill:rgb(142,79,58);fill-rule:nonzero;"/>
    </g>
    <g transform="matrix(0.360724,0,0,0.360724,-134.219,36.2328)">
        <path d="M1898.63,1110.76C1898.63,1110.76 1929.98,1104.34 1930.62,1108.16C1931.25,1111.98 1928.22,1112.62 1902.53,1120.12C1877.55,1127.41 1898.63,1110.76 1898.63,1110.76Z" style="fill:rgb(142,79,58);fill-rule:nonzero;"/>
    </g>
    <g transform="matrix(0.360724,0,0,0.360724,-134.219,36.2328)">
        <path d="M1683.21,1753.72C1683.21,1753.72 1693.2,1768.67 1707.21,1771.89C1721.22,1775.12 1735.03,1780.26 1735.13,1789.1C1735.24,1797.95 1694.62,1803.22 1678.58,1794.3C1654.64,1781 1652.21,1785.01 1649.56,1778.36C1646.9,1771.71 1652.75,1753.92 1652.57,1751.81C1652.36,1749.19 1683.21,1753.72 1683.21,1753.72Z" style="fill:rgb(53,58,61);fill-rule:nonzero;"/>
    </g>
    <g transform="matrix(0.360724,0,0,0.360724,-134.219,36.2328)">
        <path d="M1681.65,1746.34C1681.65,1746.34 1683.48,1753.56 1683.21,1753.72C1682.93,1753.87 1651.63,1757.6 1652.57,1751.81C1653.34,1747.11 1654.44,1742 1654.44,1742L1681.65,1746.34Z" style="fill:rgb(129,128,126);fill-rule:nonzero;"/>
    </g>
    <g transform="matrix(0.360724,0,0,0.360724,-134.219,36.2328)">
        <path d="M1577.84,1752.73C1577.84,1752.73 1584.96,1767.02 1597.14,1771.89C1610.16,1777.1 1620.59,1783.08 1620.36,1791.7C1620.12,1800.32 1588.54,1809.05 1565.57,1792.51C1551.05,1782.06 1546.45,1782.01 1544.12,1775.43C1541.79,1768.85 1548.17,1751.75 1548.08,1749.69C1547.97,1747.13 1577.84,1752.73 1577.84,1752.73Z" style="fill:rgb(53,58,61);fill-rule:nonzero;"/>
    </g>
    <g transform="matrix(0.360724,0,0,0.360724,-134.219,36.2328)">
        <path d="M1578.19,1745.3C1578.19,1745.3 1578.11,1752.59 1577.84,1752.73C1577.57,1752.86 1547.31,1755.36 1548.08,1749.69C1548.69,1745.18 1551.01,1739.74 1551.01,1739.74L1578.19,1745.3Z" style="fill:rgb(129,128,126);fill-rule:nonzero;"/>
    </g>
    <g transform="matrix(0.360724,0,0,0.360724,-134.219,36.2328)">
        <path d="M1689.14,1308.54C1689.14,1308.54 1717.26,1432.54 1723.68,1470.31C1729.14,1502.46 1733.5,1535.94 1730.88,1559.15C1727.64,1587.88 1686.96,1736.79 1688.66,1745.22C1690.36,1753.64 1640.17,1748.52 1640.17,1748.52C1640.17,1748.52 1677.04,1580.46 1670.86,1549.54C1666.28,1526.65 1626.18,1374.54 1620.04,1382.34C1613.89,1390.14 1606.27,1525.89 1601.72,1548.43C1597.17,1570.96 1583.19,1749.02 1583.19,1749.02C1583.19,1749.02 1551.95,1753.63 1543.61,1746.57C1543.61,1746.57 1539.81,1594.53 1542.71,1552.28C1543.82,1536.18 1523.85,1359.23 1549.45,1287.99C1562.99,1250.34 1689.14,1308.54 1689.14,1308.54Z" style="fill:rgb(45,49,51);fill-rule:nonzero;"/>
    </g>
    <g transform="matrix(0.360724,0,0,0.360724,-134.219,36.2328)">
        <path d="M1872.74,1164.68C1872.74,1164.68 1775.35,1186.27 1755.97,1181.51C1747.01,1179.3 1735.21,1166.94 1724,1152.4C1720.3,1147.61 1716.67,1142.58 1713.22,1137.61L1713.21,1137.59C1699.46,1117.73 1688.68,1098.69 1688.68,1098.69C1688.68,1098.69 1648.01,1051.03 1680.64,1029.79C1680.64,1029.79 1692.49,1025.35 1703.36,1037.01C1714.24,1048.66 1727.01,1073.05 1729.87,1079.27C1732.72,1085.48 1772.66,1143.09 1774.73,1144.39C1776.8,1145.68 1794.25,1141.09 1808.25,1139.93C1831.07,1138.02 1865.26,1129.14 1865.26,1129.14L1872.74,1164.68Z" style="fill:rgb(219,223,240);fill-rule:nonzero;"/>
    </g>
    <g transform="matrix(0.360724,0,0,0.360724,-134.219,36.2328)">
        <path d="M1650.12,1019.16C1650.12,1019.16 1691.98,1027.81 1696.95,1032.21C1702.34,1036.9 1711.85,1082.74 1712.42,1095.52C1712.99,1108.29 1707.37,1161.64 1701.98,1181.5C1696.59,1201.37 1697.58,1299.22 1700.99,1326.75C1700.99,1326.75 1616.7,1350.69 1533.83,1339.91C1533.83,1339.91 1547.72,1236.96 1544.4,1209.74C1540.15,1174.86 1529.93,1094.51 1529.93,1094.51C1529.93,1094.51 1537.26,1038.54 1544.64,1032.29C1552.02,1026.05 1602.87,1019.16 1602.87,1019.16L1650.12,1019.16Z" style="fill:rgb(188,192,207);fill-rule:nonzero;"/>
    </g>
    <g transform="matrix(0.360724,0,0,0.360724,-134.219,36.2328)">
        <path d="M1632.82,889.719C1632.82,889.719 1683.17,871.086 1680.02,938.003C1676.88,1004.92 1665.07,1011.72 1631.95,1002.38C1598.83,993.029 1596.05,950.796 1591.74,930.479C1587.42,910.163 1616.35,892.64 1632.82,889.719Z" style="fill:rgb(142,79,58);fill-rule:nonzero;"/>
    </g>
    <g transform="matrix(0.360724,0,0,0.360724,-134.219,36.2328)">
        <path d="M1656.71,1028.22C1656.71,1028.22 1646.34,1035.07 1607.05,1017.76C1607.05,1017.76 1608.16,990.823 1600.46,965.663C1592.75,940.503 1653.18,999.21 1653.18,999.21C1652.55,999.658 1652.43,1002.17 1652.79,1005.68C1653.1,1008.65 1653.75,1012.34 1654.73,1016.08C1656.94,1024.49 1656.71,1020.88 1656.71,1028.22Z" style="fill:rgb(142,79,58);fill-rule:nonzero;"/>
    </g>
    <g transform="matrix(0.360724,0,0,0.360724,-134.219,36.2328)">
        <path d="M1598.74,963.668C1598.74,963.668 1598.59,945.792 1606.03,944.147C1613.46,942.502 1614.44,936.558 1614.44,936.558L1618.71,937.547C1618.71,937.547 1617.92,934.399 1625.01,930.246C1632.1,926.093 1674.49,929.741 1679.81,923.643C1685.13,917.544 1677.42,881.321 1665.85,877.767C1654.29,874.211 1627.42,874.538 1602.87,881.433C1602.87,881.433 1584.23,886.134 1582.82,908.072C1581.91,922.273 1592.69,953.976 1598.74,963.668Z" style="fill:rgb(45,49,51);fill-rule:nonzero;"/>
    </g>
    <g transform="matrix(0.360724,0,0,0.360724,-134.219,36.2328)">
        <path d="M1654.73,1016.08C1615.7,1009.52 1609.87,987.32 1609.78,986.974C1624.95,1006.54 1652.79,1005.68 1652.79,1005.68C1653.1,1008.65 1653.75,1012.34 1654.73,1016.08Z" style="fill:rgb(99,48,41);fill-rule:nonzero;"/>
    </g>
    <g transform="matrix(0.360724,0,0,0.360724,-134.219,36.2328)">
        <path d="M1653.01,1037.01C1653.01,1037.01 1660.12,1047.49 1664.41,1074.41C1668.7,1101.32 1667.97,1147.69 1667.97,1147.69L1658.08,1148.89C1658.08,1148.89 1643.13,1054.33 1645.7,1037.85L1653.01,1037.01Z" style="fill:rgb(67,67,67);fill-rule:nonzero;"/>
    </g>
    <g transform="matrix(0.360724,0,0,0.360724,-134.219,36.2328)">
        <path d="M1614.44,936.558C1612.22,930.661 1599.66,931.403 1600.94,940.752C1602.23,950.101 1612.61,964.498 1616.78,961.798C1620.94,959.098 1617.51,944.688 1614.44,936.558Z" style="fill:rgb(142,79,58);fill-rule:nonzero;"/>
    </g>
    <g transform="matrix(0.360724,0,0,0.360724,-134.219,36.2328)">
        <path d="M1697.49,1032.17C1697.49,1032.17 1721.27,1063.64 1712.46,1145.97C1696.54,1294.75 1738.24,1533.58 1738.24,1533.58L1695.22,1547.05C1695.22,1547.05 1654.11,1241.74 1664.58,1130.93C1669.35,1080.44 1683.51,1063.63 1661.17,1021.57C1661.17,1021.57 1682.92,1022.67 1697.49,1032.17Z" style="fill:rgb(219,223,240);fill-rule:nonzero;"/>
    </g>
    <g transform="matrix(0.360724,0,0,0.360724,-134.219,36.2328)">
        <path d="M1591.3,1020.88C1591.3,1020.88 1659.39,1089.65 1664.72,1141.79C1670.06,1193.93 1678.74,1547.05 1678.74,1547.05L1516.64,1537.61C1516.64,1537.61 1531.54,1351.21 1535.18,1327.89C1538.81,1304.57 1546.33,1170.68 1529.93,1108.56C1521.11,1075.18 1531.6,1032.84 1551.74,1028.22C1571.88,1023.6 1591.3,1020.88 1591.3,1020.88Z" style="fill:rgb(219,223,240);fill-rule:nonzero;"/>
    </g>
    <g transform="matrix(0.360724,0,0,0.360724,-134.219,36.2328)">
        <path d="M1568.29,1029.79C1568.29,1029.79 1594.51,1037.01 1580.09,1085.14C1568.79,1122.83 1567.26,1130.93 1567.26,1130.93L1506.75,1115.82C1506.75,1115.82 1524.49,1033.01 1553.45,1028.56C1553.45,1028.56 1562.66,1027.24 1568.29,1029.79Z" style="fill:rgb(219,223,240);fill-rule:nonzero;"/>
    </g>
    <g transform="matrix(0.360724,0,0,0.360724,-134.219,36.2328)">
        <path d="M1766.66,1284.52L1648.05,1407.26L1569.27,1331.14L1684.8,1205.42L1766.66,1284.52Z" style="fill:rgb(97,97,97);fill-rule:nonzero;"/>
    </g>
    <g transform="matrix(0.360724,0,0,0.360724,-134.219,36.2328)">
        <path d="M1755.45,1286.96L1650.11,1395.97L1580.14,1328.36L1682.75,1216.71L1755.45,1286.96Z" style="fill:rgb(224,206,199);fill-rule:nonzero;"/>
    </g>
    <g transform="matrix(0.360724,0,0,0.360724,-134.219,36.2328)">
        <path d="M1731.17,1268.75L1738.57,1261.1L1710.28,1233.76L1701.78,1240.35L1731.17,1268.75Z" style="fill:rgb(97,97,97);fill-rule:nonzero;"/>
    </g>
    <g transform="matrix(0.360724,0,0,0.360724,-134.219,36.2328)">
        <path d="M1607.07,1010.31C1607.07,1010.31 1627.61,1022.7 1647.93,1025.5L1637.12,1042.74L1602.87,1019.16L1607.07,1010.31Z" style="fill:rgb(167,170,184);fill-rule:nonzero;"/>
    </g>
    <g transform="matrix(0.360724,0,0,0.360724,-134.219,36.2328)">
        <path d="M1654.73,1016.08C1654.73,1016.08 1652.56,1023.18 1647.93,1025.5L1658.08,1039.65L1657.71,1020.88L1654.73,1016.08Z" style="fill:rgb(167,170,184);fill-rule:nonzero;"/>
    </g>
    <g transform="matrix(0.360724,0,0,0.360724,-134.219,36.2328)">
        <path d="M1647.93,1025.5L1655.97,1036.71C1655.97,1036.71 1650.88,1043.14 1639.92,1038.26L1647.93,1025.5Z" style="fill:rgb(67,67,67);fill-rule:nonzero;"/>
    </g>
    <g transform="matrix(0.360724,0,0,0.360724,-134.219,36.2328)">
        <path d="M1724,1152.39L1724,1152.4C1720.3,1147.61 1716.67,1142.58 1713.22,1137.61L1713.21,1137.59C1713.21,1137.59 1714.51,1101.31 1713.38,1090.89C1713.38,1090.89 1725.23,1129.97 1724,1152.39Z" style="fill:rgb(167,170,184);fill-rule:nonzero;"/>
    </g>
    <g transform="matrix(0.360724,0,0,0.360724,-134.219,36.2328)">
        <path d="M1556.91,1128.34C1556.91,1128.34 1549,1179.79 1549.55,1183.09C1550.11,1186.39 1513.76,1172.76 1556.91,1128.34Z" style="fill:rgb(167,170,184);fill-rule:nonzero;"/>
    </g>
    <g transform="matrix(0.360724,0,0,0.360724,-134.219,36.2328)">
        <rect x="1680.59" y="1109.93" width="19.11" height="29.18" style="fill:rgb(198,202,217);fill-rule:nonzero;"/>
    </g>
    <g transform="matrix(0.360724,0,0,0.360724,-134.219,36.2328)">
        <path d="M1614.76,1249.8C1614.76,1249.8 1616.51,1253.27 1619.42,1254.43C1624.44,1256.45 1632.47,1253.25 1635.57,1260.43C1638.68,1267.62 1618.66,1284.49 1613.64,1285.37C1608.62,1286.24 1601.51,1278.03 1596.87,1262.18C1592.24,1246.34 1614.76,1249.8 1614.76,1249.8Z" style="fill:rgb(142,79,58);fill-rule:nonzero;"/>
    </g>
    <g transform="matrix(0.360724,0,0,0.360724,-134.219,36.2328)">
        <path d="M1634.18,1258.18C1634.18,1258.18 1642.8,1265.88 1651.32,1275.68C1658.8,1284.28 1665.99,1295.82 1664.71,1298C1661.84,1302.85 1654.89,1292.03 1646.9,1284.03C1639.54,1276.66 1640.76,1277.95 1640.76,1277.95C1640.76,1277.95 1640.75,1277.17 1647.17,1286.83C1654.08,1297.21 1660.1,1308.59 1658.46,1311.12C1657.67,1312.35 1654.45,1315.37 1652.91,1310.4C1654.29,1312.72 1654.53,1312.15 1653.61,1312.86C1648.83,1316.5 1636.28,1302.92 1631.29,1297.52C1635.1,1301.69 1637.43,1305.18 1633.12,1305.53C1628.19,1305.94 1611.33,1285.9 1604.58,1279.33C1597.23,1272.16 1634.18,1258.18 1634.18,1258.18Z" style="fill:rgb(142,79,58);fill-rule:nonzero;"/>
    </g>
    <g transform="matrix(0.360724,0,0,0.360724,-134.219,36.2328)">
        <path d="M1571.43,1033.01C1576.92,1035.13 1578.99,1044.88 1576.74,1073.12C1574.48,1101.35 1564.54,1114.34 1560.83,1120.88C1557.12,1127.41 1536.73,1167.67 1540.39,1172.97C1544.06,1178.27 1578.69,1212.43 1580.69,1215.21C1582.7,1218 1621.36,1252.99 1621.36,1252.99L1601.68,1280.5C1601.68,1280.5 1518.19,1215.29 1511.67,1208.78C1505.16,1202.27 1485.69,1188.59 1492.89,1165.84C1500.21,1142.73 1513.36,1088.61 1515.7,1084.38C1518.04,1080.15 1535.13,1018.96 1571.43,1033.01Z" style="fill:rgb(219,223,240);fill-rule:nonzero;"/>
    </g>
    <g transform="matrix(0.360724,0,0,0.360724,-134.219,36.2328)">
        <path d="M2291.96,1698.66C2291.96,1698.66 2289.05,1705.54 2283.55,1712.72C2279.52,1717.98 2266.97,1739.59 2261.45,1741.1C2255.92,1742.61 2238.84,1745.62 2237.34,1755.17C2235.83,1764.71 2235.08,1771.49 2251.9,1772.24C2268.73,1773 2279.78,1774 2287.82,1762.2C2295.86,1750.39 2308.66,1741.85 2308.66,1741.85L2308.66,1772.65L2315.19,1772.65C2315.19,1772.65 2318.21,1740.6 2319.97,1738.34C2321.72,1736.08 2326.25,1711.46 2310.67,1698.66C2295.1,1685.85 2291.96,1698.66 2291.96,1698.66Z" style="fill:rgb(22,51,66);fill-rule:nonzero;"/>
    </g>
    <g transform="matrix(0.360724,0,0,0.360724,-134.219,36.2328)">
        <path d="M2261.45,1741.1C2261.45,1741.1 2276.52,1744.87 2282.29,1741.1C2288.07,1737.33 2307.71,1704.14 2314.21,1702.15C2314.21,1702.15 2307.91,1689.36 2291.96,1698.66C2291.96,1698.66 2265.72,1735.58 2261.45,1741.1Z" style="fill:rgb(238,168,134);fill-rule:nonzero;"/>
    </g>
    <g transform="matrix(0.360724,0,0,0.360724,-134.219,36.2328)">
        <path d="M2295.92,955.854C2295.92,955.854 2263.43,1024.36 2285.79,1028.45C2316.5,1034.08 2328.93,977.34 2328.93,977.34L2295.92,955.854Z" style="fill:rgb(22,51,66);fill-rule:nonzero;"/>
    </g>
    <g transform="matrix(0.360724,0,0,0.360724,-134.219,36.2328)">
        <path d="M2118.5,1126.04C2118.5,1126.04 2108.34,1122.85 2107.52,1116.83C2106.83,1111.71 2102.23,1105.6 2100.82,1103.72C2098.93,1101.2 2096.02,1091.3 2092.82,1093.65C2089.62,1096 2096.83,1110.19 2097.75,1113.47C2098.67,1116.75 2084.78,1110.51 2081.34,1111.37C2077.91,1112.23 2068.87,1135.83 2078.9,1139C2088.93,1142.18 2101.75,1138.96 2103.4,1139.87C2105.05,1140.78 2110.61,1142.47 2110.61,1142.47L2118.5,1126.04Z" style="fill:rgb(238,168,134);fill-rule:nonzero;"/>
    </g>
    <g transform="matrix(0.360724,0,0,0.360724,-134.219,36.2328)">
        <path d="M2083.86,1111.56C2083.86,1111.56 2052.51,1103.87 2049.99,1105.1C2047.47,1106.34 2047.15,1108.06 2050.05,1108.9C2052.96,1109.75 2080.13,1117.21 2080.13,1117.21C2080.13,1117.21 2041.49,1114.34 2039.21,1114.9C2037.87,1115.23 2037.06,1118.53 2038.57,1119.13C2040.08,1119.72 2078.22,1124.76 2078.22,1124.76C2078.22,1124.76 2042.14,1122.14 2040.37,1123.18C2038.82,1124.09 2038.83,1127.31 2041.49,1127.68C2044.16,1128.06 2077.51,1132.38 2077.51,1132.38C2077.51,1132.38 2051.13,1132.13 2050.15,1133.89C2049.55,1134.97 2048.71,1137.79 2055.52,1137.64C2062.33,1137.5 2078.43,1138.83 2078.43,1138.83L2083.86,1111.56Z" style="fill:rgb(238,168,134);fill-rule:nonzero;"/>
    </g>
    <g transform="matrix(0.360724,0,0,0.360724,-134.219,36.2328)">
        <path d="M2376.2,1718.62C2376.2,1718.62 2359.37,1743.61 2352.59,1749.64C2352.59,1749.64 2337.52,1755.17 2336.01,1765.71C2334.51,1776.26 2334.76,1783.3 2352.59,1783.8C2370.42,1784.3 2382.11,1781.1 2385.38,1770.3C2388.64,1759.5 2395.79,1752.15 2395.79,1752.15L2395.79,1774.75L2399.81,1774.75C2399.81,1774.75 2400.81,1752.9 2401.06,1748.89C2401.31,1744.87 2403.95,1729.42 2395.47,1722.58C2387,1715.73 2376.2,1718.62 2376.2,1718.62Z" style="fill:rgb(22,51,66);fill-rule:nonzero;"/>
    </g>
    <g transform="matrix(0.360724,0,0,0.360724,-134.219,36.2328)">
        <path d="M2387.5,1236.29C2387.5,1236.29 2408.75,1263.92 2414.51,1296.69C2420.28,1329.47 2411.11,1439.47 2411.36,1455.67C2411.61,1471.87 2426.68,1512.18 2423.67,1542.69C2420.65,1573.21 2408.76,1725.08 2408.76,1725.08L2376.2,1718.62C2376.2,1718.62 2378.08,1563.79 2376.2,1550.98C2374.31,1538.17 2370.53,1491.48 2369.78,1486.21C2369.03,1480.93 2321.95,1342.44 2321.95,1318.81C2321.95,1295.18 2336.27,1197.74 2387.5,1236.29Z" style="fill:rgb(45,49,51);fill-rule:nonzero;"/>
    </g>
    <g transform="matrix(0.360724,0,0,0.360724,-134.219,36.2328)">
        <path d="M2280.76,1247.09C2280.76,1247.09 2245.85,1380.32 2241.71,1398.78C2237.56,1417.24 2231.56,1432.47 2231.56,1440.3C2231.56,1458.49 2238.32,1487.69 2238.32,1487.69L2282.65,1699.71L2324.87,1699.71C2324.87,1699.71 2301.34,1572.51 2300.71,1547.64C2300.08,1522.71 2280.89,1487.31 2284.65,1476.77C2288.42,1466.22 2345.31,1344.53 2345.31,1344.53C2345.31,1344.53 2388.38,1208.41 2280.76,1247.09Z" style="fill:rgb(45,49,51);fill-rule:nonzero;"/>
    </g>
    <g transform="matrix(0.360724,0,0,0.360724,-134.219,36.2328)">
        <path d="M2352.59,1749.64C2352.59,1749.64 2369.82,1759.27 2380.92,1746.9C2390.29,1736.46 2395.47,1722.58 2395.47,1722.58L2376.2,1718.62L2352.59,1749.64Z" style="fill:rgb(238,168,134);fill-rule:nonzero;"/>
    </g>
    <g transform="matrix(0.360724,0,0,0.360724,-134.219,36.2328)">
        <path d="M2295.18,1020.67C2295.18,1020.67 2280.79,1022.03 2269.91,1033.68C2259.04,1045.33 2248.83,1063.92 2245.98,1070.13C2243.13,1076.34 2203.21,1133.94 2201.13,1135.23C2199.06,1136.53 2181.61,1131.94 2167.63,1130.77C2144.82,1128.87 2110.68,1117.25 2110.68,1117.25L2105.62,1143.03C2105.62,1143.03 2189.56,1170.12 2208.93,1165.35C2232.62,1159.51 2287.15,1089.55 2287.15,1089.55C2287.15,1089.55 2327.81,1041.91 2295.18,1020.67Z" style="fill:rgb(219,223,240);fill-rule:nonzero;"/>
    </g>
    <g transform="matrix(0.360724,0,0,0.360724,-134.219,36.2328)">
        <path d="M2320.3,1010.57C2320.3,1010.57 2301.65,1019.38 2295.18,1020.67C2288.71,1021.97 2263.59,1054.59 2259.19,1066.5C2254.79,1078.42 2259.19,1096.28 2268.25,1117.26C2277.31,1138.23 2268.77,1145.22 2272.91,1166.19C2277.05,1187.17 2275.72,1265.63 2274.94,1277.28C2274.17,1288.94 2396.14,1306.6 2420.22,1285.37C2420.22,1285.37 2403.92,1214.65 2384.62,1194.47C2380.45,1190.1 2380.89,1161.02 2383.74,1153.77C2386.58,1146.52 2418.69,1092.4 2418.69,1092.4C2418.69,1092.4 2421.05,1037.51 2407.04,1026.63C2394.87,1017.18 2361.7,1013.81 2355.75,1011.74C2349.79,1009.66 2332.47,1008.76 2320.3,1010.57Z" style="fill:rgb(47,69,99);fill-rule:nonzero;"/>
    </g>
    <g transform="matrix(0.360724,0,0,0.360724,-134.219,36.2328)">
        <path d="M2311.4,989.061C2311.4,989.061 2315.12,1023.26 2314.34,1034.4C2314.34,1034.4 2333.71,1053.81 2355.75,1011.74C2355.75,1011.74 2346.47,994.394 2353.45,970.764C2360.43,947.134 2311.4,989.061 2311.4,989.061Z" style="fill:rgb(238,168,134);fill-rule:nonzero;"/>
    </g>
    <g transform="matrix(0.360724,0,0,0.360724,-134.219,36.2328)">
        <path d="M2257.17,1124.99C2257.17,1124.99 2252.51,1093.97 2257.46,1075.11C2257.46,1075.11 2257.46,1091.33 2266.36,1114.36L2257.17,1124.99Z" style="fill:rgb(170,173,186);fill-rule:nonzero;"/>
    </g>
    <g transform="matrix(0.360724,0,0,0.360724,-134.219,36.2328)">
        <path d="M2368.63,924.895C2368.63,924.895 2372.91,919.762 2374.5,924.931C2376.1,930.101 2370.87,945.468 2370.3,947.692C2370.3,947.692 2367.71,956.316 2366.67,955.216C2365.64,954.115 2368.63,924.895 2368.63,924.895Z" style="fill:rgb(238,169,135);fill-rule:nonzero;"/>
    </g>
    <g transform="matrix(0.360724,0,0,0.360724,-134.219,36.2328)">
        <path d="M2293.96,925.533C2293.96,925.533 2289.69,920.4 2288.09,925.57C2286.5,930.739 2291.72,946.106 2292.29,948.331C2292.29,948.331 2294.89,956.955 2295.92,955.854C2296.96,954.754 2293.96,925.533 2293.96,925.533Z" style="fill:rgb(238,169,135);fill-rule:nonzero;"/>
    </g>
    <g transform="matrix(0.360724,0,0,0.360724,-134.219,36.2328)">
        <path d="M2324.59,875.759C2324.59,875.759 2285.36,881.8 2291.1,943.601C2296.84,1005.4 2331.47,1000.5 2333.78,1000.44C2336.1,1000.39 2368.52,1001.73 2371.33,926.318C2371.33,926.318 2372.63,870.553 2324.59,875.759Z" style="fill:rgb(238,169,135);fill-rule:nonzero;"/>
    </g>
    <g transform="matrix(0.360724,0,0,0.360724,-134.219,36.2328)">
        <path d="M2363.8,922.624C2363.8,922.624 2320.26,935.573 2299.41,931.433C2299.41,931.433 2298.08,939.123 2295.08,939.597C2292.09,940.069 2290.56,924.895 2290.56,924.895C2290.56,924.895 2289.54,874.639 2335,874.166C2380.47,873.692 2371.23,928.601 2371.23,928.601L2370.61,937.985C2370.61,937.985 2364.1,940.556 2363.8,922.624Z" style="fill:rgb(22,51,66);fill-rule:nonzero;"/>
    </g>
    <g transform="matrix(0.360724,0,0,0.360724,-134.219,36.2328)">
        <path d="M2349.21,994.545C2349.21,994.545 2335.47,1007.56 2314.34,995.616C2314.34,995.616 2320.58,1006.04 2332.43,1005.78C2344.27,1005.52 2349.21,994.545 2349.21,994.545Z" style="fill:rgb(167,120,96);fill-rule:nonzero;"/>
    </g>
    <g transform="matrix(0.360724,0,0,0.360724,-134.219,36.2328)">
        <path d="M2370.63,1014.72C2370.63,1014.72 2357.3,1054.08 2320.72,1051.19C2284.13,1048.29 2303.37,1017.95 2303.37,1017.95C2303.37,1017.95 2312.49,1012.72 2315.06,1012.23C2317.62,1011.74 2355.51,1011.26 2355.51,1011.26L2370.63,1014.72Z" style="fill:rgb(238,168,134);fill-rule:nonzero;"/>
    </g>
    <g transform="matrix(0.360724,0,0,0.360724,-134.219,36.2328)">
        <path d="M2303.37,1017.95C2303.37,1017.95 2284.21,1070.96 2284.21,1124.99C2284.21,1179.02 2282.66,1267.03 2275.97,1294.82C2269.28,1322.61 2250.24,1408.56 2250.24,1408.56L2235.31,1400.84C2235.31,1400.84 2271.21,1263.67 2273.91,1253.78C2276.62,1243.88 2271.86,1139.39 2269.28,1130.64C2266.71,1121.89 2255.76,1082.94 2257.46,1072.14C2259.61,1058.52 2272.36,1038.36 2292.94,1021.03L2303.37,1017.95Z" style="fill:rgb(219,223,240);fill-rule:nonzero;"/>
    </g>
    <g transform="matrix(0.360724,0,0,0.360724,-134.219,36.2328)">
        <path d="M2363.4,1013.07C2363.4,1013.07 2351.49,1051.21 2345.45,1100.05C2339.42,1148.9 2363.98,1375.62 2380.45,1427.09L2444.27,1416.79C2444.27,1416.79 2430.53,1256.53 2411.88,1227.37C2393.24,1198.2 2387.3,1172.4 2407.43,1111.53C2427.56,1050.65 2398.61,1020.51 2398.61,1020.51C2398.61,1020.51 2369,1013.7 2363.4,1013.07Z" style="fill:rgb(219,223,240);fill-rule:nonzero;"/>
    </g>
    <g transform="matrix(0.360724,0,0,0.360724,-134.219,36.2328)">
        <path d="M2294.55,1174.8L2371.93,1308.83L2457.95,1259.16L2383.93,1123.19L2294.55,1174.8Z" style="fill:rgb(97,97,97);fill-rule:nonzero;"/>
    </g>
    <g transform="matrix(0.360724,0,0,0.360724,-134.219,36.2328)">
        <path d="M2303.88,1179.41L2372.6,1298.44L2449,1254.33L2383.26,1133.58L2303.88,1179.41Z" style="fill:rgb(224,206,199);fill-rule:nonzero;"/>
    </g>
    <g transform="matrix(0.360724,0,0,0.360724,-134.219,36.2328)">
        <path d="M2329.23,1168.72L2324.41,1160.36L2355.29,1142.53L2361.32,1150.19L2329.23,1168.72Z" style="fill:rgb(97,97,97);fill-rule:nonzero;"/>
    </g>
    <g transform="matrix(0.360724,0,0,0.360724,-134.219,36.2328)">
        <path d="M2332.92,1263.81C2332.92,1263.81 2336.44,1263.83 2337.98,1263.08C2337.98,1263.08 2340.68,1261.52 2342.67,1260.52C2343.3,1260.2 2343.86,1259.94 2344.24,1259.81C2345.81,1259.27 2349.44,1258.54 2352.86,1256.16C2356.28,1253.79 2368.4,1239.76 2368.4,1239.76L2362.68,1231.06L2358.48,1222.15C2358.48,1222.15 2333.04,1223.79 2329.6,1225.64C2329.26,1225.82 2328.94,1226.01 2328.65,1226.21C2325.88,1228.06 2324.6,1230.59 2323.26,1231.72C2322.77,1232.14 2318.18,1236.63 2318.34,1238.54C2318.56,1241.19 2319.79,1242.94 2321.39,1243.82C2321.39,1243.82 2322.05,1248.99 2324.6,1251.41C2324.6,1251.41 2325.05,1256.2 2329.08,1258.3C2329.08,1258.3 2330.09,1263.12 2332.92,1263.81Z" style="fill:rgb(238,168,134);fill-rule:nonzero;"/>
    </g>
    <g transform="matrix(0.360724,0,0,0.360724,-134.219,36.2328)">
        <path d="M2385.35,1020.67C2385.35,1020.67 2408.85,1013.94 2422.32,1039.83C2435.78,1065.73 2435.72,1076.78 2437.51,1089.42C2439.21,1101.36 2446.88,1133.96 2447.66,1137.32C2448.44,1140.69 2465.81,1180.83 2457.84,1194.86C2449.84,1208.96 2368.5,1250.47 2369.02,1253.58C2369.54,1256.68 2354.94,1222.19 2354.94,1222.19C2354.94,1222.19 2387.84,1203.85 2393.24,1198.2C2401.99,1189.03 2420.46,1179.14 2416.67,1167.76C2412.21,1154.39 2398.82,1109.29 2395.71,1102.69C2392.6,1096.08 2365.55,1029.09 2385.35,1020.67Z" style="fill:rgb(219,223,240);fill-rule:nonzero;"/>
    </g>
    <defs>
        <linearGradient id="_Linear1" x1="0" y1="0" x2="1" y2="0" gradientUnits="userSpaceOnUse" gradientTransform="matrix(391.247,0,0,391.247,1775.26,453.427)"><stop offset="0" style="stop-color:rgb(255,158,84);stop-opacity:1"/><stop offset="1" style="stop-color:rgb(255,209,84);stop-opacity:1"/></linearGradient>
        <linearGradient id="_Linear2" x1="0" y1="0" x2="1" y2="0" gradientUnits="userSpaceOnUse" gradientTransform="matrix(146.525,0,0,146.525,2129.31,280.727)"><stop offset="0" style="stop-color:rgb(255,158,84);stop-opacity:1"/><stop offset="1" style="stop-color:rgb(255,209,84);stop-opacity:1"/></linearGradient>
        <linearGradient id="_Linear3" x1="0" y1="0" x2="1" y2="0" gradientUnits="userSpaceOnUse" gradientTransform="matrix(92.1969,303.694,-303.694,92.1969,1768.96,595.189)"><stop offset="0" style="stop-color:rgb(63,212,230);stop-opacity:1"/><stop offset="1" style="stop-color:rgb(84,119,255);stop-opacity:1"/></linearGradient>
        <linearGradient id="_Linear4" x1="0" y1="0" x2="1" y2="0" gradientUnits="userSpaceOnUse" gradientTransform="matrix(194.099,-322.204,322.204,194.099,1944.01,817.198)"><stop offset="0" style="stop-color:rgb(96,47,128);stop-opacity:1"/><stop offset="1" style="stop-color:rgb(86,112,255);stop-opacity:1"/></linearGradient>
        <linearGradient id="_Linear5" x1="0" y1="0" x2="1" y2="0" gradientUnits="userSpaceOnUse" gradientTransform="matrix(73.9927,-56.947,56.947,73.9927,-2554.77,4380.06)"><stop offset="0" style="stop-color:rgb(96,47,128);stop-opacity:1"/><stop offset="1" style="stop-color:rgb(86,112,255);stop-opacity:1"/></linearGradient>
        <linearGradient id="_Linear6" x1="0" y1="0" x2="1" y2="0" gradientUnits="userSpaceOnUse" gradientTransform="matrix(1.60374e-05,366.894,366.894,-1.60374e-05,888.733,1491.11)"><stop offset="0" style="stop-color:rgb(96,47,128);stop-opacity:1"/><stop offset="1" style="stop-color:rgb(86,112,255);stop-opacity:1"/></linearGradient>
        <linearGradient id="_Linear7" x1="0" y1="0" x2="1" y2="0" gradientUnits="userSpaceOnUse" gradientTransform="matrix(-1.00405e-05,-229.7,229.7,-1.00405e-05,625.286,1265.17)"><stop offset="0" style="stop-color:rgb(255,158,84);stop-opacity:1"/><stop offset="1" style="stop-color:rgb(255,209,84);stop-opacity:1"/></linearGradient>
        <linearGradient id="_Linear8" x1="0" y1="0" x2="1" y2="0" gradientUnits="userSpaceOnUse" gradientTransform="matrix(-1.00405e-05,-229.7,229.7,-1.00405e-05,681.903,1265.16)"><stop offset="0" style="stop-color:rgb(255,158,84);stop-opacity:1"/><stop offset="1" style="stop-color:rgb(255,209,84);stop-opacity:1"/></linearGradient>
        <linearGradient id="_Linear9" x1="0" y1="0" x2="1" y2="0" gradientUnits="userSpaceOnUse" gradientTransform="matrix(-1.00405e-05,-229.699,229.699,-1.00405e-05,738.52,1265.16)"><stop offset="0" style="stop-color:rgb(255,158,84);stop-opacity:1"/><stop offset="1" style="stop-color:rgb(255,209,84);stop-opacity:1"/></linearGradient>
        <linearGradient id="_Linear10" x1="0" y1="0" x2="1" y2="0" gradientUnits="userSpaceOnUse" gradientTransform="matrix(-1.00404e-05,-229.698,229.698,-1.00404e-05,795.138,1265.16)"><stop offset="0" style="stop-color:rgb(255,158,84);stop-opacity:1"/><stop offset="1" style="stop-color:rgb(255,209,84);stop-opacity:1"/></linearGradient>
        <linearGradient id="_Linear11" x1="0" y1="0" x2="1" y2="0" gradientUnits="userSpaceOnUse" gradientTransform="matrix(29.1143,-1653.72,1653.72,29.1143,1562.84,2026.34)"><stop offset="0" style="stop-color:rgb(63,212,230);stop-opacity:1"/><stop offset="1" style="stop-color:rgb(84,119,255);stop-opacity:1"/></linearGradient>
        <linearGradient id="_Linear12" x1="0" y1="0" x2="1" y2="0" gradientUnits="userSpaceOnUse" gradientTransform="matrix(216.725,0,0,216.725,1661.95,632.758)"><stop offset="0" style="stop-color:rgb(63,212,230);stop-opacity:1"/><stop offset="1" style="stop-color:rgb(84,119,255);stop-opacity:1"/></linearGradient>
        <linearGradient id="_Linear13" x1="0" y1="0" x2="1" y2="0" gradientUnits="userSpaceOnUse" gradientTransform="matrix(198.941,0,0,198.941,1661.95,747.664)"><stop offset="0" style="stop-color:rgb(63,212,230);stop-opacity:1"/><stop offset="1" style="stop-color:rgb(84,119,255);stop-opacity:1"/></linearGradient>
        <linearGradient id="_Linear14" x1="0" y1="0" x2="1" y2="0" gradientUnits="userSpaceOnUse" gradientTransform="matrix(172.129,0,0,172.129,1661.95,690.211)"><stop offset="0" style="stop-color:rgb(63,212,230);stop-opacity:1"/><stop offset="1" style="stop-color:rgb(84,119,255);stop-opacity:1"/></linearGradient>
        <linearGradient id="_Linear15" x1="0" y1="0" x2="1" y2="0" gradientUnits="userSpaceOnUse" gradientTransform="matrix(-1.04031e-05,-237.995,237.995,-1.04031e-05,1429.42,856.709)"><stop offset="0" style="stop-color:rgb(124,179,223);stop-opacity:1"/><stop offset="1" style="stop-color:white;stop-opacity:1"/></linearGradient>
        <linearGradient id="_Linear16" x1="0" y1="0" x2="1" y2="0" gradientUnits="userSpaceOnUse" gradientTransform="matrix(1838.07,0,0,1838.07,888.729,1106.55)"><stop offset="0" style="stop-color:rgb(255,248,242);stop-opacity:1"/><stop offset="1" style="stop-color:rgb(255,252,242);stop-opacity:1"/></linearGradient>
        <linearGradient id="_Linear17" x1="0" y1="0" x2="1" y2="0" gradientUnits="userSpaceOnUse" gradientTransform="matrix(73.9927,-56.947,56.947,73.9927,-2554.77,4380.06)"><stop offset="0" style="stop-color:rgb(243,239,246);stop-opacity:1"/><stop offset="1" style="stop-color:rgb(242,244,255);stop-opacity:1"/></linearGradient>
        <linearGradient id="_Linear18" x1="0" y1="0" x2="1" y2="0" gradientUnits="userSpaceOnUse" gradientTransform="matrix(1838.07,0,0,1838.07,888.729,1106.55)"><stop offset="0" style="stop-color:rgb(255,248,242);stop-opacity:1"/><stop offset="1" style="stop-color:rgb(255,252,242);stop-opacity:1"/></linearGradient>
        <linearGradient id="_Linear19" x1="0" y1="0" x2="1" y2="0" gradientUnits="userSpaceOnUse" gradientTransform="matrix(29.1143,-1653.72,1653.72,29.1143,1562.84,2026.34)"><stop offset="0" style="stop-color:rgb(241,252,254);stop-opacity:1"/><stop offset="1" style="stop-color:rgb(242,245,255);stop-opacity:1"/></linearGradient>
        <radialGradient id="_Radial20" cx="0" cy="0" r="1" gradientUnits="userSpaceOnUse" gradientTransform="matrix(659.068,0,0,659.068,1807.76,1157.92)"><stop offset="0" style="stop-color:rgb(247,251,254);stop-opacity:1"/><stop offset="1" style="stop-color:rgb(244,246,255);stop-opacity:1"/></radialGradient>
        <linearGradient id="_Linear21" x1="0" y1="0" x2="1" y2="0" gradientUnits="userSpaceOnUse" gradientTransform="matrix(-8.73469,-350.832,350.832,-8.73469,738.126,1480.17)"><stop offset="0" style="stop-color:rgb(255,158,84);stop-opacity:1"/><stop offset="1" style="stop-color:rgb(255,209,84);stop-opacity:1"/></linearGradient>
        <linearGradient id="_Linear22" x1="0" y1="0" x2="1" y2="0" gradientUnits="userSpaceOnUse" gradientTransform="matrix(-8.73466,-350.831,350.831,-8.73466,695.494,1481.22)"><stop offset="0" style="stop-color:rgb(255,158,84);stop-opacity:1"/><stop offset="1" style="stop-color:rgb(255,209,84);stop-opacity:1"/></linearGradient>
        <linearGradient id="_Linear23" x1="0" y1="0" x2="1" y2="0" gradientUnits="userSpaceOnUse" gradientTransform="matrix(-78.607,294.049,-294.049,-78.607,1657.38,169.416)"><stop offset="0" style="stop-color:rgb(255,158,84);stop-opacity:1"/><stop offset="1" style="stop-color:rgb(255,209,84);stop-opacity:1"/></linearGradient>
        <linearGradient id="_Linear24" x1="0" y1="0" x2="1" y2="0" gradientUnits="userSpaceOnUse" gradientTransform="matrix(-78.6106,294.062,-294.062,-78.6106,1653.46,168.362)"><stop offset="0" style="stop-color:rgb(255,158,84);stop-opacity:1"/><stop offset="1" style="stop-color:rgb(255,209,84);stop-opacity:1"/></linearGradient>
        <linearGradient id="_Linear25" x1="0" y1="0" x2="1" y2="0" gradientUnits="userSpaceOnUse" gradientTransform="matrix(18.9245,289.693,-289.693,18.9245,1421.52,503.224)"><stop offset="0" style="stop-color:rgb(63,212,230);stop-opacity:1"/><stop offset="1" style="stop-color:rgb(84,119,255);stop-opacity:1"/></linearGradient>
        <linearGradient id="_Linear26" x1="0" y1="0" x2="1" y2="0" gradientUnits="userSpaceOnUse" gradientTransform="matrix(18.9244,289.692,-289.692,18.9244,1421.52,503.224)"><stop offset="0" style="stop-color:rgb(63,212,230);stop-opacity:1"/><stop offset="1" style="stop-color:rgb(84,119,255);stop-opacity:1"/></linearGradient>
        <linearGradient id="_Linear27" x1="0" y1="0" x2="1" y2="0" gradientUnits="userSpaceOnUse" gradientTransform="matrix(1.60374e-05,366.894,366.894,-1.60374e-05,888.733,1491.11)"><stop offset="0" style="stop-color:rgb(243,239,246);stop-opacity:1"/><stop offset="1" style="stop-color:rgb(242,244,255);stop-opacity:1"/></linearGradient>
        <radialGradient id="_Radial28" cx="0" cy="0" r="1" gradientUnits="userSpaceOnUse" gradientTransform="matrix(659.068,0,0,659.068,1807.76,1157.92)"><stop offset="0" style="stop-color:rgb(247,251,254);stop-opacity:1"/><stop offset="1" style="stop-color:rgb(244,246,255);stop-opacity:1"/></radialGradient>
    </defs>
</svg>
