<?xml version="1.0" encoding="UTF-8" standalone="no"?>
<!DOCTYPE svg PUBLIC "-//W3C//DTD SVG 1.1//EN" "http://www.w3.org/Graphics/SVG/1.1/DTD/svg11.dtd">
<svg width="100%" height="100%" viewBox="0 0 800 600" version="1.1" xmlns="http://www.w3.org/2000/svg" xmlns:xlink="http://www.w3.org/1999/xlink" xml:space="preserve" xmlns:serif="http://www.serif.com/" style="fill-rule:evenodd;clip-rule:evenodd;stroke-linejoin:round;stroke-miterlimit:2;">
    <g transform="matrix(-29.2902,146.284,146.284,29.2902,179.426,469.706)">
        <path d="M0.499,-0.531C0.499,-0.531 0.675,-0.293 0.661,-0.079L0.499,0.481C0.499,0.481 0.326,0.25 0.431,-0.275C0.447,-0.353 0.469,-0.439 0.499,-0.531Z" style="fill:url(#_Linear1);fill-rule:nonzero;"/>
    </g>
    <g transform="matrix(291.622,-1.53624e-14,-1.53624e-14,-291.622,79.2913,491.374)">
        <path d="M0.522,-0.224L0.961,-0.224L0.756,-0.09C0.756,-0.09 0.528,0.146 0.06,0.222C0.06,0.222 0.205,-0.104 0.522,-0.224Z" style="fill:url(#_Linear2);fill-rule:nonzero;"/>
    </g>
    <g transform="matrix(182.859,66.5551,66.5551,-182.859,121.933,470.621)">
        <path d="M1,-0.114C0.659,0.004 0,0.114 0,0.114L1,-0.114Z" style="fill:url(#_Linear3);fill-rule:nonzero;"/>
    </g>
    <g transform="matrix(2.16207,0,0,2.16207,297.228,448.027)">
        <path d="M0,51.578C-0.163,51.578 -0.326,51.524 -0.463,51.414C-25.334,31.211 -77.416,1.772 -77.939,1.477C-78.293,1.277 -78.418,0.83 -78.219,0.477C-78.02,0.124 -77.571,0 -77.219,0.198C-76.694,0.493 -24.503,29.994 0.463,50.274C0.778,50.53 0.825,50.992 0.57,51.307C0.425,51.485 0.213,51.578 0,51.578" style="fill:rgb(154,182,244);fill-rule:nonzero;"/>
    </g>
    <g transform="matrix(264.245,96.1772,96.1772,-264.245,144.045,407.388)">
        <path d="M0.863,-0.267L1,-0.201C1,-0.201 0.467,0.261 0,0.256C0,0.256 0.312,-0.227 0.863,-0.267Z" style="fill:url(#_Linear4);fill-rule:nonzero;"/>
    </g>
    <g transform="matrix(196.604,71.558,71.558,-196.604,182.259,431.684)">
        <path d="M1,-0.268C1,-0.268 0.372,0.134 0,0.268L1,-0.268Z" style="fill:url(#_Linear5);fill-rule:nonzero;"/>
    </g>
    <g transform="matrix(2.16207,0,0,2.16207,359.667,377.156)">
        <path d="M0,83.447C-0.222,83.447 -0.44,83.347 -0.584,83.159C-1.021,82.585 -44.678,25.526 -73.645,1.386C-73.956,1.128 -73.998,0.664 -73.738,0.353C-73.479,0.042 -73.017,0 -72.705,0.259C-43.61,24.505 0.145,81.693 0.583,82.267C0.829,82.591 0.767,83.051 0.444,83.297C0.312,83.398 0.155,83.447 0,83.447" style="fill:rgb(154,182,244);fill-rule:nonzero;"/>
    </g>
    <g transform="matrix(261.722,95.259,95.259,-261.722,212.046,387.833)">
        <path d="M0.857,-0.333L1,-0.281C1,-0.281 0.547,0.298 0,0.333C0,0.333 0.287,-0.177 0.857,-0.333Z" style="fill:url(#_Linear6);fill-rule:nonzero;"/>
    </g>
    <g transform="matrix(199.612,72.6528,72.6528,-199.612,249.277,411.921)">
        <path d="M1,-0.361C0.466,0.086 0,0.361 0,0.361L1,-0.361Z" style="fill:url(#_Linear7);fill-rule:nonzero;"/>
    </g>
    <g transform="matrix(2.16207,0,0,2.16207,422.633,337.998)">
        <path d="M0,101.897C-0.254,101.897 -0.5,101.766 -0.637,101.531C-34.477,43.035 -68.266,1.701 -68.604,1.291C-68.86,0.976 -68.815,0.514 -68.502,0.256C-68.188,0 -67.726,0.044 -67.469,0.358C-67.13,0.77 -33.266,42.197 0.635,100.795C0.838,101.146 0.718,101.595 0.366,101.798C0.251,101.866 0.124,101.897 0,101.897" style="fill:rgb(154,182,244);fill-rule:nonzero;"/>
    </g>
    <g transform="matrix(147.439,12.6148,12.6148,-147.439,636.841,538.142)">
        <path d="M0.009,-0.125L0.596,-0.125C0.808,-0.079 0.988,0.159 0.988,0.159C0.891,0.162 0.802,0.159 0.721,0.153C0.184,0.107 0.009,-0.125 0.009,-0.125Z" style="fill:url(#_Linear8);fill-rule:nonzero;"/>
    </g>
    <g transform="matrix(-220.054,143.984,143.984,220.054,753.564,419.661)">
        <path d="M0.782,-0.067L1.054,-0.067L0.646,0.2C0.279,0.281 -0.054,0.067 -0.054,0.067C0.427,-0.147 0.782,-0.067 0.782,-0.067Z" style="fill:url(#_Linear9);fill-rule:nonzero;"/>
    </g>
    <g transform="matrix(167.731,0,0,-167.731,574.488,503.924)">
        <path d="M0,-0.322L1,0.322C1,0.322 0.325,-0.058 0,-0.322Z" style="fill:url(#_Linear10);fill-rule:nonzero;"/>
    </g>
    <g transform="matrix(2.16207,0,0,2.16207,574.488,448.056)">
        <path d="M0,51.578C0.163,51.578 0.327,51.525 0.463,51.414C25.334,31.211 77.417,1.772 77.939,1.477C78.293,1.278 78.418,0.831 78.219,0.477C78.02,0.124 77.571,0 77.219,0.198C76.694,0.493 24.504,29.994 -0.463,50.274C-0.777,50.53 -0.825,50.992 -0.569,51.307C-0.425,51.485 -0.213,51.578 0,51.578" style="fill:rgb(154,182,244);fill-rule:nonzero;"/>
    </g>
    <g transform="matrix(220.291,0,0,-220.291,482.774,450.397)">
        <path d="M0,-0.483L0.193,-0.502C0.837,-0.214 1,0.502 1,0.502C0.438,0.305 0,-0.483 0,-0.483Z" style="fill:url(#_Linear11);fill-rule:nonzero;"/>
    </g>
    <g transform="matrix(158.207,0,0,-158.207,512.052,467.491)">
        <path d="M0,-0.56L1,0.56C0.599,0.225 0,-0.56 0,-0.56Z" style="fill:url(#_Linear12);fill-rule:nonzero;"/>
    </g>
    <g transform="matrix(2.16207,0,0,2.16207,512.05,377.185)">
        <path d="M0,83.447C0.222,83.447 0.44,83.348 0.584,83.159C1.022,82.585 44.678,25.526 73.645,1.387C73.956,1.128 73.998,0.665 73.739,0.353C73.479,0.042 73.017,0 72.705,0.26C43.61,24.505 -0.145,81.693 -0.583,82.267C-0.829,82.591 -0.767,83.051 -0.444,83.297C-0.312,83.398 -0.155,83.447 0,83.447" style="fill:rgb(154,182,244);fill-rule:nonzero;"/>
    </g>
    <g transform="matrix(203.183,0,0,-203.183,424.747,428.702)">
        <path d="M0,-0.63L0.208,-0.63C0.87,-0.161 1,0.63 1,0.63C0.313,0.328 0,-0.63 0,-0.63Z" style="fill:url(#_Linear13);fill-rule:nonzero;"/>
    </g>
    <g transform="matrix(147.096,0,0,-147.096,449.086,448.28)">
        <path d="M0,-0.737L1,0.737C1,0.737 0.504,0.133 0,-0.737Z" style="fill:url(#_Linear14);fill-rule:nonzero;"/>
    </g>
    <g transform="matrix(2.16207,0,0,2.16207,449.084,338.028)">
        <path d="M0,101.897C0.254,101.897 0.501,101.766 0.637,101.531C34.478,43.036 68.266,1.701 68.604,1.291C68.86,0.977 68.815,0.514 68.502,0.257C68.188,0 67.727,0.044 67.469,0.358C67.13,0.77 33.266,42.197 -0.635,100.795C-0.838,101.146 -0.718,101.596 -0.366,101.799C-0.251,101.866 -0.124,101.897 0,101.897" style="fill:rgb(154,182,244);fill-rule:nonzero;"/>
    </g>
    <g transform="matrix(-2.16207,0,0,2.16207,1970.18,115.129)">
        <rect x="605.156" y="138.168" width="1.957" height="34.262" style="fill:rgb(248,251,255);"/>
    </g>
    <g transform="matrix(-2.16207,0,0,2.16207,1980.76,108.777)">
        <rect x="607.603" y="139.637" width="1.957" height="34.262" style="fill:rgb(231,238,247);"/>
    </g>
    <g transform="matrix(-2.16207,0,0,2.16207,1989.23,115.129)">
        <rect x="609.56" y="138.168" width="1.958" height="34.262" style="fill:rgb(248,251,255);"/>
    </g>
    <g transform="matrix(-2.16207,0,0,2.16207,1999.81,115.129)">
        <rect x="612.008" y="138.168" width="1.958" height="34.262" style="fill:rgb(231,238,247);"/>
    </g>
    <g transform="matrix(-2.16207,0,0,2.16207,2008.28,110.893)">
        <rect x="613.966" y="139.147" width="1.958" height="34.263" style="fill:rgb(248,251,255);"/>
    </g>
    <g transform="matrix(-2.16207,0,0,2.16207,2031.56,197.672)">
        <rect x="619.351" y="119.079" width="1.957" height="34.262" style="fill:rgb(248,251,255);"/>
    </g>
    <g transform="matrix(2.16207,0,0,2.16207,515.758,556.591)">
        <path d="M0,-73.299C0,-73.299 46.498,-76.785 49.435,-63.57C52.371,-50.355 37.688,-16.582 40.135,3.486L-3.917,3.486C-3.917,3.486 -11.258,-52.193 0,-73.299" style="fill:rgb(85,119,224);fill-rule:nonzero;"/>
    </g>
    <g transform="matrix(81.7776,-98.3702,-98.3702,-81.7776,512.662,526.85)">
        <path d="M0.747,0.676C0.351,0.594 -0.293,-0.103 -0.293,-0.103L0.183,-0.676C0.417,-0.427 1.015,-0.253 1.155,-0.072C1.246,0.046 1.043,0.33 0.892,0.512C0.812,0.608 0.747,0.676 0.747,0.676Z" style="fill:url(#_Linear15);fill-rule:nonzero;"/>
    </g>
    <g transform="matrix(2.16207,0,0,2.16207,657.561,435.022)">
        <path d="M0,56.287L0,0L13.704,0L13.704,27.899L23.983,39.645L23.983,56.287L0,56.287Z" style="fill:rgb(85,119,224);fill-rule:nonzero;"/>
    </g>
    <g transform="matrix(-2.16207,0,0,2.16207,2008.28,277.038)">
        <rect x="608.582" y="113.696" width="12.726" height="8.32" style="fill:rgb(226,235,252);"/>
    </g>
    <g transform="matrix(2.16207,0,0,2.16207,176.59,499.574)">
        <path d="M0,7.832C-0.946,7.832 -1.713,7.064 -1.713,6.118L-1.713,1.714C-1.713,0.768 -0.946,0 0,0C0.946,0 1.713,0.768 1.713,1.714L1.713,6.118C1.713,7.064 0.946,7.832 0,7.832" style="fill:rgb(85,119,224);fill-rule:nonzero;"/>
    </g>
    <g transform="matrix(2.16207,0,0,2.16207,213.628,499.574)">
        <path d="M0,7.832C-0.946,7.832 -1.713,7.064 -1.713,6.118L-1.713,1.714C-1.713,0.768 -0.946,0 0,0C0.946,0 1.713,0.768 1.713,1.714L1.713,6.118C1.713,7.064 0.946,7.832 0,7.832" style="fill:rgb(85,119,224);fill-rule:nonzero;"/>
    </g>
    <g transform="matrix(95.7709,0,0,-95.7709,166.536,532.775)">
        <path d="M0,0.247L0.265,-0.247L1,-0.247C0.972,-0.057 0.939,0.059 0.807,0.081C0.674,0.104 0.652,0.247 0.497,0.247L0,0.247Z" style="fill:url(#_Linear16);fill-rule:nonzero;"/>
    </g>
    <g transform="matrix(1.20887,1.79253,1.79253,-1.20887,144.856,520.016)">
        <path d="M16.388,-7.813C16.388,-7.813 -1.043,7.485 1.42,11.137C3.677,14.483 11.197,11.628 16.388,17.573C21.577,23.518 32.943,18.511 32.943,18.511L16.388,-7.813Z" style="fill:rgb(85,119,224);fill-rule:nonzero;"/>
    </g>
    <g transform="matrix(2.16207,0,0,2.16207,227.314,535.68)">
        <path d="M0,-6.617C3.639,-4.038 5.539,-0.466 4.243,1.362C2.948,3.189 -1.052,2.579 -4.69,0C-8.329,-2.58 -10.229,-6.152 -8.934,-7.979C-7.639,-9.806 -3.639,-9.197 0,-6.617" style="fill:rgb(226,235,252);fill-rule:nonzero;"/>
    </g>
    <g transform="matrix(2.16207,0,0,2.16207,58.4379,127.201)">
        <path d="M0,3.729C-0.21,3.729 -0.419,3.649 -0.58,3.49C-1.809,2.27 -2.481,1.488 -2.51,1.455C-2.805,1.11 -2.765,0.591 -2.421,0.295C-2.076,0 -1.557,0.04 -1.261,0.384C-1.255,0.392 -0.599,1.154 0.579,2.323C0.901,2.644 0.903,3.164 0.583,3.486C0.422,3.648 0.211,3.729 0,3.729" style="fill:rgb(85,119,224);fill-rule:nonzero;"/>
    </g>
    <g transform="matrix(2.16207,0,0,2.16207,326.763,428.079)">
        <path d="M0,-183.374C-0.04,-183.374 -0.079,-183.376 -0.119,-183.382C-1.847,-183.634 -3.596,-183.724 -5.341,-183.647C-5.803,-183.633 -6.178,-183.979 -6.197,-184.433C-6.218,-184.886 -5.866,-185.27 -5.412,-185.291C-3.564,-185.371 -1.712,-185.276 0.117,-185.01C0.567,-184.945 0.878,-184.527 0.812,-184.078C0.753,-183.668 0.401,-183.374 0,-183.374M-19.805,-179.586C-20.118,-179.586 -20.418,-179.766 -20.555,-180.07C-20.742,-180.484 -20.558,-180.971 -20.144,-181.158C-18.533,-181.885 -16.84,-182.579 -15.109,-183.22C-14.685,-183.378 -14.211,-183.161 -14.053,-182.735C-13.895,-182.309 -14.112,-181.836 -14.538,-181.679C-16.232,-181.05 -17.891,-180.371 -19.467,-179.659C-19.577,-179.609 -19.692,-179.586 -19.805,-179.586M13.792,-177.64C13.624,-177.64 13.454,-177.691 13.308,-177.798C11.883,-178.839 10.378,-179.761 8.835,-180.537C8.429,-180.741 8.266,-181.235 8.47,-181.641C8.674,-182.047 9.167,-182.211 9.573,-182.006C11.198,-181.189 12.78,-180.22 14.278,-179.125C14.645,-178.858 14.725,-178.344 14.456,-177.977C14.296,-177.756 14.045,-177.64 13.792,-177.64M-32.774,-171.955C-33.025,-171.955 -33.273,-172.069 -33.435,-172.286C-33.706,-172.65 -33.631,-173.166 -33.267,-173.436C-31.802,-174.528 -30.292,-175.566 -28.777,-176.522C-28.394,-176.763 -27.886,-176.65 -27.644,-176.266C-27.4,-175.882 -27.516,-175.374 -27.899,-175.132C-29.378,-174.198 -30.854,-173.184 -32.284,-172.118C-32.432,-172.008 -32.604,-171.955 -32.774,-171.955M23.717,-166.416C23.43,-166.416 23.152,-166.565 23,-166.832C22.131,-168.365 21.146,-169.838 20.076,-171.211C19.797,-171.569 19.86,-172.086 20.219,-172.365C20.577,-172.644 21.094,-172.581 21.372,-172.223C22.492,-170.786 23.521,-169.246 24.431,-167.644C24.655,-167.249 24.517,-166.748 24.122,-166.523C23.993,-166.45 23.854,-166.416 23.717,-166.416M-44.011,-161.915C-44.218,-161.915 -44.424,-161.992 -44.584,-162.147C-44.909,-162.464 -44.917,-162.984 -44.601,-163.31C-43.253,-164.698 -41.99,-165.944 -40.741,-167.123C-40.411,-167.433 -39.89,-167.417 -39.579,-167.088C-39.268,-166.757 -39.283,-166.237 -39.613,-165.926C-40.845,-164.765 -42.091,-163.534 -43.421,-162.165C-43.582,-161.999 -43.797,-161.915 -44.011,-161.915M28.433,-152.181C28.025,-152.181 27.672,-152.482 27.618,-152.897C27.392,-154.646 27.046,-156.386 26.591,-158.071C26.473,-158.509 26.731,-158.96 27.17,-159.079C27.608,-159.197 28.06,-158.937 28.179,-158.499C28.652,-156.744 29.013,-154.93 29.249,-153.109C29.308,-152.658 28.989,-152.246 28.539,-152.187C28.503,-152.183 28.468,-152.181 28.433,-152.181M-54.186,-150.778C-54.38,-150.778 -54.575,-150.846 -54.732,-150.986C-55.071,-151.288 -55.101,-151.808 -54.799,-152.147L-53.975,-153.073C-53.04,-154.123 -52.121,-155.155 -51.211,-156.17C-50.908,-156.508 -50.389,-156.537 -50.05,-156.233C-49.712,-155.93 -49.684,-155.41 -49.986,-155.072C-50.895,-154.059 -51.813,-153.028 -52.746,-151.98L-53.571,-151.053C-53.733,-150.871 -53.959,-150.778 -54.186,-150.778M-64.374,-139.652C-64.578,-139.652 -64.783,-139.728 -64.942,-139.881C-65.271,-140.195 -65.281,-140.716 -64.968,-141.044C-63.763,-142.301 -62.559,-143.581 -61.288,-144.958C-60.979,-145.291 -60.46,-145.312 -60.126,-145.005C-59.793,-144.697 -59.771,-144.177 -60.079,-143.843C-61.357,-142.458 -62.567,-141.171 -63.78,-139.906C-63.941,-139.737 -64.157,-139.652 -64.374,-139.652M27.712,-137.18C27.653,-137.18 27.594,-137.186 27.534,-137.199C27.091,-137.296 26.811,-137.735 26.908,-138.179C27.29,-139.917 27.57,-141.675 27.743,-143.403C27.788,-143.856 28.191,-144.194 28.643,-144.14C29.095,-144.095 29.424,-143.692 29.379,-143.241C29.201,-141.449 28.909,-139.626 28.514,-137.826C28.43,-137.441 28.09,-137.18 27.712,-137.18M-75.175,-129.125C-75.406,-129.125 -75.635,-129.221 -75.798,-129.41C-76.095,-129.754 -76.057,-130.272 -75.713,-130.57C-75.363,-130.871 -75.015,-131.182 -74.667,-131.504C-73.709,-132.388 -72.743,-133.297 -71.795,-134.206C-71.468,-134.52 -70.947,-134.51 -70.633,-134.182C-70.318,-133.854 -70.329,-133.333 -70.657,-133.019C-71.612,-132.103 -72.586,-131.187 -73.551,-130.296C-73.912,-129.961 -74.275,-129.638 -74.639,-129.325C-74.793,-129.191 -74.984,-129.125 -75.175,-129.125M-112.15,-126.287C-112.288,-126.287 -112.428,-126.321 -112.556,-126.394C-114.097,-127.269 -115.648,-128.26 -117.169,-129.341C-117.539,-129.604 -117.625,-130.118 -117.362,-130.488C-117.099,-130.858 -116.586,-130.945 -116.216,-130.682C-114.74,-129.632 -113.236,-128.671 -111.744,-127.825C-111.349,-127.6 -111.211,-127.099 -111.435,-126.704C-111.586,-126.437 -111.864,-126.287 -112.15,-126.287M22.377,-123.114C22.244,-123.114 22.11,-123.145 21.985,-123.213C21.586,-123.43 21.438,-123.929 21.654,-124.328C22.51,-125.907 23.29,-127.515 23.973,-129.108C24.152,-129.525 24.636,-129.717 25.053,-129.54C25.47,-129.361 25.663,-128.878 25.484,-128.46C24.782,-126.821 23.979,-125.166 23.101,-123.544C22.951,-123.27 22.669,-123.114 22.377,-123.114M-88.339,-122.033C-88.708,-122.033 -89.044,-122.284 -89.137,-122.659C-89.245,-123.1 -88.976,-123.546 -88.534,-123.654C-86.87,-124.064 -85.213,-124.648 -83.606,-125.391C-83.194,-125.582 -82.706,-125.401 -82.516,-124.989C-82.325,-124.577 -82.505,-124.088 -82.917,-123.898C-84.618,-123.112 -86.375,-122.492 -88.142,-122.058C-88.207,-122.041 -88.273,-122.033 -88.339,-122.033M-97.97,-121.426C-98,-121.426 -98.03,-121.427 -98.061,-121.431C-99.841,-121.628 -101.662,-121.992 -103.476,-122.511C-103.912,-122.636 -104.165,-123.092 -104.039,-123.528C-103.914,-123.964 -103.459,-124.216 -103.022,-124.092C-101.298,-123.598 -99.568,-123.252 -97.88,-123.065C-97.429,-123.015 -97.104,-122.609 -97.153,-122.158C-97.2,-121.737 -97.556,-121.426 -97.97,-121.426M14.808,-110.045C14.67,-110.045 14.529,-110.08 14.4,-110.153C14.006,-110.379 13.869,-110.882 14.095,-111.275C15.005,-112.865 15.906,-114.425 16.794,-115.952C17.021,-116.344 17.524,-116.478 17.918,-116.25C18.311,-116.022 18.444,-115.519 18.216,-115.125C17.33,-113.602 16.43,-112.045 15.522,-110.458C15.37,-110.193 15.093,-110.045 14.808,-110.045M7.504,-96.827C7.374,-96.827 7.242,-96.857 7.12,-96.922C6.719,-97.134 6.565,-97.632 6.777,-98.033C7.597,-99.581 8.458,-101.182 9.34,-102.792C9.558,-103.19 10.058,-103.339 10.456,-103.119C10.854,-102.901 11.001,-102.401 10.783,-102.003C9.904,-100.399 9.046,-98.804 8.231,-97.265C8.084,-96.986 7.799,-96.827 7.504,-96.827M0.772,-83.32C0.656,-83.32 0.538,-83.344 0.427,-83.396C0.015,-83.587 -0.164,-84.076 0.027,-84.488C0.769,-86.084 1.552,-87.727 2.356,-89.369C2.557,-89.777 3.05,-89.946 3.457,-89.746C3.865,-89.546 4.033,-89.053 3.834,-88.645C3.034,-87.013 2.255,-85.381 1.519,-83.795C1.379,-83.496 1.082,-83.32 0.772,-83.32M-5.102,-69.407C-5.198,-69.407 -5.296,-69.423 -5.392,-69.458C-5.816,-69.619 -6.031,-70.093 -5.871,-70.518C-5.251,-72.166 -4.583,-73.863 -3.886,-75.561C-3.713,-75.981 -3.231,-76.18 -2.813,-76.009C-2.392,-75.836 -2.191,-75.356 -2.364,-74.936C-3.056,-73.253 -3.717,-71.572 -4.332,-69.939C-4.456,-69.609 -4.77,-69.407 -5.102,-69.407M-9.703,-55.033C-9.771,-55.033 -9.84,-55.041 -9.909,-55.059C-10.349,-55.172 -10.613,-55.622 -10.499,-56.061C-10.057,-57.769 -9.561,-59.527 -9.025,-61.284C-8.893,-61.718 -8.434,-61.965 -7.999,-61.831C-7.564,-61.699 -7.319,-61.239 -7.452,-60.804C-7.98,-59.069 -8.471,-57.334 -8.907,-55.649C-9.003,-55.278 -9.337,-55.033 -9.703,-55.033M-12.416,-40.197C-12.443,-40.197 -12.471,-40.198 -12.498,-40.201C-12.95,-40.246 -13.28,-40.648 -13.235,-41.101C-13.062,-42.857 -12.823,-44.672 -12.527,-46.496C-12.454,-46.944 -12.032,-47.25 -11.584,-47.175C-11.136,-47.103 -10.831,-46.68 -10.904,-46.232C-11.194,-44.442 -11.428,-42.661 -11.599,-40.938C-11.641,-40.514 -11.998,-40.197 -12.416,-40.197M-12.325,-25.133C-12.734,-25.133 -13.089,-25.438 -13.141,-25.854C-13.36,-27.622 -13.506,-29.454 -13.571,-31.299C-13.587,-31.752 -13.232,-32.134 -12.778,-32.15C-12.322,-32.174 -11.943,-31.812 -11.928,-31.358C-11.863,-29.56 -11.723,-27.777 -11.509,-26.057C-11.452,-25.607 -11.772,-25.196 -12.223,-25.14C-12.257,-25.135 -12.292,-25.133 -12.325,-25.133M-8.369,-10.626C-8.685,-10.626 -8.985,-10.809 -9.122,-11.116C-9.854,-12.769 -10.507,-14.493 -11.06,-16.239C-11.197,-16.671 -10.957,-17.133 -10.523,-17.271C-10.091,-17.409 -9.629,-17.167 -9.492,-16.736C-8.957,-15.047 -8.327,-13.38 -7.618,-11.783C-7.435,-11.368 -7.622,-10.881 -8.037,-10.698C-8.146,-10.649 -8.258,-10.626 -8.369,-10.626M-0.211,1.997C-0.437,1.997 -0.664,1.903 -0.826,1.72C-2.046,0.344 -3.193,-1.095 -4.238,-2.562C-4.502,-2.931 -4.415,-3.445 -4.046,-3.708C-3.675,-3.973 -3.162,-3.885 -2.898,-3.515C-1.888,-2.097 -0.776,-0.703 0.404,0.628C0.705,0.969 0.674,1.488 0.334,1.79C0.178,1.928 -0.017,1.997 -0.211,1.997" style="fill:rgb(85,119,224);fill-rule:nonzero;"/>
    </g>
    <g transform="matrix(2.16207,0,0,2.16207,346.436,443.181)">
        <path d="M0,3.411C-0.169,3.411 -0.339,3.36 -0.485,3.253C-1.236,2.703 -1.979,2.137 -2.691,1.568C-3.046,1.285 -3.104,0.767 -2.82,0.413C-2.538,0.057 -2.021,0 -1.665,0.282C-0.971,0.837 -0.247,1.39 0.485,1.926C0.853,2.193 0.932,2.708 0.664,3.075C0.503,3.295 0.253,3.411 0,3.411" style="fill:rgb(85,119,224);fill-rule:nonzero;"/>
    </g>
    <g transform="matrix(2.16207,0,0,2.16207,612.403,488.427)">
        <path d="M0,-166.187C-0.354,-166.187 -0.683,-166.419 -0.788,-166.777C-0.916,-167.212 -0.668,-167.669 -0.232,-167.798C1.479,-168.302 3.393,-168.487 5.483,-168.339C5.937,-168.307 6.278,-167.914 6.246,-167.461C6.214,-167.008 5.814,-166.667 5.368,-166.698C3.475,-166.831 1.755,-166.669 0.233,-166.221C0.155,-166.198 0.077,-166.187 0,-166.187M19.874,-161.852C19.743,-161.852 19.61,-161.884 19.486,-161.95C17.813,-162.847 16.175,-163.632 14.616,-164.28C14.196,-164.454 13.998,-164.935 14.173,-165.355C14.348,-165.774 14.828,-165.972 15.248,-165.798C16.856,-165.129 18.544,-164.322 20.264,-163.399C20.664,-163.184 20.814,-162.686 20.6,-162.286C20.451,-162.009 20.168,-161.852 19.874,-161.852M-9.087,-154.801C-9.147,-154.801 -9.208,-154.808 -9.269,-154.822C-9.712,-154.922 -9.989,-155.362 -9.89,-155.805C-9.436,-157.816 -8.798,-159.616 -7.997,-161.154C-7.787,-161.557 -7.292,-161.713 -6.889,-161.504C-6.485,-161.294 -6.329,-160.798 -6.539,-160.395C-7.274,-158.982 -7.862,-157.316 -8.286,-155.442C-8.372,-155.061 -8.711,-154.801 -9.087,-154.801M-9.62,-139.53C-10.036,-139.53 -10.394,-139.845 -10.437,-140.268C-10.63,-142.156 -10.739,-143.894 -10.771,-145.582L-10.775,-145.809C-10.782,-146.263 -10.419,-146.637 -9.965,-146.643C-9.509,-146.665 -9.138,-146.287 -9.131,-145.833L-9.128,-145.62C-9.097,-143.971 -8.989,-142.277 -8.801,-140.436C-8.755,-139.984 -9.083,-139.581 -9.535,-139.534C-9.563,-139.531 -9.592,-139.53 -9.62,-139.53M-7.012,-124.412C-7.391,-124.412 -7.731,-124.675 -7.814,-125.061C-8.253,-127.091 -8.616,-128.854 -8.925,-130.447C-9.011,-130.893 -8.719,-131.324 -8.273,-131.411C-7.827,-131.496 -7.396,-131.205 -7.31,-130.76C-7.004,-129.178 -6.643,-127.427 -6.207,-125.407C-6.111,-124.964 -6.394,-124.526 -6.838,-124.431C-6.896,-124.417 -6.954,-124.412 -7.012,-124.412M-3.73,-109.416C-4.112,-109.416 -4.454,-109.684 -4.535,-110.073C-4.909,-111.882 -5.294,-113.666 -5.681,-115.423C-5.778,-115.866 -5.498,-116.305 -5.055,-116.403C-4.611,-116.5 -4.172,-116.22 -4.074,-115.776C-3.687,-114.013 -3.3,-112.222 -2.925,-110.406C-2.832,-109.96 -3.118,-109.526 -3.563,-109.434C-3.619,-109.422 -3.675,-109.416 -3.73,-109.416M-1.151,-94.291C-1.561,-94.291 -1.915,-94.594 -1.967,-95.01C-2.184,-96.746 -2.444,-98.562 -2.74,-100.408C-2.813,-100.856 -2.507,-101.278 -2.059,-101.35C-1.61,-101.42 -1.188,-101.117 -1.116,-100.668C-0.817,-98.804 -0.555,-96.969 -0.335,-95.214C-0.278,-94.764 -0.598,-94.353 -1.049,-94.296C-1.083,-94.292 -1.118,-94.291 -1.151,-94.291M-0.163,-78.985C-0.617,-78.985 -0.985,-79.353 -0.985,-79.807L-0.985,-80C-0.985,-81.718 -1.027,-83.483 -1.111,-85.247C-1.133,-85.7 -0.782,-86.085 -0.329,-86.107C0.121,-86.119 0.51,-85.778 0.531,-85.325C0.616,-83.536 0.659,-81.744 0.659,-80L0.659,-79.807C0.659,-79.353 0.291,-78.985 -0.163,-78.985M-1.34,-63.697C-1.382,-63.697 -1.424,-63.701 -1.467,-63.707C-1.916,-63.777 -2.223,-64.197 -2.152,-64.646C-1.876,-66.421 -1.646,-68.236 -1.468,-70.037C-1.424,-70.489 -1.021,-70.816 -0.569,-70.775C-0.117,-70.73 0.213,-70.327 0.168,-69.875C-0.013,-68.043 -0.247,-66.199 -0.528,-64.393C-0.591,-63.987 -0.941,-63.697 -1.34,-63.697M-4.886,-48.781C-4.97,-48.781 -5.055,-48.793 -5.138,-48.821C-5.57,-48.959 -5.808,-49.422 -5.669,-49.855C-5.113,-51.582 -4.602,-53.336 -4.147,-55.073C-4.032,-55.511 -3.583,-55.773 -3.144,-55.66C-2.704,-55.544 -2.441,-55.095 -2.557,-54.656C-3.019,-52.891 -3.539,-51.107 -4.104,-49.351C-4.216,-49.002 -4.538,-48.781 -4.886,-48.781M-10.634,-34.569C-10.756,-34.569 -10.88,-34.595 -10.996,-34.653C-11.404,-34.853 -11.572,-35.346 -11.372,-35.753C-10.589,-37.346 -9.826,-39.008 -9.105,-40.693C-8.927,-41.11 -8.442,-41.302 -8.025,-41.124C-7.608,-40.946 -7.414,-40.462 -7.594,-40.044C-8.326,-38.333 -9.101,-36.646 -9.896,-35.028C-10.039,-34.737 -10.331,-34.569 -10.634,-34.569M-18.518,-21.436C-18.687,-21.436 -18.856,-21.488 -19.003,-21.595C-19.369,-21.864 -19.448,-22.378 -19.18,-22.745C-18.132,-24.174 -17.106,-25.682 -16.13,-27.225C-15.888,-27.609 -15.38,-27.723 -14.996,-27.48C-14.612,-27.238 -14.498,-26.73 -14.74,-26.346C-15.736,-24.772 -16.784,-23.233 -17.854,-21.773C-18.015,-21.553 -18.265,-21.436 -18.518,-21.436M-28.843,-10.138C-29.073,-10.138 -29.303,-10.235 -29.465,-10.422C-29.762,-10.766 -29.725,-11.285 -29.381,-11.583C-28.04,-12.743 -26.719,-13.993 -25.452,-15.295C-25.136,-15.621 -24.615,-15.628 -24.289,-15.312C-23.964,-14.996 -23.956,-14.475 -24.272,-14.15C-25.572,-12.812 -26.929,-11.531 -28.306,-10.339C-28.461,-10.205 -28.652,-10.138 -28.843,-10.138M-41.639,-1.755C-41.948,-1.755 -42.244,-1.931 -42.384,-2.229C-42.576,-2.641 -42.399,-3.13 -41.988,-3.323C-40.384,-4.075 -38.783,-4.929 -37.23,-5.865C-36.842,-6.099 -36.336,-5.974 -36.103,-5.585C-35.868,-5.196 -35.993,-4.691 -36.382,-4.456C-37.983,-3.492 -39.635,-2.609 -41.291,-1.833C-41.403,-1.781 -41.522,-1.755 -41.639,-1.755M-56.376,2.3C-56.825,2.3 -57.191,1.94 -57.197,1.49C-57.204,1.036 -56.841,0.663 -56.387,0.656C-56.367,0.656 -54.353,0.618 -51.128,-0.126C-50.684,-0.226 -50.244,0.047 -50.142,0.49C-50.04,0.932 -50.315,1.374 -50.758,1.476C-54.173,2.264 -56.277,2.299 -56.365,2.3L-56.376,2.3Z" style="fill:rgb(85,119,224);fill-rule:nonzero;"/>
    </g>
    <g transform="matrix(-45.4188,-57.0404,-57.0404,45.4188,386.413,474.933)">
        <path d="M1.143,-0.562C1.058,-0.272 0.799,0.009 0.733,0.228C0.667,0.448 -0.032,0.968 -0.032,0.968C-0.032,0.968 -0.154,0.768 -0.031,0.503C0.092,0.238 0.122,0.066 0.122,0.066L0.724,-0.599L1.024,-0.968C1.024,-0.968 1.059,-0.948 1.094,-0.904C1.143,-0.842 1.192,-0.732 1.143,-0.562Z" style="fill:url(#_Linear17);fill-rule:nonzero;"/>
    </g>
    <g transform="matrix(11.8902,20.9243,20.9243,-11.8902,345.252,328.874)">
        <path d="M0.301,0.02C1.427,-0.097 0.46,0.604 0.46,0.604C0.46,0.604 0.262,0.672 0.301,0.948C0.34,1.224 -0.359,1.121 -0.359,1.121C-0.359,1.121 -0.825,0.137 0.301,0.02Z" style="fill:url(#_Linear18);fill-rule:nonzero;"/>
    </g>
    <g transform="matrix(-123.259,-196.74,-196.74,123.259,529.931,590.211)">
        <path d="M0.968,-0.314C0.968,-0.314 0.948,-0.14 1.12,0.021C1.12,0.021 1.107,0.019 1.002,0.117C0.897,0.215 0.861,0.296 0.766,0.281C0.67,0.265 0.528,0.296 0.401,0.402L0.079,-0.112C0.079,-0.112 0.227,-0.183 0.324,-0.184L0.86,-0.402C0.904,-0.395 0.941,-0.358 0.968,-0.315C0.968,-0.315 0.968,-0.315 0.968,-0.314Z" style="fill:url(#_Linear19);fill-rule:nonzero;"/>
    </g>
    <g transform="matrix(44.1228,0,0,-44.1228,422.63,270.614)">
        <path d="M0.384,0.807C0.024,0.783 0,0.327 0,0.327L0.384,-0.368C0.384,-0.368 0.791,-0.632 0.959,-0.248C1.124,0.129 0.756,0.808 0.402,0.807C0.396,0.807 0.39,0.807 0.384,0.807Z" style="fill:url(#_Linear20);fill-rule:nonzero;"/>
    </g>
    <g transform="matrix(-1.16918,1.81867,1.81867,1.16918,457.555,267.991)">
        <path d="M6.816,-18.894C6.816,-18.894 4.786,-18.454 3.728,-16.807C3.463,-16.395 2.081,-9.719 6.816,-2.603C11.551,4.515 13.785,0.132 13.785,0.132L6.816,-18.894Z" style="fill:rgb(249,236,220);fill-rule:nonzero;"/>
    </g>
    <g transform="matrix(88.733,0,0,-88.733,357.676,300.982)">
        <path d="M0.1,0.398C-0.134,0.154 0.115,-0.269 0.115,-0.269L0.923,-0.545C0.935,-0.318 1.054,-0.151 0.971,0.159C0.928,0.318 0.817,0.433 0.684,0.494C0.612,0.527 0.532,0.545 0.453,0.545C0.324,0.545 0.196,0.498 0.1,0.398Z" style="fill:url(#_Linear21);fill-rule:nonzero;"/>
    </g>
    <g transform="matrix(3.86103,39.5755,39.5755,-3.86103,432.566,360.135)">
        <path d="M-0.109,-0.508C-0.109,-0.508 0.039,-0.362 0.156,-0.534C0.273,-0.705 0.218,-0.994 0.218,-0.994C0.218,-0.994 0.739,-0.858 0.793,-0.302C0.848,0.255 0.117,0.994 0.117,0.994C0.117,0.994 0.113,0.674 -0.045,0.422C-0.204,0.17 -0.934,0.081 -0.934,0.081L-0.109,-0.508Z" style="fill:url(#_Linear22);fill-rule:nonzero;"/>
    </g>
    <g transform="matrix(-59.2591,-63.2097,-63.2097,59.2591,456.102,379.727)">
        <path d="M1.186,0.305C1.186,0.305 0.638,0.4 0.513,0.283C0.387,0.167 0.499,-0.089 0.668,-0.247C0.668,-0.247 0.708,-0.419 0.829,-0.432C0.951,-0.446 0.868,-0.301 0.754,-0.245C0.754,-0.245 0.847,-0.181 0.996,-0.237C0.996,-0.237 1.127,-0.008 1.35,0.034C1.35,0.034 1.147,0.157 1.186,0.305Z" style="fill:url(#_Linear23);fill-rule:nonzero;"/>
    </g>
    <g transform="matrix(46.0576,0,0,-46.0576,362.311,362.518)">
        <path d="M0,0.172C0,0.172 0.391,-0.379 0.643,-0.356C0.896,-0.333 1.08,-0.173 0.965,0.011C0.85,0.195 0.597,0.377 0.517,0.309C0.437,0.241 0.437,0.126 0.437,0.126C0.437,0.126 0.207,0.241 0.161,0.333C0.154,0.347 0.145,0.353 0.135,0.353C0.082,0.353 0,0.172 0,0.172Z" style="fill:url(#_Linear24);fill-rule:nonzero;"/>
    </g>
    <g transform="matrix(-49.7777,-17.3827,-17.3827,49.7777,363.727,438.318)">
        <path d="M0.914,-1.745C1.032,-1.534 0.937,-1.142 0.937,-1.142C0.921,-0.85 0.972,-0.024 0.894,0.565C0.816,1.154 0.728,1.527 0.568,1.62C0.408,1.713 0.228,1.863 0.034,1.689C-0.16,1.515 -0.012,0.907 0.225,0.289C0.463,-0.33 0.613,-1.064 0.613,-1.064C0.467,-1.072 0.499,-1.529 0.481,-1.599C0.472,-1.634 0.442,-1.639 0.414,-1.644C0.386,-1.648 0.361,-1.652 0.361,-1.683C0.362,-1.747 0.561,-1.89 0.638,-1.927C0.67,-1.943 0.704,-1.951 0.742,-1.938C0.791,-1.92 0.847,-1.866 0.914,-1.745Z" style="fill:url(#_Linear25);fill-rule:nonzero;"/>
    </g>
    <g transform="matrix(-15.2758,-28.7891,-28.7891,15.2758,456.499,534.33)">
        <path d="M3.32,-2.46C2.166,-2.142 1.811,-2.395 0.97,-1.764C0.97,-1.764 0.923,-1.385 0.886,-0.837C0.828,0.016 0.794,1.278 0.992,2.157L1.479,3.075C1.631,3.362 1.588,3.973 1.397,3.89C1.291,3.845 1.217,3.646 1.157,3.473C1.109,3.335 1.071,3.214 1.032,3.202C0.944,3.175 0.462,2.475 0.501,2.271C0.501,2.271 -0.044,0.467 -0.243,-0.899C-0.341,-1.573 -0.355,-2.141 -0.177,-2.332C0.536,-3.1 3.287,-3.839 3.831,-3.576C3.949,-3.519 4.03,-3.444 4.074,-3.36C4.235,-3.057 3.94,-2.631 3.32,-2.46Z" style="fill:url(#_Linear26);fill-rule:nonzero;"/>
    </g>
    <g transform="matrix(-60.0493,-13.4321,-13.4321,60.0493,540.55,457.752)">
        <path d="M1.215,-0.671C0.946,-0.097 0.722,-0.041 0.685,0.515C0.685,0.515 0.822,0.664 1.03,0.868C0.95,1 0.796,1.222 0.616,1.301C0.311,1.108 0.078,0.918 0.062,0.781C-0.001,0.229 0.649,-1.132 0.942,-1.261C1.005,-1.288 1.063,-1.295 1.113,-1.284C1.29,-1.244 1.36,-0.979 1.215,-0.671Z" style="fill:url(#_Linear27);fill-rule:nonzero;"/>
    </g>
    <g transform="matrix(-2.16207,0,0,2.16207,1450.83,342.648)">
        <rect x="301.021" y="99.012" width="370.016" height="7.342" style="fill:rgb(226,235,252);"/>
    </g>
    <g transform="matrix(2.16207,0,0,2.16207,533.217,147.443)">
        <path d="M0,0.001C0,8.043 -6.52,14.562 -14.562,14.562C-22.604,14.562 -29.123,8.043 -29.123,0.001C-29.123,-8.041 -22.604,-14.561 -14.562,-14.561C-6.52,-14.561 0,-8.041 0,0.001" style="fill:rgb(226,235,252);fill-rule:nonzero;"/>
    </g>
    <g transform="matrix(2.16207,0,0,2.16207,509.048,158.03)">
        <path d="M0,-8.96C0,-8.96 -2.24,-8.12 -2.8,-9.8C-3.36,-11.481 -0.56,-15.681 0.84,-15.401C2.24,-15.121 4.2,-11.292 4.2,-9.52C4.2,-7.56 1.12,1.681 -2.8,4.201C-6.721,6.721 -11.48,5.601 -10.921,3.081C-10.36,0.561 -8.4,-2.52 -7.561,-2.24C-6.721,-1.96 -4.48,0.841 -4.48,0.841C-4.48,0.841 0.561,-3.92 0,-8.96" style="fill:rgb(154,182,244);fill-rule:nonzero;"/>
    </g>
    <g transform="matrix(2.16207,0,0,2.16207,743.277,274.699)">
        <path d="M0,-22.026L0,-0.001C0,1.218 -0.983,2.203 -2.202,2.203L-38.912,2.203C-40.131,2.203 -41.114,1.218 -41.114,-0.001L-41.114,-22.026C-41.114,-22.393 -41.026,-22.741 -40.864,-23.044C-40.498,-23.749 -39.764,-24.229 -38.912,-24.229L-2.202,-24.229C-1.331,-24.229 -0.577,-23.724 -0.225,-22.99C-0.078,-22.696 0,-22.374 0,-22.026" style="fill:rgb(154,182,244);fill-rule:nonzero;"/>
    </g>
    <g transform="matrix(2.16207,0,0,2.16207,742.792,252.444)">
        <path d="M0,-12.697L-20.332,1.238L-40.64,-12.751C-40.273,-13.456 -39.539,-13.935 -38.688,-13.935L-1.978,-13.935C-1.106,-13.935 -0.353,-13.431 0,-12.697" style="fill:rgb(226,235,252);fill-rule:nonzero;"/>
    </g>
    <g transform="matrix(2.16207,0,0,2.16207,166.535,274.699)">
        <path d="M0,-22.026L0,-0.001C0,1.218 -0.983,2.203 -2.202,2.203L-38.911,2.203C-40.13,2.203 -41.114,1.218 -41.114,-0.001L-41.114,-22.026C-41.114,-22.393 -41.026,-22.741 -40.864,-23.044C-40.497,-23.749 -39.764,-24.229 -38.911,-24.229L-2.202,-24.229C-1.331,-24.229 -0.577,-23.724 -0.225,-22.99C-0.078,-22.696 0,-22.374 0,-22.026" style="fill:rgb(154,182,244);fill-rule:nonzero;"/>
    </g>
    <g transform="matrix(2.16207,0,0,2.16207,166.049,252.444)">
        <path d="M0,-12.697L-20.332,1.238L-40.64,-12.751C-40.272,-13.456 -39.539,-13.935 -38.687,-13.935L-1.978,-13.935C-1.106,-13.935 -0.353,-13.431 0,-12.697" style="fill:rgb(226,235,252);fill-rule:nonzero;"/>
    </g>
    <g transform="matrix(2.16207,0,0,2.16207,45.928,91.0268)">
        <path d="M0,11.406L-5.216,8.508C-5.602,8.293 -6.041,8.684 -5.874,9.093L-3.542,14.795C-3.47,14.974 -3.514,15.178 -3.653,15.311L-10.248,21.551C-10.497,21.785 -10.905,21.682 -11.013,21.357L-21.185,-9.621C-21.316,-10.023 -20.89,-10.379 -20.519,-10.177L6.761,4.618C7.04,4.77 7.09,5.15 6.859,5.367L0.547,11.337C0.399,11.477 0.178,11.505 0,11.406" style="fill:rgb(226,235,252);fill-rule:nonzero;"/>
    </g>
    <g transform="matrix(2.16207,0,0,2.16207,674.269,166.88)">
        <path d="M0,-7.775L5.511,-5.486C5.918,-5.317 6.311,-5.755 6.099,-6.142L3.136,-11.544C3.043,-11.713 3.063,-11.921 3.188,-12.069L9.032,-19.015C9.253,-19.277 9.671,-19.221 9.813,-18.91L23.431,10.716C23.607,11.1 23.224,11.502 22.832,11.344L-5.948,-0.265C-6.243,-0.383 -6.335,-0.755 -6.131,-0.998L-0.536,-7.644C-0.404,-7.8 -0.187,-7.853 0,-7.775" style="fill:rgb(226,235,252);fill-rule:nonzero;"/>
    </g>
    <defs>
        <linearGradient id="_Linear1" x1="0" y1="0" x2="1" y2="0" gradientUnits="userSpaceOnUse" gradientTransform="matrix(0.150873,0.988553,0.988553,-0.150873,0.449559,-0.523376)"><stop offset="0" style="stop-color:rgb(231,239,252);stop-opacity:1"/><stop offset="1" style="stop-color:rgb(156,181,246);stop-opacity:1"/></linearGradient>
        <linearGradient id="_Linear2" x1="0" y1="0" x2="1" y2="0" gradientUnits="userSpaceOnUse" gradientTransform="matrix(0.939693,-0.34202,-0.34202,-0.939693,0.0199505,0.113145)"><stop offset="0" style="stop-color:rgb(231,239,252);stop-opacity:1"/><stop offset="1" style="stop-color:rgb(156,181,246);stop-opacity:1"/></linearGradient>
        <linearGradient id="_Linear3" x1="0" y1="0" x2="1" y2="0" gradientUnits="userSpaceOnUse" gradientTransform="matrix(1,5.55112e-17,5.55112e-17,-1,0,1.34215e-05)"><stop offset="0" style="stop-color:rgb(231,239,252);stop-opacity:1"/><stop offset="1" style="stop-color:rgb(156,181,246);stop-opacity:1"/></linearGradient>
        <linearGradient id="_Linear4" x1="0" y1="0" x2="1" y2="0" gradientUnits="userSpaceOnUse" gradientTransform="matrix(1,-5.55112e-17,-5.55112e-17,-1,-4.44089e-16,-0.00554933)"><stop offset="0" style="stop-color:rgb(231,239,252);stop-opacity:1"/><stop offset="1" style="stop-color:rgb(156,181,246);stop-opacity:1"/></linearGradient>
        <linearGradient id="_Linear5" x1="0" y1="0" x2="1" y2="0" gradientUnits="userSpaceOnUse" gradientTransform="matrix(1,0,0,-1,0,9.65419e-06)"><stop offset="0" style="stop-color:rgb(231,239,252);stop-opacity:1"/><stop offset="1" style="stop-color:rgb(156,181,246);stop-opacity:1"/></linearGradient>
        <linearGradient id="_Linear6" x1="0" y1="0" x2="1" y2="0" gradientUnits="userSpaceOnUse" gradientTransform="matrix(1,0,0,-1,4.44089e-16,4.51635e-06)"><stop offset="0" style="stop-color:rgb(231,239,252);stop-opacity:1"/><stop offset="1" style="stop-color:rgb(156,181,246);stop-opacity:1"/></linearGradient>
        <linearGradient id="_Linear7" x1="0" y1="0" x2="1" y2="0" gradientUnits="userSpaceOnUse" gradientTransform="matrix(1,0,0,-1,0,-9.91175e-06)"><stop offset="0" style="stop-color:rgb(231,239,252);stop-opacity:1"/><stop offset="1" style="stop-color:rgb(156,181,246);stop-opacity:1"/></linearGradient>
        <linearGradient id="_Linear8" x1="0" y1="0" x2="1" y2="0" gradientUnits="userSpaceOnUse" gradientTransform="matrix(0.99636,0.085248,0.085248,-0.99636,0.00182011,-0.0426238)"><stop offset="0" style="stop-color:rgb(156,181,246);stop-opacity:1"/><stop offset="1" style="stop-color:rgb(231,239,252);stop-opacity:1"/></linearGradient>
        <linearGradient id="_Linear9" x1="0" y1="0" x2="1" y2="0" gradientUnits="userSpaceOnUse" gradientTransform="matrix(-0.836791,0.547522,0.547522,0.836791,0.918391,-0.27376)"><stop offset="0" style="stop-color:rgb(156,181,246);stop-opacity:1"/><stop offset="1" style="stop-color:rgb(231,239,252);stop-opacity:1"/></linearGradient>
        <linearGradient id="_Linear10" x1="0" y1="0" x2="1" y2="0" gradientUnits="userSpaceOnUse" gradientTransform="matrix(1,0,0,-1,0,-7.7856e-06)"><stop offset="0" style="stop-color:rgb(156,181,246);stop-opacity:1"/><stop offset="1" style="stop-color:rgb(231,239,252);stop-opacity:1"/></linearGradient>
        <linearGradient id="_Linear11" x1="0" y1="0" x2="1" y2="0" gradientUnits="userSpaceOnUse" gradientTransform="matrix(1,0,0,-1,0,2.67154e-06)"><stop offset="0" style="stop-color:rgb(156,181,246);stop-opacity:1"/><stop offset="1" style="stop-color:rgb(231,239,252);stop-opacity:1"/></linearGradient>
        <linearGradient id="_Linear12" x1="0" y1="0" x2="1" y2="0" gradientUnits="userSpaceOnUse" gradientTransform="matrix(1,0,0,-1,0,9.6209e-07)"><stop offset="0" style="stop-color:rgb(156,181,246);stop-opacity:1"/><stop offset="1" style="stop-color:rgb(231,239,252);stop-opacity:1"/></linearGradient>
        <linearGradient id="_Linear13" x1="0" y1="0" x2="1" y2="0" gradientUnits="userSpaceOnUse" gradientTransform="matrix(1,0,0,-1,0,5.51205e-07)"><stop offset="0" style="stop-color:rgb(156,181,246);stop-opacity:1"/><stop offset="1" style="stop-color:rgb(231,239,252);stop-opacity:1"/></linearGradient>
        <linearGradient id="_Linear14" x1="0" y1="0" x2="1" y2="0" gradientUnits="userSpaceOnUse" gradientTransform="matrix(1,0,0,-1,0,1.42574e-06)"><stop offset="0" style="stop-color:rgb(156,181,246);stop-opacity:1"/><stop offset="1" style="stop-color:rgb(231,239,252);stop-opacity:1"/></linearGradient>
        <linearGradient id="_Linear15" x1="0" y1="0" x2="1" y2="0" gradientUnits="userSpaceOnUse" gradientTransform="matrix(1,0,0,-1,0,1.73606e-06)"><stop offset="0" style="stop-color:rgb(94,121,246);stop-opacity:1"/><stop offset="1" style="stop-color:rgb(152,192,252);stop-opacity:1"/></linearGradient>
        <linearGradient id="_Linear16" x1="0" y1="0" x2="1" y2="0" gradientUnits="userSpaceOnUse" gradientTransform="matrix(1,0,0,-1,0,-2.50813e-05)"><stop offset="0" style="stop-color:rgb(94,121,246);stop-opacity:1"/><stop offset="1" style="stop-color:rgb(152,192,252);stop-opacity:1"/></linearGradient>
        <linearGradient id="_Linear17" x1="0" y1="0" x2="1" y2="0" gradientUnits="userSpaceOnUse" gradientTransform="matrix(1,-5.55112e-17,-5.55112e-17,-1,0,1.41008e-05)"><stop offset="0" style="stop-color:rgb(250,119,94);stop-opacity:1"/><stop offset="1" style="stop-color:rgb(255,196,132);stop-opacity:1"/></linearGradient>
        <linearGradient id="_Linear18" x1="0" y1="0" x2="1" y2="0" gradientUnits="userSpaceOnUse" gradientTransform="matrix(0.494051,0.869433,0.869433,-0.494051,-0.0551152,0.0947111)"><stop offset="0" style="stop-color:rgb(234,66,94);stop-opacity:1"/><stop offset="1" style="stop-color:rgb(255,134,109);stop-opacity:1"/></linearGradient>
        <linearGradient id="_Linear19" x1="0" y1="0" x2="1" y2="0" gradientUnits="userSpaceOnUse" gradientTransform="matrix(1,5.55112e-17,5.55112e-17,-1,0,5.66726e-06)"><stop offset="0" style="stop-color:rgb(250,119,94);stop-opacity:1"/><stop offset="1" style="stop-color:rgb(255,196,132);stop-opacity:1"/></linearGradient>
        <linearGradient id="_Linear20" x1="0" y1="0" x2="1" y2="0" gradientUnits="userSpaceOnUse" gradientTransform="matrix(1,0,0,-1,0,0.175316)"><stop offset="0" style="stop-color:rgb(73,68,168);stop-opacity:1"/><stop offset="1" style="stop-color:rgb(48,43,146);stop-opacity:1"/></linearGradient>
        <linearGradient id="_Linear21" x1="0" y1="0" x2="1" y2="0" gradientUnits="userSpaceOnUse" gradientTransform="matrix(1,0,0,-1,0,-1.59354e-05)"><stop offset="0" style="stop-color:rgb(73,68,168);stop-opacity:1"/><stop offset="1" style="stop-color:rgb(48,43,146);stop-opacity:1"/></linearGradient>
        <linearGradient id="_Linear22" x1="0" y1="0" x2="1" y2="0" gradientUnits="userSpaceOnUse" gradientTransform="matrix(1,0,0,-1,0,8.55829e-06)"><stop offset="0" style="stop-color:rgb(249,199,149);stop-opacity:1"/><stop offset="1" style="stop-color:rgb(254,227,194);stop-opacity:1"/></linearGradient>
        <linearGradient id="_Linear23" x1="0" y1="0" x2="1" y2="0" gradientUnits="userSpaceOnUse" gradientTransform="matrix(1,0,0,-1,0,-0.0458559)"><stop offset="0" style="stop-color:rgb(249,199,149);stop-opacity:1"/><stop offset="1" style="stop-color:rgb(254,227,194);stop-opacity:1"/></linearGradient>
        <linearGradient id="_Linear24" x1="0" y1="0" x2="1" y2="0" gradientUnits="userSpaceOnUse" gradientTransform="matrix(1,0,0,-1,0,-0.0020941)"><stop offset="0" style="stop-color:rgb(234,66,94);stop-opacity:1"/><stop offset="1" style="stop-color:rgb(255,134,109);stop-opacity:1"/></linearGradient>
        <linearGradient id="_Linear25" x1="0" y1="0" x2="1" y2="0" gradientUnits="userSpaceOnUse" gradientTransform="matrix(1,5.55112e-17,5.55112e-17,-1,0,-0.0874649)"><stop offset="0" style="stop-color:rgb(249,199,149);stop-opacity:1"/><stop offset="1" style="stop-color:rgb(254,227,194);stop-opacity:1"/></linearGradient>
        <linearGradient id="_Linear26" x1="0" y1="0" x2="1" y2="0" gradientUnits="userSpaceOnUse" gradientTransform="matrix(1,0,0,-1,0,0.133774)"><stop offset="0" style="stop-color:rgb(249,199,149);stop-opacity:1"/><stop offset="1" style="stop-color:rgb(254,227,194);stop-opacity:1"/></linearGradient>
        <linearGradient id="_Linear27" x1="0" y1="0" x2="1" y2="0" gradientUnits="userSpaceOnUse" gradientTransform="matrix(1,0,0,-1,-3.55271e-15,0.00593812)"><stop offset="0" style="stop-color:rgb(250,119,94);stop-opacity:1"/><stop offset="1" style="stop-color:rgb(255,196,132);stop-opacity:1"/></linearGradient>
    </defs>
</svg>
