<?xml version="1.0" encoding="UTF-8" standalone="no"?>
<!DOCTYPE svg PUBLIC "-//W3C//DTD SVG 1.1//EN" "http://www.w3.org/Graphics/SVG/1.1/DTD/svg11.dtd">
<svg width="100%" height="100%" viewBox="0 0 500 77" version="1.1" xmlns="http://www.w3.org/2000/svg" xmlns:xlink="http://www.w3.org/1999/xlink" xml:space="preserve" xmlns:serif="http://www.serif.com/" style="fill-rule:evenodd;clip-rule:evenodd;stroke-linejoin:round;stroke-miterlimit:2;">
    <g transform="matrix(0.210027,0,0,0.210027,-175.773,-402.829)">
        <g transform="matrix(460.695,0,0,460.695,1290,2287)">
            <path d="M0.693,-0.329C0.694,-0.302 0.691,-0.275 0.685,-0.249C0.678,-0.223 0.669,-0.198 0.657,-0.175C0.645,-0.151 0.63,-0.129 0.613,-0.109C0.595,-0.088 0.575,-0.07 0.552,-0.055C0.505,-0.023 0.453,-0.005 0.396,-0.001C0.339,0.004 0.285,-0.006 0.234,-0.03C0.209,-0.042 0.187,-0.057 0.166,-0.075C0.145,-0.092 0.126,-0.112 0.111,-0.134C0.095,-0.156 0.082,-0.18 0.072,-0.206C0.061,-0.231 0.055,-0.258 0.052,-0.285C0.051,-0.29 0.051,-0.296 0.051,-0.301C0.05,-0.306 0.05,-0.311 0.05,-0.316L0.05,-0.739C0.05,-0.756 0.056,-0.771 0.068,-0.783C0.08,-0.795 0.095,-0.801 0.112,-0.801C0.129,-0.801 0.144,-0.795 0.156,-0.783C0.168,-0.771 0.174,-0.756 0.174,-0.739L0.174,-0.574L0.174,-0.575C0.208,-0.6 0.246,-0.619 0.287,-0.631C0.328,-0.642 0.369,-0.645 0.412,-0.64C0.454,-0.635 0.494,-0.622 0.531,-0.601C0.568,-0.58 0.6,-0.552 0.626,-0.518C0.647,-0.491 0.663,-0.461 0.674,-0.429C0.685,-0.396 0.692,-0.363 0.693,-0.329ZM0.534,-0.208C0.561,-0.245 0.572,-0.287 0.569,-0.334C0.568,-0.359 0.562,-0.382 0.551,-0.405C0.54,-0.427 0.526,-0.447 0.509,-0.464C0.5,-0.472 0.491,-0.479 0.482,-0.485C0.472,-0.491 0.462,-0.497 0.451,-0.502C0.426,-0.513 0.399,-0.519 0.372,-0.519C0.345,-0.519 0.318,-0.514 0.293,-0.503C0.268,-0.492 0.246,-0.476 0.227,-0.456C0.208,-0.436 0.194,-0.413 0.185,-0.388C0.173,-0.354 0.171,-0.319 0.178,-0.284C0.185,-0.249 0.2,-0.217 0.223,-0.19C0.241,-0.169 0.262,-0.153 0.287,-0.142C0.293,-0.139 0.299,-0.136 0.306,-0.133C0.312,-0.13 0.318,-0.128 0.325,-0.125C0.32,-0.127 0.314,-0.129 0.309,-0.132C0.304,-0.134 0.298,-0.136 0.293,-0.139C0.335,-0.12 0.378,-0.117 0.423,-0.13C0.446,-0.136 0.466,-0.146 0.486,-0.159C0.505,-0.172 0.521,-0.189 0.534,-0.208Z" style="fill:#0076ff;fill-rule:nonzero;"/>
        </g>
        <g transform="matrix(460.695,0,0,460.695,1628.61,2287)">
            <path d="M0.118,-0.601C0.135,-0.601 0.15,-0.595 0.163,-0.583C0.175,-0.57 0.181,-0.555 0.181,-0.538L0.181,-0.065C0.181,-0.048 0.175,-0.033 0.163,-0.021C0.15,-0.008 0.135,-0.002 0.118,-0.002C0.101,-0.002 0.086,-0.008 0.074,-0.021C0.062,-0.033 0.056,-0.048 0.056,-0.065L0.056,-0.538C0.056,-0.555 0.062,-0.57 0.074,-0.583C0.086,-0.595 0.101,-0.601 0.118,-0.601ZM0.118,-0.675C0.101,-0.675 0.086,-0.681 0.074,-0.694C0.062,-0.706 0.056,-0.721 0.056,-0.738C0.056,-0.755 0.062,-0.77 0.074,-0.783C0.086,-0.795 0.101,-0.801 0.118,-0.801C0.135,-0.801 0.15,-0.795 0.163,-0.783C0.175,-0.77 0.181,-0.755 0.181,-0.738C0.181,-0.721 0.175,-0.706 0.163,-0.694C0.15,-0.681 0.135,-0.675 0.118,-0.675Z" style="fill:#0076ff;fill-rule:nonzero;"/>
        </g>
        <g transform="matrix(460.695,0,0,460.695,1767.74,2287)">
            <path d="M0.28,-0.638C0.331,-0.647 0.382,-0.643 0.432,-0.627C0.481,-0.611 0.524,-0.584 0.561,-0.547C0.591,-0.517 0.614,-0.482 0.631,-0.443C0.647,-0.403 0.655,-0.362 0.654,-0.319C0.654,-0.285 0.649,-0.252 0.638,-0.22C0.627,-0.187 0.611,-0.157 0.591,-0.13C0.558,-0.086 0.517,-0.053 0.467,-0.03C0.417,-0.007 0.365,0.003 0.311,0C0.283,-0.002 0.256,-0.008 0.229,-0.017C0.202,-0.026 0.178,-0.039 0.155,-0.054C0.131,-0.069 0.111,-0.087 0.092,-0.108C0.073,-0.129 0.058,-0.152 0.045,-0.177C0.033,-0.202 0.024,-0.227 0.019,-0.254C0.013,-0.281 0.011,-0.308 0.012,-0.335C0.013,-0.362 0.018,-0.388 0.026,-0.415C0.033,-0.441 0.044,-0.466 0.059,-0.489C0.064,-0.498 0.069,-0.506 0.076,-0.515L0.077,-0.515C0.102,-0.548 0.132,-0.575 0.167,-0.596C0.202,-0.617 0.24,-0.631 0.28,-0.638ZM0.496,-0.209C0.51,-0.23 0.52,-0.252 0.526,-0.276C0.531,-0.3 0.532,-0.324 0.529,-0.349C0.525,-0.374 0.518,-0.395 0.507,-0.414C0.494,-0.438 0.476,-0.459 0.455,-0.476C0.434,-0.493 0.41,-0.505 0.383,-0.512C0.357,-0.519 0.33,-0.521 0.303,-0.517C0.276,-0.513 0.25,-0.504 0.227,-0.489C0.197,-0.47 0.174,-0.444 0.157,-0.412C0.14,-0.38 0.133,-0.346 0.135,-0.31C0.136,-0.282 0.143,-0.256 0.156,-0.232C0.159,-0.226 0.163,-0.22 0.166,-0.214C0.169,-0.207 0.172,-0.201 0.176,-0.195C0.17,-0.205 0.164,-0.215 0.159,-0.226C0.17,-0.207 0.183,-0.19 0.2,-0.175C0.217,-0.16 0.235,-0.147 0.256,-0.138C0.277,-0.129 0.3,-0.124 0.323,-0.123C0.346,-0.122 0.369,-0.125 0.391,-0.132C0.412,-0.139 0.432,-0.149 0.45,-0.162C0.468,-0.175 0.483,-0.191 0.496,-0.209Z" style="fill:#0076ff;fill-rule:nonzero;"/>
        </g>
        <g transform="matrix(460.695,0,0,460.695,2075.02,2287)">
            <path d="M0.414,-0.062C0.414,-0.045 0.408,-0.031 0.397,-0.02C0.385,-0.008 0.371,-0.001 0.354,0L0.345,0C0.302,-0.001 0.261,-0.011 0.223,-0.028C0.185,-0.045 0.152,-0.069 0.124,-0.098C0.096,-0.127 0.074,-0.16 0.058,-0.199C0.041,-0.237 0.033,-0.278 0.033,-0.322L0.033,-0.582C0.033,-0.599 0.039,-0.614 0.051,-0.626C0.063,-0.638 0.078,-0.644 0.095,-0.644C0.112,-0.644 0.127,-0.638 0.14,-0.626C0.152,-0.614 0.158,-0.599 0.158,-0.582L0.157,-0.322C0.157,-0.295 0.162,-0.27 0.172,-0.247C0.182,-0.224 0.196,-0.203 0.213,-0.186C0.23,-0.168 0.25,-0.154 0.273,-0.143C0.296,-0.132 0.32,-0.126 0.346,-0.125L0.351,-0.125C0.368,-0.125 0.383,-0.119 0.396,-0.107C0.408,-0.094 0.414,-0.079 0.414,-0.062Z" style="fill:#0076ff;fill-rule:nonzero;"/>
        </g>
        <g transform="matrix(460.695,0,0,460.695,2273.12,2287)">
            <path d="M0.666,-0.321C0.665,-0.304 0.659,-0.289 0.647,-0.277C0.634,-0.265 0.619,-0.259 0.602,-0.258L0.157,-0.258C0.16,-0.25 0.163,-0.242 0.168,-0.233C0.171,-0.226 0.175,-0.22 0.178,-0.214C0.181,-0.208 0.185,-0.202 0.188,-0.196C0.185,-0.201 0.182,-0.207 0.179,-0.212C0.176,-0.217 0.174,-0.222 0.171,-0.227C0.182,-0.208 0.195,-0.19 0.212,-0.175C0.229,-0.16 0.247,-0.148 0.268,-0.139C0.29,-0.13 0.314,-0.124 0.341,-0.123L0.345,-0.123C0.362,-0.123 0.377,-0.117 0.389,-0.106C0.4,-0.094 0.406,-0.079 0.406,-0.062C0.406,-0.045 0.4,-0.03 0.389,-0.018C0.377,-0.006 0.362,0 0.345,0L0.334,0C0.33,0 0.326,0 0.323,-0.001C0.295,-0.003 0.268,-0.009 0.241,-0.018C0.214,-0.027 0.19,-0.04 0.167,-0.055C0.143,-0.069 0.123,-0.087 0.104,-0.108C0.085,-0.129 0.07,-0.152 0.057,-0.177C0.032,-0.227 0.021,-0.28 0.024,-0.336C0.026,-0.391 0.042,-0.443 0.071,-0.49C0.074,-0.494 0.077,-0.498 0.08,-0.503C0.083,-0.507 0.086,-0.511 0.089,-0.515C0.114,-0.548 0.144,-0.576 0.179,-0.597C0.214,-0.618 0.252,-0.632 0.292,-0.639C0.343,-0.647 0.394,-0.643 0.444,-0.627C0.494,-0.611 0.537,-0.584 0.573,-0.547C0.602,-0.517 0.625,-0.483 0.642,-0.445C0.658,-0.407 0.666,-0.367 0.666,-0.325L0.666,-0.321ZM0.239,-0.489C0.22,-0.476 0.203,-0.461 0.189,-0.443C0.175,-0.424 0.164,-0.404 0.157,-0.383L0.533,-0.383C0.53,-0.393 0.525,-0.404 0.519,-0.415C0.506,-0.439 0.489,-0.46 0.468,-0.477C0.446,-0.494 0.422,-0.506 0.395,-0.513C0.369,-0.52 0.342,-0.522 0.315,-0.518C0.288,-0.513 0.262,-0.504 0.239,-0.489Z" style="fill:#0076ff;fill-rule:nonzero;"/>
        </g>
        <g transform="matrix(460.695,0,0,460.695,2585.48,2287)">
            <path d="M0.663,-0.297C0.663,-0.296 0.663,-0.295 0.662,-0.294C0.662,-0.291 0.662,-0.287 0.661,-0.282C0.66,-0.277 0.659,-0.272 0.658,-0.265C0.651,-0.228 0.639,-0.193 0.62,-0.161C0.6,-0.128 0.577,-0.1 0.549,-0.077C0.521,-0.053 0.489,-0.034 0.454,-0.021C0.418,-0.007 0.38,0 0.341,0C0.297,0 0.256,-0.009 0.217,-0.026C0.178,-0.043 0.143,-0.066 0.115,-0.095C0.086,-0.124 0.063,-0.158 0.046,-0.197C0.028,-0.236 0.02,-0.278 0.02,-0.322C0.02,-0.366 0.028,-0.408 0.046,-0.447C0.063,-0.486 0.086,-0.521 0.115,-0.55C0.143,-0.579 0.178,-0.602 0.217,-0.619C0.256,-0.636 0.297,-0.644 0.341,-0.644C0.374,-0.644 0.405,-0.639 0.434,-0.63C0.463,-0.621 0.491,-0.608 0.516,-0.592L0.527,-0.585C0.542,-0.576 0.551,-0.563 0.555,-0.546C0.558,-0.529 0.555,-0.514 0.546,-0.499C0.537,-0.484 0.524,-0.475 0.507,-0.471C0.49,-0.467 0.475,-0.47 0.46,-0.479L0.436,-0.495C0.422,-0.502 0.407,-0.508 0.391,-0.513C0.375,-0.517 0.358,-0.519 0.341,-0.519C0.314,-0.519 0.288,-0.514 0.265,-0.504C0.241,-0.493 0.22,-0.479 0.202,-0.462C0.184,-0.444 0.17,-0.423 0.16,-0.399C0.149,-0.375 0.144,-0.349 0.144,-0.322C0.144,-0.295 0.149,-0.269 0.16,-0.245C0.17,-0.221 0.184,-0.2 0.202,-0.183C0.22,-0.165 0.241,-0.151 0.265,-0.141C0.288,-0.13 0.314,-0.125 0.341,-0.125C0.362,-0.125 0.383,-0.128 0.402,-0.135C0.421,-0.141 0.439,-0.15 0.455,-0.161C0.471,-0.172 0.485,-0.186 0.497,-0.202C0.509,-0.217 0.519,-0.234 0.526,-0.253L0.44,-0.253C0.423,-0.253 0.408,-0.259 0.396,-0.272C0.384,-0.284 0.378,-0.299 0.378,-0.316C0.378,-0.333 0.384,-0.348 0.396,-0.36C0.408,-0.372 0.423,-0.378 0.44,-0.378L0.595,-0.378C0.614,-0.377 0.63,-0.369 0.644,-0.355C0.657,-0.34 0.663,-0.323 0.663,-0.304L0.663,-0.297Z" style="fill:#0076ff;fill-rule:nonzero;"/>
        </g>
        <g transform="matrix(460.695,0,0,460.695,2910.73,2287)">
            <path d="M0.666,-0.321C0.665,-0.304 0.659,-0.289 0.647,-0.277C0.634,-0.265 0.619,-0.259 0.602,-0.258L0.157,-0.258C0.16,-0.25 0.163,-0.242 0.168,-0.233C0.171,-0.226 0.175,-0.22 0.178,-0.214C0.181,-0.208 0.185,-0.202 0.188,-0.196C0.185,-0.201 0.182,-0.207 0.179,-0.212C0.176,-0.217 0.174,-0.222 0.171,-0.227C0.182,-0.208 0.195,-0.19 0.212,-0.175C0.229,-0.16 0.247,-0.148 0.268,-0.139C0.29,-0.13 0.314,-0.124 0.341,-0.123L0.345,-0.123C0.362,-0.123 0.377,-0.117 0.389,-0.106C0.4,-0.094 0.406,-0.079 0.406,-0.062C0.406,-0.045 0.4,-0.03 0.389,-0.018C0.377,-0.006 0.362,0 0.345,0L0.334,0C0.33,0 0.326,0 0.323,-0.001C0.295,-0.003 0.268,-0.009 0.241,-0.018C0.214,-0.027 0.19,-0.04 0.167,-0.055C0.143,-0.069 0.123,-0.087 0.104,-0.108C0.085,-0.129 0.07,-0.152 0.057,-0.177C0.032,-0.227 0.021,-0.28 0.024,-0.336C0.026,-0.391 0.042,-0.443 0.071,-0.49C0.074,-0.494 0.077,-0.498 0.08,-0.503C0.083,-0.507 0.086,-0.511 0.089,-0.515C0.114,-0.548 0.144,-0.576 0.179,-0.597C0.214,-0.618 0.252,-0.632 0.292,-0.639C0.343,-0.647 0.394,-0.643 0.444,-0.627C0.494,-0.611 0.537,-0.584 0.573,-0.547C0.602,-0.517 0.625,-0.483 0.642,-0.445C0.658,-0.407 0.666,-0.367 0.666,-0.325L0.666,-0.321ZM0.239,-0.489C0.22,-0.476 0.203,-0.461 0.189,-0.443C0.175,-0.424 0.164,-0.404 0.157,-0.383L0.533,-0.383C0.53,-0.393 0.525,-0.404 0.519,-0.415C0.506,-0.439 0.489,-0.46 0.468,-0.477C0.446,-0.494 0.422,-0.506 0.395,-0.513C0.369,-0.52 0.342,-0.522 0.315,-0.518C0.288,-0.513 0.262,-0.504 0.239,-0.489Z" style="fill:#0076ff;fill-rule:nonzero;"/>
        </g>
    </g>
    <g transform="matrix(0.166504,0,0,0.165356,-44.4938,-27.3962)">
        <g transform="matrix(1.8215,0,0,1.8215,-421.136,-94.1736)">
            <path d="M461.701,224.036C468.318,224.036 473.701,229.419 473.701,236.036C473.701,242.653 468.318,248.037 461.701,248.037C455.084,248.037 449.701,242.653 449.701,236.036C449.701,229.419 455.084,224.036 461.701,224.036ZM469.524,189.111L490.682,189.111C496.9,189.111 501.958,194.169 501.958,200.386C501.958,206.604 496.9,211.662 490.682,211.662L469.524,211.662C463.306,211.662 458.248,206.604 458.248,200.386C458.248,194.169 463.306,189.111 469.524,189.111Z" style="fill:#0076ff;fill-rule:nonzero;"/>
        </g>
        <g transform="matrix(1.8215,0,0,1.8215,-421.136,-94.1736)">
            <path d="M540.389,324.671C533.772,324.671 528.389,319.288 528.389,312.671C528.389,306.054 533.772,300.671 540.389,300.671C547.006,300.671 552.39,306.054 552.39,312.671C552.39,319.288 547.006,324.671 540.389,324.671ZM532.567,359.597L511.408,359.597C505.19,359.597 500.132,354.538 500.132,348.321C500.132,342.104 505.19,337.045 511.408,337.045L532.567,337.045C538.784,337.045 543.842,342.104 543.842,348.321C543.842,354.538 538.784,359.597 532.567,359.597Z" style="fill:#0076ff;fill-rule:nonzero;"/>
        </g>
        <g transform="matrix(1.8215,0,0,1.8215,-421.136,-94.1736)">
            <path d="M566.732,192.157C567.114,192.448 567.486,192.752 567.864,193.049" style="fill:#0076ff;fill-rule:nonzero;"/>
        </g>
        <g transform="matrix(1.8215,0,0,1.8215,-421.136,-94.1736)">
            <path d="M566.732,192.157C567.114,192.448 567.486,192.752 567.864,193.049" style="fill:#0076ff;"/>
        </g>
        <g transform="matrix(1.8215,0,0,1.8215,-421.136,-94.1736)">
            <path d="M564.113,190.225C564.501,190.502 564.879,190.791 565.263,191.073" style="fill:#0076ff;fill-rule:nonzero;"/>
        </g>
        <g transform="matrix(1.8215,0,0,1.8215,-421.136,-94.1736)">
            <path d="M564.113,190.225C564.501,190.502 564.879,190.791 565.263,191.073" style="fill:#0076ff;"/>
        </g>
        <g transform="matrix(1.8215,0,0,1.8215,-421.136,-94.1736)">
            <path d="M558.689,186.615C559.01,186.814 559.324,187.025 559.643,187.228" style="fill:#0076ff;fill-rule:nonzero;"/>
        </g>
        <g transform="matrix(1.8215,0,0,1.8215,-421.136,-94.1736)">
            <path d="M558.689,186.615C559.01,186.814 559.324,187.025 559.643,187.228" style="fill:#0076ff;"/>
        </g>
        <g transform="matrix(1.8215,0,0,1.8215,-421.136,-94.1736)">
            <path d="M606.517,274.776C606.505,275.291 606.484,275.803 606.464,276.315" style="fill:#0076ff;fill-rule:nonzero;"/>
        </g>
        <g transform="matrix(1.8215,0,0,1.8215,-421.136,-94.1736)">
            <path d="M606.517,274.776C606.505,275.291 606.484,275.803 606.464,276.315" style="fill:#0076ff;"/>
        </g>
        <g transform="matrix(1.8215,0,0,1.8215,-421.136,-94.1736)">
            <path d="M561.432,188.378C561.805,188.626 562.168,188.887 562.538,189.14" style="fill:#0076ff;fill-rule:nonzero;"/>
        </g>
        <g transform="matrix(1.8215,0,0,1.8215,-421.136,-94.1736)">
            <path d="M561.432,188.378C561.805,188.626 562.168,188.887 562.538,189.14" style="fill:#0076ff;"/>
        </g>
        <g transform="matrix(1.8215,0,0,1.8215,-421.136,-94.1736)">
            <path d="M606.479,268.729C606.5,269.296 606.503,269.866 606.514,270.434" style="fill:#0076ff;fill-rule:nonzero;"/>
        </g>
        <g transform="matrix(1.8215,0,0,1.8215,-421.136,-94.1736)">
            <path d="M606.479,268.729C606.5,269.296 606.503,269.866 606.514,270.434" style="fill:#0076ff;"/>
        </g>
        <g transform="matrix(1.8215,0,0,1.8215,-421.136,-94.1736)">
            <path d="M514.242,372.869C513.735,372.911 513.227,372.951 512.718,372.986" style="fill:#0076ff;fill-rule:nonzero;"/>
        </g>
        <g transform="matrix(1.8215,0,0,1.8215,-421.136,-94.1736)">
            <path d="M514.242,372.869C513.735,372.911 513.227,372.951 512.718,372.986" style="fill:#0076ff;"/>
        </g>
        <g transform="matrix(1.8215,0,0,1.8215,-421.136,-94.1736)">
            <path d="M599.7,235.857C599.895,236.357 600.075,236.864 600.263,237.368" style="fill:#0076ff;fill-rule:nonzero;"/>
        </g>
        <g transform="matrix(1.8215,0,0,1.8215,-421.136,-94.1736)">
            <path d="M599.7,235.857C599.895,236.357 600.075,236.864 600.263,237.368" style="fill:#0076ff;"/>
        </g>
        <g transform="matrix(1.8215,0,0,1.8215,-421.136,-94.1736)">
            <path d="M511.596,373.057C511.139,373.084 510.682,373.107 510.225,373.128" style="fill:#0076ff;fill-rule:nonzero;"/>
        </g>
        <g transform="matrix(1.8215,0,0,1.8215,-421.136,-94.1736)">
            <path d="M511.596,373.057C511.139,373.084 510.682,373.107 510.225,373.128" style="fill:#0076ff;"/>
        </g>
        <g transform="matrix(1.8215,0,0,1.8215,-421.136,-94.1736)">
            <path d="M516.916,372.607C516.331,372.672 515.744,372.732 515.156,372.787" style="fill:#0076ff;fill-rule:nonzero;"/>
        </g>
        <g transform="matrix(1.8215,0,0,1.8215,-421.136,-94.1736)">
            <path d="M516.916,372.607C516.331,372.672 515.744,372.732 515.156,372.787" style="fill:#0076ff;"/>
        </g>
        <g transform="matrix(1.8215,0,0,1.8215,-421.136,-94.1736)">
            <path d="M606.427,277.295C606.394,277.962 606.352,278.625 606.307,279.288" style="fill:#0076ff;fill-rule:nonzero;"/>
        </g>
        <g transform="matrix(1.8215,0,0,1.8215,-421.136,-94.1736)">
            <path d="M606.427,277.295C606.394,277.962 606.352,278.625 606.307,279.288" style="fill:#0076ff;"/>
        </g>
        <g transform="matrix(1.8215,0,0,1.8215,-421.136,-94.1736)">
            <path d="M498.974,373.006C498.692,372.988 498.411,372.965 498.13,372.944" style="fill:#0076ff;fill-rule:nonzero;"/>
        </g>
        <g transform="matrix(1.8215,0,0,1.8215,-421.136,-94.1736)">
            <path d="M498.974,373.006C498.692,372.988 498.411,372.965 498.13,372.944" style="fill:#0076ff;"/>
        </g>
        <g transform="matrix(1.8215,0,0,1.8215,-421.136,-94.1736)">
            <path d="M502.093,373.169C502.21,373.173 502.329,373.174 502.447,373.177" style="fill:#0076ff;fill-rule:nonzero;"/>
        </g>
        <g transform="matrix(1.8215,0,0,1.8215,-421.136,-94.1736)">
            <path d="M502.093,373.169C502.21,373.173 502.329,373.174 502.447,373.177" style="fill:#0076ff;"/>
        </g>
        <g transform="matrix(1.8215,0,0,1.8215,-421.136,-94.1736)">
            <path d="M508.974,373.175C508.542,373.189 508.109,373.201 507.676,373.209" style="fill:#0076ff;fill-rule:nonzero;"/>
        </g>
        <g transform="matrix(1.8215,0,0,1.8215,-421.136,-94.1736)">
            <path d="M508.974,373.175C508.542,373.189 508.109,373.201 507.676,373.209" style="fill:#0076ff;"/>
        </g>
        <g transform="matrix(1.8215,0,0,1.8215,-421.136,-94.1736)">
            <path d="M519.604,372.271C518.918,372.366 518.228,372.455 517.537,372.536" style="fill:#0076ff;fill-rule:nonzero;"/>
        </g>
        <g transform="matrix(1.8215,0,0,1.8215,-421.136,-94.1736)">
            <path d="M519.604,372.271C518.918,372.366 518.228,372.455 517.537,372.536" style="fill:#0076ff;"/>
        </g>
        <g transform="matrix(1.8215,0,0,1.8215,-421.136,-94.1736)">
            <path d="M583.128,207.844C583.456,208.236 583.772,208.64 584.094,209.037" style="fill:#0076ff;fill-rule:nonzero;"/>
        </g>
        <g transform="matrix(1.8215,0,0,1.8215,-421.136,-94.1736)">
            <path d="M583.128,207.844C583.456,208.236 583.772,208.64 584.094,209.037" style="fill:#0076ff;"/>
        </g>
        <g transform="matrix(1.8215,0,0,1.8215,-421.136,-94.1736)">
            <path d="M590.808,218.342C591.094,218.79 591.366,219.248 591.645,219.701" style="fill:#0076ff;fill-rule:nonzero;"/>
        </g>
        <g transform="matrix(1.8215,0,0,1.8215,-421.136,-94.1736)">
            <path d="M590.808,218.342C591.094,218.79 591.366,219.248 591.645,219.701" style="fill:#0076ff;"/>
        </g>
        <g transform="matrix(1.8215,0,0,1.8215,-421.136,-94.1736)">
            <path d="M603.695,248.532C603.823,249.059 603.936,249.592 604.056,250.122" style="fill:#0076ff;fill-rule:nonzero;"/>
        </g>
        <g transform="matrix(1.8215,0,0,1.8215,-421.136,-94.1736)">
            <path d="M603.695,248.532C603.823,249.059 603.936,249.592 604.056,250.122" style="fill:#0076ff;"/>
        </g>
        <g transform="matrix(1.8215,0,0,1.8215,-421.136,-94.1736)">
            <path d="M604.434,251.807C604.545,252.341 604.641,252.882 604.744,253.42" style="fill:#0076ff;fill-rule:nonzero;"/>
        </g>
        <g transform="matrix(1.8215,0,0,1.8215,-421.136,-94.1736)">
            <path d="M604.434,251.807C604.545,252.341 604.641,252.882 604.744,253.42" style="fill:#0076ff;"/>
        </g>
        <g transform="matrix(1.8215,0,0,1.8215,-421.136,-94.1736)">
            <path d="M587.134,212.966C587.438,213.382 587.73,213.808 588.028,214.229" style="fill:#0076ff;fill-rule:nonzero;"/>
        </g>
        <g transform="matrix(1.8215,0,0,1.8215,-421.136,-94.1736)">
            <path d="M587.134,212.966C587.438,213.382 587.73,213.808 588.028,214.229" style="fill:#0076ff;"/>
        </g>
        <g transform="matrix(1.8215,0,0,1.8215,-421.136,-94.1736)">
            <path d="M602.849,245.296C602.995,245.818 603.126,246.346 603.263,246.871" style="fill:#0076ff;fill-rule:nonzero;"/>
        </g>
        <g transform="matrix(1.8215,0,0,1.8215,-421.136,-94.1736)">
            <path d="M602.849,245.296C602.995,245.818 603.126,246.346 603.263,246.871" style="fill:#0076ff;"/>
        </g>
        <g transform="matrix(1.8215,0,0,1.8215,-421.136,-94.1736)">
            <path d="M585.172,210.373C585.485,210.773 585.785,211.182 586.091,211.586" style="fill:#0076ff;fill-rule:nonzero;"/>
        </g>
        <g transform="matrix(1.8215,0,0,1.8215,-421.136,-94.1736)">
            <path d="M585.172,210.373C585.485,210.773 585.785,211.182 586.091,211.586" style="fill:#0076ff;"/>
        </g>
        <g transform="matrix(1.8215,0,0,1.8215,-421.136,-94.1736)">
            <path d="M589.013,215.623C589.31,216.058 589.594,216.502 589.885,216.941" style="fill:#0076ff;fill-rule:nonzero;"/>
        </g>
        <g transform="matrix(1.8215,0,0,1.8215,-421.136,-94.1736)">
            <path d="M589.013,215.623C589.31,216.058 589.594,216.502 589.885,216.941" style="fill:#0076ff;"/>
        </g>
        <g transform="matrix(1.8215,0,0,1.8215,-421.136,-94.1736)">
            <path d="M600.85,238.957C601.029,239.465 601.193,239.979 601.364,240.49" style="fill:#0076ff;fill-rule:nonzero;"/>
        </g>
        <g transform="matrix(1.8215,0,0,1.8215,-421.136,-94.1736)">
            <path d="M600.85,238.957C601.029,239.465 601.193,239.979 601.364,240.49" style="fill:#0076ff;"/>
        </g>
        <g transform="matrix(1.8215,0,0,1.8215,-421.136,-94.1736)">
            <path d="M598.452,232.805C598.662,233.296 598.858,233.795 599.061,234.289" style="fill:#0076ff;fill-rule:nonzero;"/>
        </g>
        <g transform="matrix(1.8215,0,0,1.8215,-421.136,-94.1736)">
            <path d="M598.452,232.805C598.662,233.296 598.858,233.795 599.061,234.289" style="fill:#0076ff;"/>
        </g>
        <g transform="matrix(1.8215,0,0,1.8215,-421.136,-94.1736)">
            <path d="M606.389,266.97C606.359,266.406 606.336,265.84 606.297,265.278" style="fill:#0076ff;fill-rule:nonzero;"/>
        </g>
        <g transform="matrix(1.8215,0,0,1.8215,-421.136,-94.1736)">
            <path d="M606.389,266.97C606.359,266.406 606.336,265.84 606.297,265.278" style="fill:#0076ff;"/>
        </g>
        <g transform="matrix(1.8215,0,0,1.8215,-421.136,-94.1736)">
            <path d="M592.517,221.122C592.787,221.576 593.043,222.039 593.305,222.498" style="fill:#0076ff;fill-rule:nonzero;"/>
        </g>
        <g transform="matrix(1.8215,0,0,1.8215,-421.136,-94.1736)">
            <path d="M592.517,221.122C592.787,221.576 593.043,222.039 593.305,222.498" style="fill:#0076ff;"/>
        </g>
        <g transform="matrix(1.8215,0,0,1.8215,-421.136,-94.1736)">
            <path d="M594.139,223.961C594.391,224.42 594.63,224.888 594.875,225.351" style="fill:#0076ff;fill-rule:nonzero;"/>
        </g>
        <g transform="matrix(1.8215,0,0,1.8215,-421.136,-94.1736)">
            <path d="M594.139,223.961C594.391,224.42 594.63,224.888 594.875,225.351" style="fill:#0076ff;"/>
        </g>
        <g transform="matrix(1.8215,0,0,1.8215,-421.136,-94.1736)">
            <path d="M595.669,226.856C595.907,227.323 596.13,227.798 596.36,228.269" style="fill:#0076ff;fill-rule:nonzero;"/>
        </g>
        <g transform="matrix(1.8215,0,0,1.8215,-421.136,-94.1736)">
            <path d="M595.669,226.856C595.907,227.323 596.13,227.798 596.36,228.269" style="fill:#0076ff;"/>
        </g>
        <g transform="matrix(1.8215,0,0,1.8215,-421.136,-94.1736)">
            <path d="M601.901,242.105C602.063,242.62 602.211,243.142 602.366,243.661" style="fill:#0076ff;fill-rule:nonzero;"/>
        </g>
        <g transform="matrix(1.8215,0,0,1.8215,-421.136,-94.1736)">
            <path d="M601.901,242.105C602.063,242.62 602.211,243.142 602.366,243.661" style="fill:#0076ff;"/>
        </g>
        <g transform="matrix(1.8215,0,0,1.8215,-421.136,-94.1736)">
            <path d="M597.108,229.805C597.332,230.283 597.541,230.769 597.757,231.251" style="fill:#0076ff;fill-rule:nonzero;"/>
        </g>
        <g transform="matrix(1.8215,0,0,1.8215,-421.136,-94.1736)">
            <path d="M597.108,229.805C597.332,230.283 597.541,230.769 597.757,231.251" style="fill:#0076ff;"/>
        </g>
        <g transform="matrix(1.8215,0,0,1.8215,-421.136,-94.1736)">
            <path d="M574.189,198.431C574.558,198.772 574.915,199.125 575.279,199.473" style="fill:#0076ff;fill-rule:nonzero;"/>
        </g>
        <g transform="matrix(1.8215,0,0,1.8215,-421.136,-94.1736)">
            <path d="M574.189,198.431C574.558,198.772 574.915,199.125 575.279,199.473" style="fill:#0076ff;"/>
        </g>
        <g transform="matrix(1.8215,0,0,1.8215,-421.136,-94.1736)">
            <path d="M605.066,255.121C605.16,255.665 605.239,256.214 605.324,256.761" style="fill:#0076ff;fill-rule:nonzero;"/>
        </g>
        <g transform="matrix(1.8215,0,0,1.8215,-421.136,-94.1736)">
            <path d="M605.066,255.121C605.16,255.665 605.239,256.214 605.324,256.761" style="fill:#0076ff;"/>
        </g>
        <g transform="matrix(1.8215,0,0,1.8215,-421.136,-94.1736)">
            <path d="M605.588,258.471C605.665,259.024 605.726,259.582 605.793,260.138" style="fill:#0076ff;fill-rule:nonzero;"/>
        </g>
        <g transform="matrix(1.8215,0,0,1.8215,-421.136,-94.1736)">
            <path d="M605.588,258.471C605.665,259.024 605.726,259.582 605.793,260.138" style="fill:#0076ff;"/>
        </g>
        <g transform="matrix(1.8215,0,0,1.8215,-421.136,-94.1736)">
            <path d="M571.772,196.261C572.146,196.587 572.51,196.924 572.88,197.255" style="fill:#0076ff;fill-rule:nonzero;"/>
        </g>
        <g transform="matrix(1.8215,0,0,1.8215,-421.136,-94.1736)">
            <path d="M571.772,196.261C572.146,196.587 572.51,196.924 572.88,197.255" style="fill:#0076ff;"/>
        </g>
        <g transform="matrix(1.8215,0,0,1.8215,-421.136,-94.1736)">
            <path d="M569.285,194.169C569.668,194.481 570.04,194.804 570.417,195.121" style="fill:#0076ff;fill-rule:nonzero;"/>
        </g>
        <g transform="matrix(1.8215,0,0,1.8215,-421.136,-94.1736)">
            <path d="M569.285,194.169C569.668,194.481 570.04,194.804 570.417,195.121" style="fill:#0076ff;"/>
        </g>
        <g transform="matrix(1.8215,0,0,1.8215,-421.136,-94.1736)">
            <path d="M578.808,202.993C579.163,203.368 579.507,203.753 579.857,204.133" style="fill:#0076ff;fill-rule:nonzero;"/>
        </g>
        <g transform="matrix(1.8215,0,0,1.8215,-421.136,-94.1736)">
            <path d="M578.808,202.993C579.163,203.368 579.507,203.753 579.857,204.133" style="fill:#0076ff;"/>
        </g>
        <g transform="matrix(1.8215,0,0,1.8215,-421.136,-94.1736)">
            <path d="M605.999,261.858C606.057,262.416 606.099,262.979 606.148,263.539" style="fill:#0076ff;fill-rule:nonzero;"/>
        </g>
        <g transform="matrix(1.8215,0,0,1.8215,-421.136,-94.1736)">
            <path d="M605.999,261.858C606.057,262.416 606.099,262.979 606.148,263.539" style="fill:#0076ff;"/>
        </g>
        <g transform="matrix(1.8215,0,0,1.8215,-421.136,-94.1736)">
            <path d="M576.535,200.675C576.899,201.035 577.252,201.406 577.61,201.771" style="fill:#0076ff;fill-rule:nonzero;"/>
        </g>
        <g transform="matrix(1.8215,0,0,1.8215,-421.136,-94.1736)">
            <path d="M576.535,200.675C576.899,201.035 577.252,201.406 577.61,201.771" style="fill:#0076ff;"/>
        </g>
        <g transform="matrix(1.8215,0,0,1.8215,-421.136,-94.1736)">
            <path d="M581.006,205.384C581.351,205.77 581.683,206.168 582.021,206.559" style="fill:#0076ff;fill-rule:nonzero;"/>
        </g>
        <g transform="matrix(1.8215,0,0,1.8215,-421.136,-94.1736)">
            <path d="M581.006,205.384C581.351,205.77 581.683,206.168 582.021,206.559" style="fill:#0076ff;"/>
        </g>
        <g transform="matrix(1.8215,0,0,1.8215,-421.136,-94.1736)">
            <path d="M469.524,211.662L490.682,211.662C496.9,211.662 501.958,206.604 501.958,200.386C501.958,194.169 496.9,189.111 490.682,189.111L469.524,189.111C463.306,189.111 458.248,194.169 458.248,200.386C458.248,206.604 463.306,211.662 469.524,211.662Z" style="fill:#0076ff;fill-rule:nonzero;"/>
        </g>
        <g transform="matrix(1.8215,0,0,1.8215,-421.136,-94.1736)">
            <path d="M461.701,248.037C468.318,248.037 473.701,242.653 473.701,236.036C473.701,229.419 468.318,224.036 461.701,224.036C455.084,224.036 449.701,229.419 449.701,236.036C449.701,242.653 455.084,248.037 461.701,248.037Z" style="fill:#0076ff;fill-rule:nonzero;"/>
        </g>
        <g transform="matrix(1.8215,0,0,1.8215,-421.136,-94.1736)">
            <path d="M532.567,337.045L511.408,337.045C505.19,337.045 500.132,342.104 500.132,348.321C500.132,354.538 505.19,359.597 511.408,359.597L532.567,359.597C538.784,359.597 543.842,354.538 543.842,348.321C543.842,342.104 538.784,337.045 532.567,337.045Z" style="fill:#0076ff;fill-rule:nonzero;"/>
        </g>
        <g transform="matrix(1.8215,0,0,1.8215,-421.136,-94.1736)">
            <path d="M540.389,300.671C533.772,300.671 528.389,306.054 528.389,312.671C528.389,319.288 533.772,324.671 540.389,324.671C547.006,324.671 552.39,319.288 552.39,312.671C552.39,306.054 547.006,300.671 540.389,300.671Z" style="fill:#0076ff;fill-rule:nonzero;"/>
        </g>
        <g transform="matrix(1.8215,0,0,1.8215,-421.136,-94.1736)">
            <path d="M633.473,269.943C632.172,200.721 575.184,144.727 505.95,144.595C491.012,144.567 476.663,147.116 463.322,151.82C455.043,154.739 452.046,164.917 457.339,171.919C461.059,176.84 467.512,178.852 473.353,176.868C483.512,173.417 494.392,171.543 505.702,171.543C506.47,171.543 507.235,171.552 507.998,171.569C514.601,171.719 519.525,174.859 523.588,181.434C523.643,181.511 525.011,183.514 526.535,189L518.932,189C512.807,189 507.532,193.696 507.23,199.812C506.907,206.35 512.133,211.772 518.602,211.772L529.507,211.772C529.31,215.845 528.632,219.841 527.479,223.756L492.541,223.756C486.087,223.756 480.526,228.705 480.207,235.151C479.867,242.042 485.375,247.756 492.193,247.756L513.737,247.756C508.659,253.57 502.419,259.137 495.07,264.43C453.602,294.296 444.353,325.454 443.895,346.331C443.852,348.306 443.889,350.222 443.984,352.084C420.196,333.62 404.857,304.764 404.857,272.389C404.857,240.692 419.558,212.367 442.497,193.867C448.136,189.319 449.603,181.134 445.383,175.247C440.837,168.904 431.971,167.784 425.944,172.611C396.024,196.575 377.071,233.692 377.937,275.113C379.374,343.745 435.513,399.352 504.155,400.173C519.185,400.352 533.632,397.918 547.075,393.303C554.917,390.61 558.563,381.61 554.721,374.263C551.636,368.363 544.701,365.575 538.409,367.752C532.459,369.811 526.259,371.325 519.87,372.234C519.781,372.246 519.693,372.259 519.604,372.271C518.918,372.366 518.228,372.455 517.537,372.536C517.33,372.56 517.123,372.584 516.916,372.607C516.331,372.672 515.744,372.732 515.156,372.787C514.852,372.816 514.547,372.843 514.242,372.869C513.735,372.911 513.227,372.951 512.718,372.986C512.344,373.012 511.97,373.035 511.596,373.057C511.139,373.084 510.682,373.107 510.225,373.128C509.809,373.146 509.392,373.162 508.974,373.175C508.542,373.189 508.109,373.201 507.676,373.209C507.467,373.213 507.26,373.222 507.051,373.225C506.82,373.228 506.59,373.224 506.36,373.226C505.996,373.228 505.634,373.228 505.271,373.226C504.327,373.222 503.385,373.207 502.447,373.177C502.329,373.174 502.21,373.173 502.093,373.169C501.048,373.132 500.009,373.075 498.974,373.006C498.692,372.988 498.411,372.965 498.13,372.944C497.756,372.916 497.381,372.894 497.008,372.862C496.797,372.844 496.59,372.815 496.381,372.792C487.852,371.85 480.67,366.765 476.702,359.707L483.158,359.707C489.282,359.707 494.559,355.011 494.861,348.895C495.183,342.357 489.957,336.935 483.489,336.935L474.611,336.935C475.523,332.9 476.925,328.904 478.824,324.952L509.549,324.952C516.003,324.952 521.565,320.002 521.883,313.556C522.223,306.666 516.715,300.951 509.897,300.951L496.991,300.951C501.467,296.679 506.564,292.475 512.294,288.347C530.557,275.194 542.075,261.256 549.089,247.756C553.165,239.912 555.72,232.217 557.191,224.91C559.038,215.731 559.177,207.165 558.474,199.689C557.976,194.408 557.049,189.469 555.887,184.94C556.83,185.484 557.764,186.042 558.689,186.615C559.01,186.814 559.324,187.025 559.643,187.228C560.241,187.608 560.842,187.985 561.432,188.378C561.805,188.626 562.168,188.887 562.538,189.14C563.064,189.5 563.594,189.855 564.113,190.225C564.501,190.502 564.879,190.791 565.263,191.073C565.753,191.433 566.248,191.788 566.732,192.157C567.114,192.448 567.486,192.752 567.864,193.049C568.339,193.421 568.818,193.788 569.285,194.169C569.668,194.481 570.04,194.804 570.417,195.121C570.87,195.5 571.326,195.874 571.772,196.261C572.146,196.587 572.51,196.924 572.88,197.255C573.317,197.646 573.759,198.032 574.189,198.431C574.558,198.772 574.915,199.125 575.279,199.473C575.698,199.873 576.122,200.268 576.535,200.675C576.899,201.035 577.252,201.406 577.61,201.771C578.01,202.178 578.415,202.58 578.808,202.993C579.163,203.368 579.507,203.753 579.857,204.133C580.241,204.55 580.63,204.961 581.006,205.384C581.351,205.77 581.683,206.168 582.021,206.559C582.391,206.987 582.766,207.41 583.128,207.844C583.456,208.236 583.772,208.64 584.094,209.037C584.454,209.482 584.819,209.922 585.172,210.373C585.485,210.773 585.785,211.182 586.091,211.586C586.44,212.046 586.793,212.501 587.134,212.966C587.438,213.382 587.73,213.808 588.028,214.229C588.357,214.693 588.692,215.153 589.013,215.623C589.31,216.058 589.594,216.502 589.885,216.941C590.193,217.407 590.507,217.87 590.808,218.342C591.094,218.79 591.366,219.248 591.645,219.701C591.937,220.174 592.234,220.644 592.517,221.122C592.787,221.576 593.043,222.039 593.305,222.498C593.583,222.985 593.868,223.469 594.139,223.961C594.391,224.42 594.63,224.888 594.875,225.351C595.141,225.852 595.412,226.35 595.669,226.856C595.907,227.323 596.13,227.798 596.36,228.269C596.61,228.781 596.866,229.289 597.108,229.805C597.332,230.283 597.541,230.769 597.757,231.251C597.99,231.769 598.228,232.283 598.452,232.805C598.662,233.296 598.858,233.795 599.061,234.289C599.275,234.811 599.494,235.33 599.7,235.857C599.895,236.357 600.075,236.864 600.263,237.368C600.459,237.897 600.662,238.424 600.85,238.957C601.029,239.465 601.193,239.979 601.364,240.49C601.544,241.028 601.73,241.563 601.901,242.105C602.063,242.62 602.211,243.142 602.366,243.661C602.528,244.205 602.696,244.747 602.849,245.296C602.995,245.818 603.126,246.346 603.263,246.871C603.408,247.424 603.559,247.975 603.695,248.532C603.823,249.059 603.936,249.592 604.056,250.122C604.183,250.683 604.317,251.242 604.434,251.807C604.545,252.341 604.641,252.882 604.744,253.42C604.852,253.987 604.967,254.551 605.066,255.121C605.16,255.665 605.239,256.214 605.324,256.761C605.413,257.331 605.509,257.898 605.588,258.471C605.665,259.024 605.726,259.582 605.793,260.138C605.863,260.711 605.939,261.282 605.999,261.858C606.057,262.416 606.099,262.979 606.148,263.539C606.199,264.119 606.256,264.696 606.297,265.278C606.336,265.84 606.359,266.406 606.389,266.97C606.42,267.556 606.458,268.141 606.479,268.729C606.5,269.296 606.503,269.866 606.514,270.434C606.524,270.966 606.545,271.496 606.547,272.03C606.547,272.1 606.545,272.17 606.545,272.239C606.546,272.665 606.538,273.088 606.533,273.512C606.529,273.934 606.527,274.356 606.517,274.776C606.505,275.291 606.484,275.803 606.464,276.315C606.451,276.642 606.442,276.969 606.427,277.295C606.394,277.962 606.352,278.625 606.307,279.288C606.296,279.448 606.288,279.61 606.276,279.77C604.229,307.639 590.693,332.511 570.393,349.578C565.446,353.737 564.044,360.763 567.132,366.44C571.232,373.978 581.191,375.789 587.762,370.272C616.282,346.326 634.229,310.179 633.473,269.943Z" style="fill:#0076ff;fill-rule:nonzero;"/>
        </g>
    </g>
</svg>
